<?xml version="1.0" encoding="UTF-8"?>
<svg id="Layer_1" data-name="Layer 1" xmlns="http://www.w3.org/2000/svg" viewBox="60 95 985 160" fill="#FFFFFF">
  <path d="M192.39,205.85c0,25.8-23.33,41.5-59.67,41.5h-68.2l3.59-16.38h17.5l8.52-6.96,17.27-81.21-5.61-6.95h-17.5l3.59-16.38h65.73c27.37,0,41.05,10.54,41.05,28.94,0,15.25-10.1,28.27-27.59,32.3,12.79,2.02,21.09,12.79,21.31,25.12ZM109.83,230.97h25.8c24.45,0,38.36-9.42,38.36-24,0-12.34-8.97-18.17-29.39-18.17h-25.8l-8.97,42.18ZM179.83,151.56c0-10.09-7.18-15.7-26.47-15.7h-23.11l-8.08,37.24h23.11c22.88,0,34.55-8.08,34.55-21.54Z"/>
  <path d="M243.18,208.54c-3.36,15.93.22,25.35,12.56,25.35,14.13,0,25.13-9.42,35.44-23.56l12.34-58.1h17.05l-15.7,73.36c-1.12,5.61-.67,8.53,2.69,8.53,3.59,0,6.95-5.38,12.11-14.81l13.46,5.61c-6.51,11.89-14.13,25.57-28.94,25.57-11.67,0-17.5-7.18-16.38-19.52-8.3,8.52-19.29,19.52-35.67,19.52-19.52,0-31.86-14.36-26.92-37.02l8.08-37.91-5.38-6.95h-12.11l3.59-16.38h35.89l-12.11,56.31Z"/>
  <path d="M375.22,214.6c-2.47,10.99,3.37,18.84,13.68,18.84,9.65,0,19.52-8.08,28.94-29.16l14.13,6.73c-11.67,26.02-26.47,39.48-43.97,39.48-20.86,0-33.65-16.83-29.39-36.79l17.05-80.54-5.61-6.95h-37.02l3.37-16.38h61.02l-22.21,104.76Z"/>
  <path d="M477.21,214.6c-2.47,10.99,3.37,18.84,13.68,18.84,9.65,0,19.52-8.08,28.94-29.16l14.13,6.73c-11.67,26.02-26.47,39.48-43.97,39.48-20.86,0-33.65-16.83-29.39-36.79l17.05-80.54-5.61-6.95h-37.02l3.37-16.38h61.02l-22.21,104.76Z"/>
  <path d="M599.56,250.49c-31.41,0-51.82-19.97-51.82-46.21,0-31.18,26.92-55.19,61.92-55.19,25.8,0,43.52,13.01,43.52,30.73,0,23.78-32.98,33.2-86.82,29.16,2.24,13.46,13.68,24.68,33.2,24.68,14.58,0,27.59-5.16,39.93-14.58l8.75,13.24c-15.93,12.56-32.98,18.17-48.68,18.17ZM567.48,194.18c42.62,3.14,67.08-2.69,67.08-14.36,0-8.97-10.54-14.13-24.9-14.13-21.09,0-37.91,10.54-42.62,28.49h.45Z"/>
  <path d="M687.61,168.61h-21.09l3.59-16.38h28.04l7.4-34.55h17.5l-7.4,34.55h52.72l-3.59,16.38h-45.76l-8.3,6.95-5.83,27.37c-4.71,21.31,2.92,30.51,18.4,30.51s25.35-8.97,35.22-24.68l13.01,8.97c-10.1,18.17-27.37,32.75-50.03,32.75-23.78,0-40.83-16.15-34.55-45.09l6.28-29.84-5.61-6.95Z"/>
  <path d="M848.33,233.44c9.42,0,19.52-8.08,28.94-29.16l14.13,6.73c-11.67,26.02-26.7,39.48-44.19,39.48-20.64,0-33.65-16.83-29.39-36.79l8.3-38.14-5.61-6.95h-36.57l3.59-16.38h60.35l-13.46,62.37c-2.24,10.99,3.59,18.84,13.91,18.84ZM824.55,116.79c0-9.87,7.4-17.27,16.83-17.27s17.05,7.4,17.05,17.27c0,9.2-7.18,16.6-17.05,16.6s-16.83-7.4-16.83-16.6Z"/>
  <path d="M917,247.35h-17.05l15.48-71.79-5.38-6.95h-12.11l3.37-16.38h35.89l-3.81,18.62c8.97-10.32,20.19-21.76,37.24-21.76,18.84,0,29.84,13.24,25.35,35.22l-8.97,41.73c-1.12,5.16-.45,8.08,2.92,8.08,3.59,0,6.73-5.38,12.11-14.81l13.46,5.61c-6.51,11.89-14.36,25.57-28.94,25.57s-19.29-10.99-16.6-24.23l7.63-35.44c2.69-12.79,2.69-25.13-12.56-25.13-13.46,0-25.8,11.67-36.12,25.8l-11.89,55.86Z"/>
</svg>