<?xml version="1.0" encoding="UTF-8"?>
<svg xmlns="http://www.w3.org/2000/svg" xmlns:xlink="http://www.w3.org/1999/xlink" viewBox="0 0 4156 2048">
  <defs>
    <style>
      .cls-1, .cls-2, .cls-3, .cls-4 {
        fill: none;
      }

      .cls-5 {
        mask: url(#mask);
      }

      .cls-6 {
        fill: #ffe790;
      }

      .cls-2 {
        stroke: #919191;
        stroke-miterlimit: 4;
        stroke-width: 7.68px;
      }

      .cls-7, .cls-8 {
        fill: #ff8b6f;
      }

      .cls-9 {
        fill: #595959;
      }

      .cls-8 {
        stroke: #cc6f59;
        stroke-width: 15.37px;
      }

      .cls-10 {
        fill: #919191;
      }

      .cls-11, .cls-3 {
        isolation: isolate;
      }

      .cls-12 {
        mask: url(#mask-2);
      }

      .cls-13 {
        mask: url(#mask-1);
      }

      .cls-14 {
        fill: #7a57c2;
      }

      .cls-15 {
        fill: #fff;
      }

      .cls-16 {
        fill: #50a532;
      }

      .cls-3 {
        mix-blend-mode: multiply;
      }

      .cls-4 {
        stroke: #e8e8e8;
        stroke-linecap: round;
        stroke-linejoin: round;
        stroke-width: 11.53px;
      }

      .cls-17 {
        fill: #e9e9e9;
      }

      .cls-18 {
        fill: #f2f2f2;
      }

      .cls-19 {
        fill: #cc6f59;
      }

      .cls-20 {
        fill: #11c9e9;
      }

      .cls-21 {
        fill: #996df3;
      }

      .cls-22 {
        fill: #64ce3e;
      }
    </style>
    <mask id="mask" x="3499.69" y="1456.27" width="418.82" height="457.25" maskUnits="userSpaceOnUse">
      <g id="path-34-inside-1_349_682" data-name="path-34-inside-1 349 682">
        <path class="cls-15" d="M3903.14,1848.2h-.13c-3.78,27.76-89.15,49.95-193.91,49.95s-190.13-22.19-193.91-49.95h-.13v-376.56h388.08v376.56Z"/>
      </g>
    </mask>
    <mask id="mask-1" x="3499.69" y="1075.87" width="418.82" height="457.25" maskUnits="userSpaceOnUse">
      <g id="path-37-inside-2_349_682" data-name="path-37-inside-2 349 682">
        <path class="cls-15" d="M3903.14,1467.8h-.13c-3.78,27.76-89.15,49.95-193.91,49.95s-190.13-22.19-193.91-49.95h-.13v-376.56h388.08v376.56Z"/>
      </g>
    </mask>
    <mask id="mask-2" x="3499.69" y="922.18" width="418.82" height="384.24" maskUnits="userSpaceOnUse">
      <g id="path-40-inside-3_349_682" data-name="path-40-inside-3 349 682">
        <path class="cls-15" d="M3903.14,1241.1h-.13c-3.78,27.76-89.15,49.95-193.91,49.95s-190.13-22.19-193.91-49.95h-.13v-303.55h388.08v303.55Z"/>
      </g>
    </mask>
  </defs>
  <g class="cls-11">
    <g id="Layer_1" data-name="Layer 1">
      <path class="cls-15" d="M103.01,338.13h3949.99v1594.6c0,63.66-51.6,115.27-115.27,115.27H218.28c-63.66,0-115.27-51.61-115.27-115.27V338.13Z"/>
      <path class="cls-6" d="M103.01,115.27C103.01,51.61,154.61,0,218.28,0h3719.44c63.67,0,115.27,51.61,115.27,115.27v288.38H103.01V115.27Z"/>
      <path class="cls-9" d="M1523.6,252.41v-94.73c0-5.65,4.36-10.01,10.01-10.01h2.1c4.36,0,7.26,2.26,9.2,5.33l34.21,53.58,34.37-53.74c2.1-3.39,5.16-5.16,9.04-5.16h2.1c5.65,0,10.01,4.36,10.01,10.01v94.57c0,5.65-4.36,9.84-10.01,9.84-5.33,0-9.84-4.52-9.84-9.84v-67.78l-27.6,41.47c-2.1,3.23-4.68,5.16-8.39,5.16s-6.13-1.94-8.23-5.16l-27.43-41.15v67.62c0,5.65-4.2,9.68-9.84,9.68s-9.68-4.03-9.68-9.68ZM1687.42,252.25v-34.86l-38.89-53.42c-1.29-1.94-2.26-4.2-2.26-6.94,0-5.33,4.36-9.52,10.01-9.52,4.36,0,7.26,2.26,9.68,5.97l31.47,45.35,31.95-45.51c2.42-3.71,5.16-5.97,9.52-5.97,5.81,0,9.68,4.36,9.68,9.68,0,2.74-1.29,5.16-2.74,7.1l-38.57,52.77v35.34c0,5.65-4.36,9.84-10.01,9.84s-9.84-4.2-9.84-9.84ZM1800.24,252.25v-93.92c0-5.65,4.36-10.01,10.01-10.01h34.54c26.47,0,42.93,15.01,42.93,37.76v.32c0,25.18-20.17,38.57-45.19,38.57h-22.43v27.27c0,5.65-4.2,9.84-9.84,9.84s-10.01-4.2-10.01-9.84ZM1820.09,207.06h23.08c15.01,0,24.37-8.39,24.37-20.17v-.32c0-13.39-9.52-20.17-24.37-20.17h-23.08v40.67ZM1899.97,252.25v-93.92c0-5.65,4.36-10.01,10.01-10.01h40.35c14.2,0,25.34,4.2,32.6,11.3,5.97,6.29,9.36,14.52,9.36,24.37v.32c0,18.24-10.49,28.89-25.66,33.73l21.63,27.27c1.94,2.42,3.23,4.52,3.23,7.58,0,5.65-4.52,9.2-9.52,9.2-4.52,0-7.26-2.1-9.68-5.16l-27.43-35.02h-25.01v30.34c0,5.65-4.2,9.84-9.84,9.84s-10.01-4.2-10.01-9.84ZM1919.82,204.32h29.05c14.2,0,23.24-7.26,23.24-18.88v-.32c0-12.26-8.55-18.72-23.4-18.72h-28.89v37.92ZM2062.43,263.22c-34.7,0-58.9-26.31-58.9-58.1v-.32c0-31.63,24.53-58.42,59.23-58.42s58.9,26.31,58.9,58.1v.32c0,31.63-24.53,58.42-59.23,58.42ZM2062.75,244.82c22.43,0,38.09-17.75,38.09-39.7v-.32c0-21.95-15.82-40.18-38.41-40.18s-38.09,17.91-38.09,39.86v.32c0,21.95,15.82,40.02,38.41,40.02ZM2191.14,263.22c-35.34,0-58.58-25.18-58.58-58.1v-.32c0-31.63,24.05-58.42,58.26-58.42,16.94,0,28.24,3.87,38.57,11.46,1.94,1.45,4.03,4.2,4.03,8.07,0,5.33-4.2,9.84-9.84,9.84-2.58,0-4.36-1.13-6.13-2.26-7.26-5.33-15.17-8.88-27.43-8.88-20.66,0-36.63,18.4-36.63,39.86v.32c0,23.24,15.33,40.35,38.41,40.35,10.81,0,20.33-3.39,27.27-8.55v-21.14h-22.27c-5,0-8.88-3.55-8.88-8.55s3.87-8.71,8.88-8.71h31.47c5.65,0,10.01,4.36,10.01,10.01v30.18c0,5.49-2.26,9.68-6.94,12.59-9.68,6.46-23.24,12.26-40.18,12.26ZM2256.05,252.25v-93.92c0-5.65,4.36-10.01,10.01-10.01h40.35c14.2,0,25.34,4.2,32.6,11.3,5.97,6.29,9.36,14.52,9.36,24.37v.32c0,18.24-10.49,28.89-25.66,33.73l21.62,27.27c1.94,2.42,3.23,4.52,3.23,7.58,0,5.65-4.52,9.2-9.52,9.2-4.52,0-7.26-2.1-9.68-5.16l-27.43-35.02h-25.01v30.34c0,5.65-4.2,9.84-9.84,9.84s-10.01-4.2-10.01-9.84ZM2275.9,204.32h29.05c14.2,0,23.24-7.26,23.24-18.88v-.32c0-12.26-8.55-18.72-23.4-18.72h-28.89v37.92ZM2441.1,261.28h-66.49c-5.65,0-10.01-4.36-10.01-10.01v-92.96c0-5.65,4.36-10.01,10.01-10.01h65.68c5,0,8.88,3.87,8.88,8.88s-3.87,8.88-8.88,8.88h-55.84v29.37h48.58c5,0,8.88,4.03,8.88,9.04s-3.87,8.71-8.88,8.71h-48.58v30.34h56.64c5,0,8.88,3.87,8.88,8.88s-3.87,8.88-8.88,8.88ZM2504.18,262.9c-15.65,0-29.69-4.68-42.44-14.2-2.42-1.78-3.87-4.36-3.87-7.58,0-5.16,4.2-9.2,9.36-9.2,2.74,0,4.52.65,5.81,1.78,9.52,7.58,19.37,11.62,31.63,11.62s20.01-5.81,20.01-14.2v-.32c0-7.91-4.52-12.59-25.5-17.27-24.05-5.65-37.6-13.07-37.6-33.73v-.32c0-19.37,16.14-32.76,38.57-32.76,14.2,0,25.5,3.55,35.83,10.49,2.42,1.29,4.36,4.03,4.36,7.91,0,5.16-4.2,9.2-9.36,9.2-1.78,0-3.55-.48-5.16-1.45-8.88-5.65-16.95-8.55-25.98-8.55-11.62,0-18.4,5.81-18.4,13.39v.32c0,8.71,5.16,12.59,26.95,17.75,23.72,6.13,36.15,14.2,36.15,33.08v.32c0,21.3-16.62,33.73-40.35,33.73ZM2597.77,262.9c-15.65,0-29.69-4.68-42.44-14.2-2.42-1.78-3.87-4.36-3.87-7.58,0-5.16,4.2-9.2,9.36-9.2,2.74,0,4.52.65,5.81,1.78,9.52,7.58,19.37,11.62,31.63,11.62s20.01-5.81,20.01-14.2v-.32c0-7.91-4.52-12.59-25.5-17.27-24.05-5.65-37.6-13.07-37.6-33.73v-.32c0-19.37,16.14-32.76,38.57-32.76,14.2,0,25.5,3.55,35.83,10.49,2.42,1.29,4.36,4.03,4.36,7.91,0,5.16-4.2,9.2-9.36,9.2-1.78,0-3.55-.48-5.16-1.45-8.88-5.65-16.94-8.55-25.98-8.55-11.62,0-18.4,5.81-18.4,13.39v.32c0,8.71,5.16,12.59,26.95,17.75,23.72,6.13,36.15,14.2,36.15,33.08v.32c0,21.3-16.62,33.73-40.35,33.73Z"/>
      <path class="cls-18" d="M329.71,526.41h1271.83c42.44,0,76.85,34.41,76.85,76.85h0c0,42.44-34.41,76.85-76.85,76.85H329.71c-42.44,0-76.85-34.41-76.85-76.85h0c0-42.44,34.41-76.85,76.85-76.85Z"/>
      <circle class="cls-2" cx="1600.77" cy="602.49" r="34.58"/>
      <rect class="cls-10" x="1561.61" y="639.21" width="26.9" height="7.68" transform="translate(188.69 1629.12) rotate(-57.63)"/>
      <path class="cls-4" d="M1755.24,1056.66v-253.6"/>
      <path class="cls-9" d="M1966.32,826.68c-9.68,0-16.88-7.54-16.88-17.07v-.1c0-9.43,7.06-17.16,17.11-17.16,5.12,0,8.49,1.51,11.38,3.74.61.52,1.14,1.23,1.14,2.32,0,1.66-1.23,2.84-2.89,2.84-.81,0-1.38-.23-1.75-.57-2.28-1.85-4.7-2.99-7.92-2.99-6.31,0-10.95,5.26-10.95,11.71v.09c0,6.5,4.6,11.76,10.95,11.76,3.55,0,5.88-1.14,8.3-3.17.43-.38,1.05-.66,1.76-.66,1.47,0,2.75,1.23,2.75,2.7,0,.9-.43,1.56-.95,2.09-3.18,2.8-6.69,4.46-12.04,4.46ZM1990.09,826.64c-4.7,0-8.86-2.66-8.86-7.73v-.09c0-5.45,4.22-8.06,10.33-8.06,2.85,0,4.79.43,6.74,1.05v-.62c0-3.6-2.18-5.45-6.21-5.45-2.23,0-3.98.38-5.54,1-.33.1-.66.14-.9.14-1.33,0-2.42-1.04-2.42-2.37,0-1.09.66-1.94,1.56-2.27,2.42-.9,4.79-1.47,8.06-1.47,3.74,0,6.49.95,8.3,2.8,1.85,1.85,2.7,4.45,2.7,7.73v12.33c0,1.56-1.23,2.75-2.8,2.75-1.66,0-2.8-1.14-2.8-2.42v-.95c-1.71,2.04-4.32,3.65-8.15,3.65ZM1991.7,822.47c3.79,0,6.68-2.13,6.68-5.36v-1.71c-1.47-.57-3.41-1-5.69-1-3.75,0-5.88,1.52-5.88,4.17v.1c0,2.42,2.09,3.79,4.88,3.79ZM2008.67,823.51v-29.39c0-1.56,1.18-2.84,2.84-2.84s2.89,1.28,2.89,2.84v29.39c0,1.66-1.23,2.85-2.89,2.85-1.56,0-2.84-1.19-2.84-2.85ZM2031.43,826.68c-7.63,0-13.28-5.83-13.28-12.94v-.1c0-7.16,5.69-13.09,13.37-13.09s13.32,5.83,13.32,12.99v.1c0,7.06-5.69,13.04-13.42,13.04ZM2031.53,821.66c4.69,0,7.58-3.6,7.58-7.92v-.1c0-4.41-3.18-8.06-7.68-8.06s-7.54,3.6-7.54,7.97v.1c0,4.36,3.22,8.01,7.63,8.01ZM2048.33,823.51v-19.82c0-1.66,1.18-2.89,2.84-2.89s2.89,1.23,2.89,2.89v2.56c1.33-3.18,3.79-5.5,6.31-5.5,1.85,0,2.84,1.18,2.84,2.84,0,1.52-1,2.51-2.27,2.75-4.13.71-6.87,3.84-6.87,9.76v7.4c0,1.57-1.23,2.85-2.89,2.85-1.56,0-2.84-1.19-2.84-2.85ZM2065.44,794.64v-.28c0-1.71,1.42-2.8,3.27-2.8s3.27,1.09,3.27,2.8v.28c0,1.71-1.42,2.84-3.27,2.84s-3.27-1.14-3.27-2.84ZM2065.87,823.51v-19.82c0-1.66,1.19-2.89,2.85-2.89s2.89,1.23,2.89,2.89v19.82c0,1.66-1.23,2.85-2.89,2.85-1.57,0-2.85-1.19-2.85-2.85ZM2081.05,811.85h12.85c-.38-3.65-2.56-6.59-6.35-6.59-3.56,0-5.97,2.66-6.5,6.59ZM2097.22,823.37c-2.27,2.04-5.07,3.32-9.01,3.32-7.21,0-12.85-5.26-12.85-12.99v-.1c0-7.2,5.07-13.04,12.23-13.04,7.97,0,11.9,6.54,11.9,12.33,0,1.66-1.23,2.75-2.7,2.75h-15.69c.61,4.13,3.46,6.36,7.2,6.36,2.42,0,4.27-.86,5.93-2.18.43-.33.76-.52,1.47-.52,1.28,0,2.27,1,2.27,2.32,0,.71-.33,1.33-.76,1.75ZM2111.56,826.59c-3.22,0-6.64-.95-9.53-2.99-.62-.33-1.09-1.04-1.09-1.99,0-1.28,1-2.32,2.32-2.32.43,0,.86.1,1.23.33,2.42,1.66,4.93,2.42,7.21,2.42,2.46,0,3.89-1.05,3.89-2.7v-.1c0-1.9-2.66-2.61-5.59-3.51-3.65-1-7.82-2.56-7.82-7.35v-.09c0-4.74,3.93-7.63,8.91-7.63,2.66,0,5.45.76,7.87,2.04.8.43,1.37,1.18,1.37,2.18,0,1.33-1.04,2.32-2.37,2.32-.52,0-.76-.1-1.14-.28-2.04-1.09-4.12-1.71-5.88-1.71-2.23,0-3.51,1-3.51,2.47v.1c0,1.8,2.71,2.66,5.64,3.55,3.6,1.14,7.77,2.8,7.77,7.3v.1c0,5.26-4.08,7.87-9.29,7.87ZM2149,832.52c-.62,0-1.19-.19-1.38-.33-7.92-4.74-12.04-11-12.04-19.67s4.12-14.94,12.04-19.68c.19-.14.76-.33,1.38-.33,1.14,0,2.18,1.14,2.18,2.32,0,.81-.33,1.47-.95,1.94-6.07,4.22-8.91,8.96-8.91,15.74s2.84,11.52,8.91,15.74c.61.48.95,1.14.95,1.94,0,1.19-1.05,2.32-2.18,2.32ZM2154.76,823.51v-29.39c0-1.56,1.18-2.84,2.84-2.84s2.89,1.28,2.89,2.84v18.49l10.76-10.57c.76-.76,1.47-1.23,2.47-1.23,1.51,0,2.51,1.23,2.51,2.61,0,.95-.48,1.66-1.28,2.42l-6.64,6.12,7.58,9.91c.52.71.76,1.19.76,1.9,0,1.56-1.23,2.61-2.7,2.61-1.14,0-1.8-.38-2.51-1.28l-7.16-9.53-3.79,3.6v4.36c0,1.66-1.23,2.85-2.89,2.85-1.56,0-2.84-1.19-2.84-2.85ZM2190.77,826.68c-7.45,0-12.95-5.83-12.95-12.94v-.1c0-7.11,5.5-13.09,13.04-13.09,3.98,0,6.64,1.28,8.77,3.13.38.33.9,1.04.9,1.99,0,1.47-1.18,2.61-2.66,2.61-.71,0-1.33-.24-1.71-.57-1.47-1.28-3.08-2.13-5.36-2.13-4.17,0-7.25,3.6-7.25,7.97v.1c0,4.46,3.08,8.01,7.49,8.01,2.27,0,4.03-.9,5.59-2.23.33-.33.85-.61,1.56-.61,1.38,0,2.46,1.14,2.46,2.51,0,.76-.28,1.38-.8,1.8-2.23,2.13-4.93,3.55-9.1,3.55ZM2211.12,826.64c-4.7,0-8.87-2.66-8.87-7.73v-.09c0-5.45,4.22-8.06,10.34-8.06,2.84,0,4.79.43,6.73,1.05v-.62c0-3.6-2.18-5.45-6.21-5.45-2.23,0-3.98.38-5.55,1-.33.1-.66.14-.9.14-1.33,0-2.42-1.04-2.42-2.37,0-1.09.66-1.94,1.57-2.27,2.42-.9,4.79-1.47,8.06-1.47,3.75,0,6.5.95,8.3,2.8,1.85,1.85,2.7,4.45,2.7,7.73v12.33c0,1.56-1.23,2.75-2.8,2.75-1.66,0-2.8-1.14-2.8-2.42v-.95c-1.71,2.04-4.32,3.65-8.15,3.65ZM2212.73,822.47c3.79,0,6.69-2.13,6.69-5.36v-1.71c-1.47-.57-3.41-1-5.69-1-3.75,0-5.88,1.52-5.88,4.17v.1c0,2.42,2.09,3.79,4.88,3.79ZM2229.7,823.51v-29.39c0-1.56,1.19-2.84,2.85-2.84s2.89,1.28,2.89,2.84v29.39c0,1.66-1.23,2.85-2.89,2.85-1.56,0-2.85-1.19-2.85-2.85ZM2241.42,832.52c-1.14,0-2.18-1.14-2.18-2.32,0-.9.43-1.52,1-1.94,6.02-4.22,8.91-8.96,8.91-15.74s-2.89-11.52-8.91-15.74c-.57-.43-1-1.04-1-1.94,0-1.18,1.05-2.32,2.18-2.32.71,0,1.18.19,1.38.33,7.92,4.74,12.09,11,12.09,19.68s-4.17,14.93-12.09,19.67c-.19.14-.66.33-1.38.33Z"/>
      <path class="cls-17" d="M1939.67,936.92c0-28.88,23.42-52.3,52.3-52.3h1269.26c28.88,0,52.3,23.42,52.3,52.3s-23.42,52.31-52.3,52.31h-1269.26c-28.88,0-52.3-23.42-52.3-52.31Z"/>
      <path class="cls-20" d="M1939.67,936.92c0-28.88,23.42-52.3,52.3-52.3h523.05c28.88,0,52.3,23.42,52.3,52.3s-23.42,52.31-52.3,52.31h-523.05c-28.88,0-52.3-23.42-52.3-52.31Z"/>
      <path class="cls-3" d="M1939.67,936.92c0-28.88,23.42-52.3,52.3-52.3h523.05c28.88,0,52.3,23.42,52.3,52.3s-23.42,52.31-52.3,52.31h-523.05c-28.88,0-52.3-23.42-52.3-52.31Z"/>
      <path class="cls-9" d="M1966.32,1130.23c-9.68,0-16.88-7.54-16.88-17.07v-.1c0-9.43,7.06-17.16,17.11-17.16,5.12,0,8.49,1.51,11.38,3.74.61.52,1.14,1.23,1.14,2.32,0,1.66-1.23,2.84-2.89,2.84-.81,0-1.38-.23-1.75-.57-2.28-1.85-4.7-2.99-7.92-2.99-6.31,0-10.95,5.26-10.95,11.71v.09c0,6.5,4.6,11.76,10.95,11.76,3.55,0,5.88-1.14,8.3-3.17.43-.38,1.05-.66,1.76-.66,1.47,0,2.75,1.23,2.75,2.7,0,.9-.43,1.56-.95,2.09-3.18,2.8-6.69,4.46-12.04,4.46ZM1990.09,1130.19c-4.7,0-8.86-2.66-8.86-7.73v-.09c0-5.45,4.22-8.06,10.33-8.06,2.85,0,4.79.43,6.74,1.05v-.62c0-3.6-2.18-5.45-6.21-5.45-2.23,0-3.98.38-5.54,1-.33.1-.66.14-.9.14-1.33,0-2.42-1.04-2.42-2.37,0-1.09.66-1.94,1.56-2.27,2.42-.9,4.79-1.47,8.06-1.47,3.74,0,6.49.95,8.3,2.8,1.85,1.85,2.7,4.45,2.7,7.73v12.33c0,1.56-1.23,2.75-2.8,2.75-1.66,0-2.8-1.14-2.8-2.42v-.95c-1.71,2.04-4.32,3.65-8.15,3.65ZM1991.7,1126.02c3.79,0,6.68-2.13,6.68-5.36v-1.71c-1.47-.57-3.41-1-5.69-1-3.75,0-5.88,1.52-5.88,4.17v.1c0,2.42,2.09,3.79,4.88,3.79ZM2008.34,1127.06v-19.82c0-1.66,1.19-2.89,2.85-2.89s2.89,1.23,2.89,2.89v2.56c1.33-3.18,3.8-5.5,6.31-5.5,1.85,0,2.84,1.18,2.84,2.84,0,1.52-1,2.51-2.27,2.75-4.13.71-6.88,3.84-6.88,9.76v7.4c0,1.57-1.23,2.85-2.89,2.85-1.56,0-2.85-1.19-2.85-2.85ZM2025.56,1127.06v-29.39c0-1.66,1.18-2.84,2.84-2.84s2.89,1.18,2.89,2.84v11.14c1.85-2.61,4.41-4.7,8.53-4.7,5.88,0,11.62,4.65,11.62,12.99v.1c0,8.35-5.69,12.99-11.62,12.99-4.17,0-6.78-2.09-8.53-4.41v1.28c0,1.57-1.23,2.85-2.89,2.85-1.56,0-2.84-1.28-2.84-2.85ZM2038.45,1125.21c3.93,0,7.16-3.08,7.16-8.01v-.1c0-4.83-3.22-8.01-7.16-8.01s-7.3,3.22-7.3,8.01v.1c0,4.79,3.37,8.01,7.3,8.01ZM2066.89,1130.23c-7.63,0-13.28-5.83-13.28-12.94v-.1c0-7.16,5.69-13.09,13.37-13.09s13.32,5.83,13.32,12.99v.1c0,7.06-5.69,13.04-13.42,13.04ZM2066.99,1125.21c4.69,0,7.58-3.6,7.58-7.92v-.1c0-4.41-3.18-8.06-7.68-8.06s-7.54,3.6-7.54,7.97v.1c0,4.36,3.22,8.01,7.63,8.01ZM2083.78,1127.06v-29.39c0-1.56,1.18-2.84,2.84-2.84s2.89,1.28,2.89,2.84v10.81c1.66-2.32,3.88-4.36,7.82-4.36,5.69,0,8.91,3.75,8.91,9.58v13.37c0,1.66-1.18,2.85-2.84,2.85s-2.89-1.19-2.89-2.85v-11.62c0-3.93-1.94-6.11-5.36-6.11s-5.64,2.27-5.64,6.21v11.52c0,1.66-1.23,2.85-2.89,2.85-1.56,0-2.84-1.19-2.84-2.85ZM2114.99,1137.39c-1.66,0-2.8-.19-3.98-.71-.9-.33-1.8-1-1.8-2.37,0-1.47,1.04-2.37,2.32-2.37.52,0,.71.05,1.04.19.71.19,1.19.33,1.99.33,1.71,0,2.61-.71,3.56-2.66l.19-.52-9.29-20.76c-.24-.52-.33-.95-.33-1.38,0-1.66,1.19-2.8,2.85-2.8,1.47,0,2.27.85,2.8,2.18l6.73,16.64,6.26-16.64c.52-1.19,1.28-2.18,2.75-2.18s2.75,1.18,2.75,2.7c0,.52-.1,1.05-.24,1.38l-9.15,21.95c-2.14,5.12-4.41,7.02-8.44,7.02ZM2159.72,1097.66v29.39c0,1.66-1.28,2.85-2.84,2.85-1.66,0-2.89-1.19-2.89-2.85v-1.56c-1.85,2.61-4.5,4.7-8.53,4.7-5.88,0-11.62-4.65-11.62-12.99v-.1c0-8.35,5.64-12.99,11.62-12.99,4.08,0,6.78,2.04,8.53,4.41v-10.86c0-1.66,1.28-2.84,2.84-2.84,1.66,0,2.89,1.18,2.89,2.84ZM2146.82,1109.09c-3.93,0-7.21,3.04-7.21,8.01v.1c0,4.83,3.27,8.01,7.21,8.01s7.25-3.22,7.25-8.01v-.1c0-4.83-3.42-8.01-7.25-8.01ZM2164.55,1127.06v-19.82c0-1.66,1.19-2.89,2.85-2.89s2.89,1.23,2.89,2.89v2.56c1.33-3.18,3.79-5.5,6.31-5.5,1.85,0,2.85,1.18,2.85,2.84,0,1.52-1,2.51-2.28,2.75-4.12.71-6.87,3.84-6.87,9.76v7.4c0,1.57-1.23,2.85-2.89,2.85-1.57,0-2.85-1.19-2.85-2.85ZM2187.77,1130.19c-4.7,0-8.87-2.66-8.87-7.73v-.09c0-5.45,4.22-8.06,10.34-8.06,2.85,0,4.79.43,6.73,1.05v-.62c0-3.6-2.18-5.45-6.21-5.45-2.23,0-3.98.38-5.55,1-.33.1-.66.14-.9.14-1.33,0-2.42-1.04-2.42-2.37,0-1.09.66-1.94,1.57-2.27,2.42-.9,4.79-1.47,8.06-1.47,3.75,0,6.5.95,8.3,2.8,1.85,1.85,2.7,4.45,2.7,7.73v12.33c0,1.56-1.23,2.75-2.8,2.75-1.66,0-2.8-1.14-2.8-2.42v-.95c-1.71,2.04-4.32,3.65-8.15,3.65ZM2189.38,1126.02c3.79,0,6.69-2.13,6.69-5.36v-1.71c-1.47-.57-3.41-1-5.69-1-3.74,0-5.88,1.52-5.88,4.17v.1c0,2.42,2.09,3.79,4.88,3.79ZM2214.17,1130.09c-4.22,0-7.21-1.85-7.21-7.35v-13.18h-.95c-1.38,0-2.47-1.09-2.47-2.46s1.09-2.47,2.47-2.47h.95v-4.27c0-1.56,1.23-2.84,2.89-2.84,1.56,0,2.84,1.28,2.84,2.84v4.27h4.51c1.37,0,2.51,1.09,2.51,2.47s-1.14,2.46-2.51,2.46h-4.51v12.28c0,2.23,1.14,3.13,3.08,3.13.71,0,1.23-.14,1.43-.14,1.28,0,2.42,1.05,2.42,2.37,0,1.09-.71,1.9-1.52,2.23-1.28.43-2.42.66-3.93.66ZM2226.52,1115.4h12.85c-.38-3.65-2.56-6.59-6.36-6.59-3.55,0-5.97,2.66-6.49,6.59ZM2242.69,1126.91c-2.28,2.04-5.08,3.32-9.01,3.32-7.2,0-12.85-5.26-12.85-12.99v-.1c0-7.2,5.08-13.04,12.23-13.04,7.97,0,11.9,6.54,11.9,12.33,0,1.66-1.23,2.75-2.7,2.75h-15.7c.62,4.13,3.46,6.36,7.21,6.36,2.42,0,4.27-.86,5.92-2.18.43-.33.76-.52,1.47-.52,1.28,0,2.27,1,2.27,2.32,0,.71-.33,1.33-.76,1.75ZM2257.03,1130.14c-3.22,0-6.64-.95-9.53-2.99-.61-.33-1.09-1.04-1.09-1.99,0-1.28,1-2.32,2.32-2.32.43,0,.85.1,1.23.33,2.42,1.66,4.93,2.42,7.2,2.42,2.47,0,3.89-1.05,3.89-2.7v-.1c0-1.9-2.66-2.61-5.59-3.51-3.65-1-7.82-2.56-7.82-7.35v-.09c0-4.74,3.93-7.63,8.91-7.63,2.66,0,5.45.76,7.87,2.04.81.43,1.38,1.18,1.38,2.18,0,1.33-1.04,2.32-2.37,2.32-.52,0-.76-.1-1.14-.28-2.04-1.09-4.12-1.71-5.88-1.71-2.23,0-3.51,1-3.51,2.47v.1c0,1.8,2.7,2.66,5.64,3.55,3.6,1.14,7.78,2.8,7.78,7.3v.1c0,5.26-4.08,7.87-9.29,7.87ZM2294.48,1136.07c-.62,0-1.19-.19-1.38-.33-7.92-4.74-12.04-11-12.04-19.67s4.12-14.94,12.04-19.68c.19-.14.76-.33,1.38-.33,1.14,0,2.18,1.14,2.18,2.32,0,.81-.33,1.47-.95,1.94-6.07,4.22-8.91,8.96-8.91,15.74s2.84,11.52,8.91,15.74c.62.48.95,1.14.95,1.94,0,1.19-1.04,2.32-2.18,2.32ZM2310.45,1137.35c-3.55,0-6.64-.76-9.67-2.23-1.09-.43-1.61-1.18-1.61-2.27,0-1.28,1.09-2.37,2.42-2.37.38,0,.71.09,1.04.23,2.28,1.28,4.79,1.99,7.68,1.99,5.12,0,7.92-2.61,7.92-7.68v-1.94c-2.09,2.7-4.7,4.6-8.82,4.6-5.88,0-11.38-4.36-11.38-11.71v-.1c0-7.4,5.5-11.76,11.38-11.76,4.22,0,6.83,1.94,8.77,4.27v-1.19c0-1.56,1.28-2.84,2.84-2.84,1.66,0,2.89,1.23,2.89,2.89v17.3c0,4.17-1.05,7.3-3.18,9.44-2.27,2.27-5.74,3.37-10.29,3.37ZM2310.93,1122.79c3.98,0,7.35-2.8,7.35-6.87v-.1c0-4.08-3.37-6.87-7.35-6.87s-7.11,2.75-7.11,6.87v.1c0,4.08,3.18,6.87,7.11,6.87ZM2329.6,1136.07c-1.14,0-2.18-1.14-2.18-2.32,0-.9.43-1.52,1-1.94,6.02-4.22,8.91-8.96,8.91-15.74s-2.89-11.52-8.91-15.74c-.57-.43-1-1.04-1-1.94,0-1.18,1.05-2.32,2.18-2.32.71,0,1.18.19,1.38.33,7.92,4.74,12.09,11,12.09,19.68s-4.17,14.93-12.09,19.67c-.19.14-.66.33-1.38.33Z"/>
      <path class="cls-17" d="M1939.67,1240.47c0-28.88,23.42-52.3,52.3-52.3h1269.26c28.88,0,52.3,23.42,52.3,52.3s-23.42,52.31-52.3,52.31h-1269.26c-28.88,0-52.3-23.42-52.3-52.31Z"/>
      <path class="cls-7" d="M1939.67,1240.47c0-28.88,23.42-52.3,52.3-52.3h327.78c28.88,0,52.3,23.42,52.3,52.3s-23.42,52.31-52.3,52.31h-327.78c-28.88,0-52.3-23.42-52.3-52.31Z"/>
      <path class="cls-3" d="M1939.67,1240.47c0-28.88,23.42-52.3,52.3-52.3h327.78c28.88,0,52.3,23.42,52.3,52.3s-23.42,52.31-52.3,52.31h-327.78c-28.88,0-52.3-23.42-52.3-52.31Z"/>
      <path class="cls-9" d="M1950.91,1430.56v-27.59c0-1.66,1.28-2.94,2.94-2.94h10.15c7.78,0,12.61,4.41,12.61,11.09v.1c0,7.4-5.92,11.33-13.28,11.33h-6.59v8.01c0,1.66-1.23,2.89-2.89,2.89s-2.94-1.23-2.94-2.89ZM1956.75,1417.29h6.78c4.41,0,7.16-2.47,7.16-5.92v-.1c0-3.93-2.8-5.92-7.16-5.92h-6.78v11.95ZM1979.55,1430.61v-19.82c0-1.66,1.18-2.89,2.84-2.89s2.89,1.23,2.89,2.89v2.56c1.33-3.18,3.79-5.5,6.31-5.5,1.85,0,2.84,1.18,2.84,2.84,0,1.52-1,2.51-2.27,2.75-4.12.71-6.87,3.84-6.87,9.76v7.4c0,1.57-1.23,2.85-2.89,2.85-1.56,0-2.84-1.19-2.84-2.85ZM2007.83,1433.78c-7.63,0-13.28-5.83-13.28-12.94v-.1c0-7.16,5.69-13.09,13.37-13.09s13.32,5.83,13.32,12.99v.1c0,7.06-5.69,13.04-13.42,13.04ZM2007.93,1428.76c4.69,0,7.58-3.6,7.58-7.92v-.1c0-4.41-3.18-8.06-7.68-8.06s-7.54,3.6-7.54,7.97v.1c0,4.36,3.22,8.01,7.63,8.01ZM2033.11,1433.64c-4.22,0-7.21-1.85-7.21-7.35v-13.18h-.95c-1.37,0-2.46-1.09-2.46-2.46s1.09-2.47,2.46-2.47h.95v-4.27c0-1.56,1.23-2.84,2.89-2.84,1.56,0,2.84,1.28,2.84,2.84v4.27h4.5c1.38,0,2.51,1.09,2.51,2.47s-1.14,2.46-2.51,2.46h-4.5v12.28c0,2.23,1.14,3.13,3.08,3.13.71,0,1.23-.14,1.42-.14,1.28,0,2.42,1.05,2.42,2.37,0,1.09-.71,1.9-1.52,2.23-1.28.43-2.42.66-3.93.66ZM2045.46,1418.95h12.85c-.38-3.65-2.56-6.59-6.36-6.59-3.55,0-5.97,2.66-6.49,6.59ZM2061.63,1430.46c-2.27,2.04-5.07,3.32-9.01,3.32-7.2,0-12.85-5.26-12.85-12.99v-.1c0-7.2,5.07-13.04,12.23-13.04,7.97,0,11.9,6.54,11.9,12.33,0,1.66-1.23,2.75-2.71,2.75h-15.69c.62,4.13,3.46,6.36,7.21,6.36,2.42,0,4.27-.86,5.92-2.18.43-.33.76-.52,1.47-.52,1.28,0,2.27,1,2.27,2.32,0,.71-.33,1.33-.76,1.75ZM2067.3,1401.73v-.28c0-1.71,1.42-2.8,3.27-2.8s3.27,1.09,3.27,2.8v.28c0,1.71-1.42,2.84-3.27,2.84s-3.27-1.14-3.27-2.84ZM2067.72,1430.61v-19.82c0-1.66,1.19-2.89,2.85-2.89s2.89,1.23,2.89,2.89v19.82c0,1.66-1.23,2.85-2.89,2.85-1.57,0-2.85-1.19-2.85-2.85ZM2078.59,1430.61v-19.82c0-1.66,1.18-2.89,2.84-2.89s2.89,1.23,2.89,2.89v1.23c1.66-2.32,3.88-4.36,7.82-4.36,5.69,0,8.91,3.75,8.91,9.58v13.37c0,1.66-1.18,2.85-2.84,2.85s-2.89-1.19-2.89-2.85v-11.62c0-3.93-1.94-6.11-5.36-6.11s-5.64,2.27-5.64,6.21v11.52c0,1.66-1.23,2.85-2.89,2.85-1.56,0-2.84-1.19-2.84-2.85ZM2130.26,1439.62c-.61,0-1.18-.19-1.38-.33-7.92-4.74-12.04-11-12.04-19.67s4.13-14.94,12.04-19.68c.19-.14.76-.33,1.38-.33,1.14,0,2.18,1.14,2.18,2.32,0,.81-.33,1.47-.95,1.94-6.07,4.22-8.91,8.96-8.91,15.74s2.85,11.52,8.91,15.74c.61.48.95,1.14.95,1.94,0,1.19-1.05,2.32-2.18,2.32ZM2146.23,1440.9c-3.56,0-6.64-.76-9.67-2.23-1.09-.43-1.61-1.18-1.61-2.27,0-1.28,1.09-2.37,2.42-2.37.38,0,.71.09,1.05.23,2.27,1.28,4.79,1.99,7.68,1.99,5.12,0,7.92-2.61,7.92-7.68v-1.94c-2.08,2.7-4.69,4.6-8.82,4.6-5.88,0-11.38-4.36-11.38-11.71v-.1c0-7.4,5.5-11.76,11.38-11.76,4.22,0,6.83,1.94,8.77,4.27v-1.19c0-1.56,1.28-2.84,2.84-2.84,1.66,0,2.89,1.23,2.89,2.89v17.3c0,4.17-1.04,7.3-3.18,9.44-2.27,2.27-5.74,3.37-10.29,3.37ZM2146.71,1426.34c3.98,0,7.35-2.8,7.35-6.87v-.1c0-4.08-3.37-6.87-7.35-6.87s-7.11,2.75-7.11,6.87v.1c0,4.08,3.18,6.87,7.11,6.87ZM2165.38,1439.62c-1.14,0-2.18-1.14-2.18-2.32,0-.9.43-1.52,1-1.94,6.02-4.22,8.91-8.96,8.91-15.74s-2.89-11.52-8.91-15.74c-.57-.43-1-1.04-1-1.94,0-1.18,1.04-2.32,2.18-2.32.71,0,1.18.19,1.37.33,7.92,4.74,12.09,11,12.09,19.68s-4.17,14.93-12.09,19.67c-.19.14-.66.33-1.37.33Z"/>
      <path class="cls-17" d="M1939.67,1544.02c0-28.88,23.42-52.3,52.3-52.3h1269.26c28.88,0,52.3,23.42,52.3,52.3s-23.42,52.31-52.3,52.31h-1269.26c-28.88,0-52.3-23.42-52.3-52.31Z"/>
      <path class="cls-21" d="M1939.67,1542.72c0-28.65,23.22-51.87,51.87-51.87h138.33c28.65,0,51.87,23.22,51.87,51.87s-23.22,51.87-51.87,51.87h-138.33c-28.65,0-51.87-23.22-51.87-51.87Z"/>
      <path class="cls-3" d="M1939.67,1542.72c0-28.65,23.22-51.87,51.87-51.87h138.33c28.65,0,51.87,23.22,51.87,51.87s-23.22,51.87-51.87,51.87h-138.33c-28.65,0-51.87-23.22-51.87-51.87Z"/>
      <path class="cls-9" d="M1950.91,1734.11v-27.59c0-1.66,1.28-2.94,2.94-2.94h19.35c1.47,0,2.66,1.18,2.66,2.66s-1.19,2.66-2.66,2.66h-16.45v9.05h14.32c1.47,0,2.66,1.19,2.66,2.66s-1.19,2.66-2.66,2.66h-14.32v10.86c0,1.66-1.23,2.89-2.89,2.89s-2.94-1.23-2.94-2.89ZM1985,1737.29c-4.7,0-8.87-2.66-8.87-7.73v-.09c0-5.45,4.22-8.06,10.34-8.06,2.84,0,4.79.43,6.73,1.05v-.62c0-3.6-2.18-5.45-6.21-5.45-2.23,0-3.98.38-5.55,1-.33.1-.66.14-.9.14-1.33,0-2.42-1.04-2.42-2.37,0-1.09.66-1.94,1.57-2.27,2.42-.9,4.79-1.47,8.06-1.47,3.75,0,6.5.95,8.3,2.8,1.85,1.85,2.7,4.45,2.7,7.73v12.33c0,1.56-1.23,2.75-2.8,2.75-1.66,0-2.8-1.14-2.8-2.42v-.95c-1.71,2.04-4.31,3.65-8.15,3.65ZM1986.61,1733.12c3.79,0,6.69-2.13,6.69-5.36v-1.71c-1.47-.57-3.42-1-5.69-1-3.75,0-5.88,1.52-5.88,4.17v.1c0,2.42,2.09,3.79,4.88,3.79ZM2011.41,1737.19c-4.22,0-7.21-1.85-7.21-7.35v-13.18h-.95c-1.37,0-2.46-1.09-2.46-2.46s1.09-2.47,2.46-2.47h.95v-4.27c0-1.56,1.23-2.84,2.89-2.84,1.56,0,2.84,1.28,2.84,2.84v4.27h4.5c1.38,0,2.51,1.09,2.51,2.47s-1.14,2.46-2.51,2.46h-4.5v12.28c0,2.23,1.14,3.13,3.08,3.13.71,0,1.23-.14,1.42-.14,1.28,0,2.42,1.05,2.42,2.37,0,1.09-.71,1.9-1.52,2.23-1.28.43-2.42.66-3.93.66ZM2044.78,1743.17c-.62,0-1.19-.19-1.38-.33-7.92-4.74-12.04-11-12.04-19.67s4.12-14.94,12.04-19.68c.19-.14.76-.33,1.38-.33,1.14,0,2.18,1.14,2.18,2.32,0,.81-.33,1.47-.95,1.94-6.07,4.22-8.91,8.96-8.91,15.74s2.84,11.52,8.91,15.74c.62.48.95,1.14.95,1.94,0,1.19-1.04,2.32-2.18,2.32ZM2060.75,1744.45c-3.55,0-6.64-.76-9.67-2.23-1.09-.43-1.61-1.18-1.61-2.27,0-1.28,1.09-2.37,2.42-2.37.38,0,.71.09,1.04.23,2.28,1.28,4.79,1.99,7.68,1.99,5.12,0,7.92-2.61,7.92-7.68v-1.94c-2.09,2.7-4.7,4.6-8.82,4.6-5.88,0-11.38-4.36-11.38-11.71v-.1c0-7.4,5.5-11.76,11.38-11.76,4.22,0,6.83,1.94,8.77,4.27v-1.19c0-1.56,1.28-2.84,2.84-2.84,1.66,0,2.89,1.23,2.89,2.89v17.3c0,4.17-1.05,7.3-3.18,9.44-2.27,2.27-5.74,3.37-10.29,3.37ZM2061.23,1729.89c3.98,0,7.35-2.8,7.35-6.87v-.1c0-4.08-3.37-6.87-7.35-6.87s-7.11,2.75-7.11,6.87v.1c0,4.08,3.18,6.87,7.11,6.87ZM2079.9,1743.17c-1.14,0-2.18-1.14-2.18-2.32,0-.9.43-1.52,1-1.94,6.02-4.22,8.91-8.96,8.91-15.74s-2.89-11.52-8.91-15.74c-.57-.43-1-1.04-1-1.94,0-1.18,1.04-2.32,2.18-2.32.71,0,1.19.19,1.38.33,7.92,4.74,12.09,11,12.09,19.68s-4.17,14.93-12.09,19.67c-.19.14-.66.33-1.38.33Z"/>
      <path class="cls-17" d="M1939.67,1847.57c0-28.88,23.42-52.3,52.3-52.3h1269.26c28.88,0,52.3,23.42,52.3,52.3s-23.42,52.31-52.3,52.31h-1269.26c-28.88,0-52.3-23.42-52.3-52.31Z"/>
      <path class="cls-22" d="M1939.67,1846.27c0-28.65,23.22-51.87,51.87-51.87h372.71c28.65,0,51.87,23.22,51.87,51.87s-23.22,51.87-51.87,51.87h-372.71c-28.65,0-51.87-23.22-51.87-51.87Z"/>
      <path class="cls-3" d="M1939.67,1846.27c0-28.65,23.22-51.87,51.87-51.87h372.71c28.65,0,51.87,23.22,51.87,51.87s-23.22,51.87-51.87,51.87h-372.71c-28.65,0-51.87-23.22-51.87-51.87Z"/>
      <path class="cls-9" d="M3095.48,828.02v-27.32c0-1.66,1.28-2.94,2.94-2.94h9.44c10.43,0,17.64,7.16,17.64,16.5v.09c0,9.34-7.21,16.6-17.64,16.6h-9.44c-1.66,0-2.94-1.28-2.94-2.94ZM3101.31,825.65h6.55c6.97,0,11.52-4.7,11.52-11.19v-.1c0-6.5-4.55-11.29-11.52-11.29h-6.55v22.57ZM3136.75,831.48c-4.7,0-8.87-2.66-8.87-7.73v-.1c0-5.45,4.22-8.06,10.34-8.06,2.85,0,4.79.43,6.74,1.05v-.62c0-3.6-2.18-5.45-6.21-5.45-2.23,0-3.98.38-5.55,1-.33.1-.66.14-.9.14-1.33,0-2.42-1.04-2.42-2.37,0-1.09.66-1.94,1.56-2.27,2.42-.9,4.79-1.47,8.07-1.47,3.75,0,6.49.95,8.3,2.8,1.85,1.85,2.7,4.46,2.7,7.73v12.33c0,1.56-1.23,2.75-2.8,2.75-1.66,0-2.8-1.14-2.8-2.42v-.95c-1.71,2.04-4.32,3.65-8.16,3.65ZM3138.36,827.31c3.8,0,6.69-2.14,6.69-5.36v-1.71c-1.47-.57-3.42-1-5.69-1-3.75,0-5.88,1.51-5.88,4.17v.09c0,2.42,2.09,3.8,4.88,3.8ZM3154.91,799.47v-.28c0-1.71,1.42-2.8,3.27-2.8s3.27,1.09,3.27,2.8v.28c0,1.71-1.42,2.84-3.27,2.84s-3.27-1.14-3.27-2.84ZM3155.33,828.35v-19.82c0-1.66,1.18-2.89,2.84-2.89s2.89,1.23,2.89,2.89v19.82c0,1.66-1.23,2.85-2.89,2.85-1.56,0-2.84-1.19-2.84-2.85ZM3166.53,828.35v-29.4c0-1.56,1.19-2.84,2.85-2.84s2.89,1.28,2.89,2.84v29.4c0,1.66-1.23,2.85-2.89,2.85-1.57,0-2.85-1.19-2.85-2.85ZM3181.95,838.69c-1.66,0-2.8-.19-3.98-.71-.9-.33-1.8-1-1.8-2.37,0-1.47,1.05-2.37,2.32-2.37.52,0,.71.05,1.04.19.71.19,1.19.33,1.99.33,1.71,0,2.61-.71,3.55-2.66l.19-.52-9.29-20.77c-.24-.52-.33-.95-.33-1.37,0-1.66,1.19-2.8,2.85-2.8,1.47,0,2.27.86,2.8,2.18l6.74,16.65,6.26-16.65c.52-1.18,1.28-2.18,2.75-2.18s2.75,1.19,2.75,2.71c0,.52-.09,1.04-.23,1.38l-9.15,21.96c-2.14,5.12-4.41,7.02-8.44,7.02ZM3231.11,831.53c-10.39,0-17.21-7.4-17.21-17.07v-.1c0-9.29,7.07-17.16,17.12-17.16,4.98,0,8.3,1.14,11.33,3.37.57.43,1.19,1.23,1.19,2.37,0,1.56-1.23,2.89-2.89,2.89-.76,0-1.28-.33-1.8-.66-2.14-1.56-4.46-2.61-8.06-2.61-6.07,0-10.77,5.41-10.77,11.72v.09c0,6.83,4.51,11.86,11.29,11.86,3.18,0,5.98-1,8.02-2.51v-6.21h-6.54c-1.47,0-2.61-1.05-2.61-2.51s1.14-2.56,2.61-2.56h9.25c1.66,0,2.94,1.28,2.94,2.94v8.87c0,1.61-.66,2.85-2.04,3.7-2.84,1.9-6.83,3.6-11.81,3.6ZM3261.43,831.53c-7.63,0-13.28-5.83-13.28-12.95v-.1c0-7.16,5.69-13.09,13.38-13.09s13.33,5.83,13.33,12.99v.1c0,7.07-5.69,13.04-13.42,13.04ZM3261.52,826.5c4.69,0,7.58-3.6,7.58-7.92v-.1c0-4.41-3.18-8.06-7.68-8.06s-7.54,3.6-7.54,7.97v.1c0,4.36,3.23,8.02,7.64,8.02ZM3285.52,831.48c-4.7,0-8.87-2.66-8.87-7.73v-.1c0-5.45,4.22-8.06,10.34-8.06,2.84,0,4.79.43,6.74,1.05v-.62c0-3.6-2.18-5.45-6.21-5.45-2.23,0-3.98.38-5.55,1-.33.1-.66.14-.9.14-1.33,0-2.42-1.04-2.42-2.37,0-1.09.66-1.94,1.56-2.27,2.42-.9,4.79-1.47,8.06-1.47,3.75,0,6.5.95,8.3,2.8,1.85,1.85,2.71,4.46,2.71,7.73v12.33c0,1.56-1.23,2.75-2.8,2.75-1.66,0-2.8-1.14-2.8-2.42v-.95c-1.71,2.04-4.31,3.65-8.16,3.65ZM3287.14,827.31c3.79,0,6.69-2.14,6.69-5.36v-1.71c-1.47-.57-3.41-1-5.69-1-3.75,0-5.88,1.51-5.88,4.17v.09c0,2.42,2.09,3.8,4.88,3.8ZM3304.11,828.35v-29.4c0-1.56,1.19-2.84,2.85-2.84s2.89,1.28,2.89,2.84v29.4c0,1.66-1.23,2.85-2.89,2.85-1.56,0-2.85-1.19-2.85-2.85ZM3304.05,858.66v-.47c0-1.85,1.42-3.27,3.37-3.27s3.32,1.42,3.32,3.27v.47c0,1.85-1.42,3.27-3.32,3.27s-3.37-1.43-3.37-3.27ZM3304.05,885.56v-.47c0-1.85,1.42-3.27,3.37-3.27s3.32,1.42,3.32,3.27v.47c0,1.85-1.42,3.27-3.32,3.27s-3.37-1.43-3.37-3.27ZM3304.05,912.46v-.47c0-1.85,1.42-3.27,3.37-3.27s3.32,1.42,3.32,3.27v.47c0,1.85-1.42,3.27-3.32,3.27s-3.37-1.43-3.37-3.27ZM3304.05,939.35v-.47c0-1.85,1.42-3.27,3.37-3.27s3.32,1.42,3.32,3.27v.47c0,1.85-1.42,3.27-3.32,3.27s-3.37-1.43-3.37-3.27ZM3304.05,970.09v-.47c0-1.85,1.42-3.27,3.37-3.27s3.32,1.42,3.32,3.27v.47c0,1.85-1.42,3.27-3.32,3.27s-3.37-1.43-3.37-3.27ZM3304.05,996.99v-.47c0-1.85,1.42-3.27,3.37-3.27s3.32,1.42,3.32,3.27v.47c0,1.85-1.42,3.27-3.32,3.27s-3.37-1.43-3.37-3.27ZM3304.05,1023.88v-.47c0-1.85,1.42-3.27,3.37-3.27s3.32,1.42,3.32,3.27v.47c0,1.85-1.42,3.27-3.32,3.27s-3.37-1.43-3.37-3.27ZM3304.05,1050.78v-.47c0-1.85,1.42-3.27,3.37-3.27s3.32,1.42,3.32,3.27v.47c0,1.85-1.42,3.27-3.32,3.27s-3.37-1.43-3.37-3.27ZM3304.05,1081.52v-.47c0-1.85,1.42-3.27,3.37-3.27s3.32,1.42,3.32,3.27v.47c0,1.85-1.42,3.27-3.32,3.27s-3.37-1.43-3.37-3.27ZM3304.05,1108.42v-.47c0-1.85,1.42-3.27,3.37-3.27s3.32,1.42,3.32,3.27v.47c0,1.85-1.42,3.27-3.32,3.27s-3.37-1.43-3.37-3.27ZM3304.05,1135.31v-.47c0-1.85,1.42-3.27,3.37-3.27s3.32,1.42,3.32,3.27v.47c0,1.85-1.42,3.27-3.32,3.27s-3.37-1.43-3.37-3.27ZM3304.05,1162.21v-.47c0-1.85,1.42-3.27,3.37-3.27s3.32,1.42,3.32,3.27v.47c0,1.85-1.42,3.27-3.32,3.27s-3.37-1.43-3.37-3.27ZM3304.05,1192.95v-.47c0-1.85,1.42-3.27,3.37-3.27s3.32,1.42,3.32,3.27v.47c0,1.85-1.42,3.27-3.32,3.27s-3.37-1.43-3.37-3.27ZM3304.05,1219.85v-.47c0-1.85,1.42-3.27,3.37-3.27s3.32,1.42,3.32,3.27v.47c0,1.85-1.42,3.27-3.32,3.27s-3.37-1.43-3.37-3.27ZM3304.05,1246.74v-.47c0-1.85,1.42-3.27,3.37-3.27s3.32,1.42,3.32,3.27v.47c0,1.85-1.42,3.27-3.32,3.27s-3.37-1.43-3.37-3.27ZM3304.05,1273.64v-.47c0-1.85,1.42-3.27,3.37-3.27s3.32,1.42,3.32,3.27v.47c0,1.85-1.42,3.27-3.32,3.27s-3.37-1.43-3.37-3.27ZM3304.05,1304.38v-.47c0-1.85,1.42-3.27,3.37-3.27s3.32,1.42,3.32,3.27v.47c0,1.85-1.42,3.27-3.32,3.27s-3.37-1.43-3.37-3.27ZM3304.05,1331.28v-.47c0-1.85,1.42-3.27,3.37-3.27s3.32,1.42,3.32,3.27v.47c0,1.85-1.42,3.27-3.32,3.27s-3.37-1.43-3.37-3.27ZM3304.05,1358.17v-.47c0-1.85,1.42-3.27,3.37-3.27s3.32,1.42,3.32,3.27v.47c0,1.85-1.42,3.27-3.32,3.27s-3.37-1.43-3.37-3.27ZM3304.05,1385.07v-.47c0-1.85,1.42-3.27,3.37-3.27s3.32,1.42,3.32,3.27v.47c0,1.85-1.42,3.27-3.32,3.27s-3.37-1.43-3.37-3.27ZM3304.05,1415.81v-.47c0-1.85,1.42-3.27,3.37-3.27s3.32,1.42,3.32,3.27v.47c0,1.85-1.42,3.27-3.32,3.27s-3.37-1.43-3.37-3.27ZM3304.05,1442.71v-.47c0-1.85,1.42-3.27,3.37-3.27s3.32,1.42,3.32,3.27v.47c0,1.85-1.42,3.27-3.32,3.27s-3.37-1.43-3.37-3.27ZM3304.05,1469.6v-.47c0-1.85,1.42-3.27,3.37-3.27s3.32,1.42,3.32,3.27v.47c0,1.85-1.42,3.27-3.32,3.27s-3.37-1.43-3.37-3.27ZM3304.05,1496.5v-.47c0-1.85,1.42-3.27,3.37-3.27s3.32,1.42,3.32,3.27v.47c0,1.85-1.42,3.27-3.32,3.27s-3.37-1.43-3.37-3.27ZM3304.05,1527.24v-.47c0-1.85,1.42-3.27,3.37-3.27s3.32,1.42,3.32,3.27v.47c0,1.85-1.42,3.27-3.32,3.27s-3.37-1.43-3.37-3.27ZM3304.05,1554.14v-.47c0-1.85,1.42-3.27,3.37-3.27s3.32,1.42,3.32,3.27v.47c0,1.85-1.42,3.27-3.32,3.27s-3.37-1.43-3.37-3.27ZM3304.05,1581.03v-.47c0-1.85,1.42-3.27,3.37-3.27s3.32,1.42,3.32,3.27v.47c0,1.85-1.42,3.27-3.32,3.27s-3.37-1.43-3.37-3.27ZM3304.05,1611.77v-.47c0-1.85,1.42-3.27,3.37-3.27s3.32,1.42,3.32,3.27v.47c0,1.85-1.42,3.27-3.32,3.27s-3.37-1.43-3.37-3.27ZM3304.05,1638.67v-.47c0-1.85,1.42-3.27,3.37-3.27s3.32,1.42,3.32,3.27v.47c0,1.85-1.42,3.27-3.32,3.27s-3.37-1.43-3.37-3.27ZM3304.05,1665.57v-.47c0-1.85,1.42-3.27,3.37-3.27s3.32,1.42,3.32,3.27v.47c0,1.85-1.42,3.27-3.32,3.27s-3.37-1.43-3.37-3.27ZM3304.05,1692.46v-.47c0-1.85,1.42-3.27,3.37-3.27s3.32,1.42,3.32,3.27v.47c0,1.85-1.42,3.27-3.32,3.27s-3.37-1.43-3.37-3.27ZM3304.05,1723.2v-.47c0-1.85,1.42-3.27,3.37-3.27s3.32,1.42,3.32,3.27v.47c0,1.85-1.42,3.27-3.32,3.27s-3.37-1.43-3.37-3.27ZM3304.05,1750.1v-.47c0-1.85,1.42-3.27,3.37-3.27s3.32,1.42,3.32,3.27v.47c0,1.85-1.42,3.27-3.32,3.27s-3.37-1.43-3.37-3.27ZM3304.05,1777v-.47c0-1.85,1.42-3.27,3.37-3.27s3.32,1.42,3.32,3.27v.47c0,1.85-1.42,3.27-3.32,3.27s-3.37-1.43-3.37-3.27ZM3304.05,1803.89v-.47c0-1.85,1.42-3.27,3.37-3.27s3.32,1.42,3.32,3.27v.47c0,1.85-1.42,3.27-3.32,3.27s-3.37-1.43-3.37-3.27ZM3304.05,1834.63v-.47c0-1.85,1.42-3.27,3.37-3.27s3.32,1.42,3.32,3.27v.47c0,1.85-1.42,3.27-3.32,3.27s-3.37-1.43-3.37-3.27ZM3304.05,1861.53v-.47c0-1.85,1.42-3.27,3.37-3.27s3.32,1.42,3.32,3.27v.47c0,1.85-1.42,3.27-3.32,3.27s-3.37-1.43-3.37-3.27ZM3304.05,1888.43v-.47c0-1.85,1.42-3.27,3.37-3.27s3.32,1.42,3.32,3.27v.47c0,1.85-1.42,3.27-3.32,3.27s-3.37-1.43-3.37-3.27Z"/>
      <path class="cls-9" d="M2487.38,1027.91v-17.51l-2.39.73c-.23.07-.5.1-.73.1-.96,0-1.79-.8-1.79-1.73s.53-1.53,1.36-1.76l3.52-1.13c.8-.23,1.36-.37,1.99-.37h.07c1.16,0,2.02.86,2.02,2.02v19.63c0,1.16-.86,2.02-2.02,2.02-1.09,0-2.02-.86-2.02-2.02ZM2504.94,1030.16c-6.1,0-10.08-5.31-10.08-11.94v-.07c0-6.63,4.05-12,10.15-12s10.08,5.31,10.08,11.94v.07c0,6.63-4.04,12.01-10.14,12.01ZM2505,1026.48c3.58,0,5.87-3.72,5.87-8.26v-.07c0-4.57-2.35-8.32-5.93-8.32s-5.87,3.65-5.87,8.26v.07c0,4.58,2.32,8.33,5.94,8.33ZM2525.52,1030.16c-3.19,0-5.54-1.06-7.43-2.52-.5-.4-.83-.93-.83-1.59,0-1.06.9-1.96,1.96-1.96.46,0,.86.13,1.19.4,1.59,1.29,3.18,1.96,5.04,1.96,2.66,0,4.51-1.53,4.51-4.01v-.07c0-2.39-1.99-3.85-4.81-3.85-2.26,0-3.35.8-3.98.8s-1.13-.23-1.92-.8c-.56-.4-.83-.99-.8-1.79l.5-8.35c.1-1.06.83-1.83,1.86-1.83h10.51c1.03,0,1.83.8,1.83,1.83s-.8,1.79-1.83,1.79h-8.72l-.37,5.44c1.1-.4,2.12-.66,3.68-.66,4.51,0,8.09,2.39,8.09,7.3v.07c0,4.71-3.55,7.86-8.49,7.86ZM2546.27,1030.16c-6.1,0-10.08-5.31-10.08-11.94v-.07c0-6.63,4.05-12,10.15-12s10.08,5.31,10.08,11.94v.07c0,6.63-4.05,12.01-10.15,12.01ZM2546.34,1026.48c3.58,0,5.87-3.72,5.87-8.26v-.07c0-4.57-2.35-8.32-5.94-8.32s-5.87,3.65-5.87,8.26v.07c0,4.58,2.32,8.33,5.94,8.33Z"/>
      <path class="cls-9" d="M3205.93,1027.84c0-.76.37-1.46,1.06-2.02l7.13-6.07c3.18-2.66,4.34-4.18,4.34-6.27,0-2.29-1.62-3.62-3.75-3.62-1.86,0-3.15.86-4.58,2.59-.3.37-.76.63-1.43.63-1.03,0-1.86-.83-1.86-1.86,0-.46.17-.9.47-1.26,1.86-2.39,4.08-3.75,7.69-3.75,4.51,0,7.66,2.79,7.66,6.93v.07c0,3.68-1.96,5.6-6.03,8.98l-4.78,3.98h9.42c1.03,0,1.79.76,1.79,1.79s-.76,1.79-1.79,1.79h-13.16c-1.29,0-2.19-.73-2.19-1.93ZM3233.49,1030.16c-3.45,0-5.97-1.16-7.86-3.02-.37-.3-.66-.83-.66-1.46,0-1.06.9-1.96,1.96-1.96.63,0,.99.23,1.36.53,1.46,1.46,3.12,2.22,5.28,2.22,2.29,0,4.01-1.39,4.01-3.52v-.07c0-2.29-2.06-3.58-5.34-3.58h-.83c-.96,0-1.76-.8-1.76-1.76,0-.53.23-1.03.86-1.66l5.44-5.81h-8.42c-1.03,0-1.79-.8-1.79-1.76,0-1.03.76-1.79,1.79-1.79h11.87c1.16,0,2.02.7,2.02,1.79,0,.96-.46,1.53-1.16,2.22l-5.47,5.67c3.52.43,6.83,2.22,6.83,6.5v.07c0,4.28-3.29,7.36-8.13,7.36ZM3253.99,1030.16c-6.1,0-10.08-5.31-10.08-11.94v-.07c0-6.63,4.04-12,10.14-12s10.08,5.31,10.08,11.94v.07c0,6.63-4.05,12.01-10.15,12.01ZM3254.06,1026.48c3.58,0,5.87-3.72,5.87-8.26v-.07c0-4.57-2.36-8.32-5.94-8.32s-5.87,3.65-5.87,8.26v.07c0,4.58,2.32,8.33,5.93,8.33ZM3276.33,1030.16c-6.1,0-10.08-5.31-10.08-11.94v-.07c0-6.63,4.05-12,10.15-12s10.08,5.31,10.08,11.94v.07c0,6.63-4.05,12.01-10.15,12.01ZM3276.4,1026.48c3.58,0,5.87-3.72,5.87-8.26v-.07c0-4.57-2.35-8.32-5.94-8.32s-5.87,3.65-5.87,8.26v.07c0,4.58,2.32,8.33,5.94,8.33Z"/>
      <path class="cls-9" d="M3228.4,1331.39c0-.76.36-1.46,1.06-2.02l7.13-6.07c3.19-2.66,4.35-4.18,4.35-6.27,0-2.29-1.63-3.62-3.75-3.62-1.86,0-3.15.86-4.58,2.59-.3.37-.76.63-1.43.63-1.03,0-1.86-.83-1.86-1.86,0-.46.17-.9.46-1.26,1.86-2.39,4.08-3.75,7.69-3.75,4.51,0,7.66,2.79,7.66,6.93v.07c0,3.68-1.96,5.6-6.04,8.98l-4.78,3.98h9.42c1.03,0,1.79.76,1.79,1.79s-.76,1.79-1.79,1.79h-13.16c-1.3,0-2.19-.73-2.19-1.93ZM3255.57,1333.71c-2.66,0-4.54-.76-6.27-1.93-.56-.37-.93-.93-.93-1.69,0-1.06.86-1.86,1.92-1.86.37,0,.76.1,1.13.33,1.36.96,2.66,1.43,4.25,1.43,3.45,0,5.44-3.02,5.6-7.3-1.16,1.43-2.92,2.46-5.44,2.46-4.91,0-8.22-2.85-8.22-7.36v-.07c0-4.54,3.51-8.03,8.65-8.03,2.92,0,4.78.83,6.47,2.46,1.69,1.73,2.79,4.31,2.79,8.85v.07c0,7.46-3.72,12.63-9.95,12.63ZM3256.43,1321.74c2.95,0,4.71-1.92,4.71-4.18v-.07c0-2.42-1.89-4.28-4.84-4.28s-4.61,1.93-4.61,4.31v.07c0,2.42,1.83,4.15,4.74,4.15ZM3279.42,1331.56v-3.45h-10.38c-1.09,0-1.99-.76-1.99-1.92,0-.8.27-1.46.9-2.16l10.91-12.93c.76-.9,1.29-1.33,2.49-1.33,1.09,0,1.99.86,1.99,1.96v13.03h1.79c.96,0,1.69.76,1.69,1.69s-.73,1.66-1.69,1.66h-1.79v3.45c0,1.09-.86,1.92-1.96,1.92s-1.96-.83-1.96-1.92ZM3271.79,1324.76h7.63v-9.18l-7.63,9.18Z"/>
      <path class="cls-9" d="M2336.74,1337.49c-5.07,0-8.85-2.65-8.85-6.66v-.07c0-2.79,1.53-4.54,4.18-5.64-1.99-1.03-3.38-2.55-3.38-5.17v-.07c0-3.55,3.42-6.27,8.06-6.27s8.06,2.69,8.06,6.27v.07c0,2.62-1.39,4.15-3.38,5.17,2.56,1.16,4.18,2.79,4.18,5.57v.07c0,4.15-3.78,6.73-8.85,6.73ZM2336.74,1323.76c2.39,0,4.15-1.43,4.15-3.41v-.07c0-1.82-1.63-3.25-4.15-3.25s-4.15,1.46-4.15,3.22v.07c0,2.02,1.76,3.45,4.15,3.45ZM2336.74,1334.07c3.05,0,4.88-1.53,4.88-3.48v-.07c0-2.12-2.12-3.52-4.88-3.52s-4.84,1.39-4.84,3.52v.07c0,1.89,1.79,3.48,4.84,3.48ZM2355.73,1337.56c-3.18,0-5.54-1.06-7.43-2.52-.5-.4-.83-.93-.83-1.59,0-1.06.9-1.96,1.96-1.96.47,0,.86.13,1.2.4,1.59,1.29,3.19,1.96,5.04,1.96,2.65,0,4.51-1.53,4.51-4.01v-.07c0-2.39-1.99-3.85-4.81-3.85-2.26,0-3.35.8-3.98.8s-1.13-.23-1.92-.8c-.56-.4-.83-.99-.8-1.79l.5-8.35c.1-1.06.83-1.83,1.86-1.83h10.51c1.03,0,1.83.8,1.83,1.83s-.8,1.79-1.83,1.79h-8.72l-.36,5.44c1.09-.4,2.12-.66,3.68-.66,4.51,0,8.09,2.39,8.09,7.3v.07c0,4.71-3.55,7.86-8.49,7.86Z"/>
      <path class="cls-9" d="M3243.43,1635.01v-17.51l-2.39.73c-.23.07-.5.1-.73.1-.96,0-1.79-.8-1.79-1.73s.53-1.53,1.36-1.76l3.51-1.13c.8-.23,1.36-.37,1.99-.37h.07c1.16,0,2.03.86,2.03,2.02v19.63c0,1.16-.86,2.02-2.03,2.02-1.09,0-2.02-.86-2.02-2.02ZM3259.33,1637.26c-3.45,0-5.97-1.16-7.86-3.02-.36-.3-.66-.83-.66-1.46,0-1.06.9-1.96,1.96-1.96.63,0,1,.23,1.36.53,1.46,1.46,3.12,2.22,5.27,2.22,2.29,0,4.01-1.39,4.01-3.52v-.07c0-2.29-2.06-3.58-5.34-3.58h-.83c-.96,0-1.76-.8-1.76-1.76,0-.53.23-1.03.86-1.66l5.44-5.81h-8.42c-1.03,0-1.79-.8-1.79-1.76,0-1.03.76-1.79,1.79-1.79h11.87c1.16,0,2.02.7,2.02,1.79,0,.96-.46,1.53-1.16,2.22l-5.47,5.67c3.52.43,6.83,2.22,6.83,6.5v.07c0,4.28-3.28,7.36-8.12,7.36ZM3277.91,1637.26c-3.18,0-5.54-1.06-7.43-2.52-.5-.4-.83-.93-.83-1.59,0-1.06.9-1.96,1.96-1.96.47,0,.86.13,1.2.4,1.59,1.29,3.19,1.96,5.04,1.96,2.65,0,4.51-1.53,4.51-4.01v-.07c0-2.39-1.99-3.85-4.81-3.85-2.26,0-3.35.8-3.98.8s-1.13-.23-1.92-.8c-.56-.4-.83-.99-.8-1.79l.5-8.35c.1-1.06.83-1.83,1.86-1.83h10.51c1.03,0,1.83.8,1.83,1.83s-.8,1.79-1.83,1.79h-8.72l-.36,5.44c1.09-.4,2.12-.66,3.68-.66,4.51,0,8.09,2.39,8.09,7.3v.07c0,4.71-3.55,7.86-8.49,7.86Z"/>
      <path class="cls-9" d="M2136.15,1634.94c0-.76.37-1.46,1.06-2.02l7.13-6.07c3.18-2.66,4.34-4.18,4.34-6.27,0-2.29-1.63-3.62-3.75-3.62-1.86,0-3.15.86-4.58,2.59-.3.37-.76.63-1.43.63-1.03,0-1.86-.83-1.86-1.86,0-.46.17-.9.46-1.26,1.86-2.39,4.08-3.75,7.69-3.75,4.51,0,7.66,2.79,7.66,6.93v.07c0,3.68-1.96,5.6-6.03,8.98l-4.78,3.98h9.42c1.03,0,1.79.76,1.79,1.79s-.76,1.79-1.79,1.79h-13.16c-1.29,0-2.19-.73-2.19-1.93ZM2163.61,1637.26c-3.18,0-5.54-1.06-7.43-2.52-.5-.4-.83-.93-.83-1.59,0-1.06.9-1.96,1.96-1.96.47,0,.86.13,1.2.4,1.59,1.29,3.19,1.96,5.04,1.96,2.65,0,4.51-1.53,4.51-4.01v-.07c0-2.39-1.99-3.85-4.81-3.85-2.26,0-3.35.8-3.98.8s-1.13-.23-1.92-.8c-.56-.4-.83-.99-.8-1.79l.5-8.35c.1-1.06.83-1.83,1.86-1.83h10.51c1.03,0,1.83.8,1.83,1.83s-.8,1.79-1.83,1.79h-8.72l-.36,5.44c1.09-.4,2.12-.66,3.68-.66,4.51,0,8.09,2.39,8.09,7.3v.07c0,4.71-3.55,7.86-8.49,7.86Z"/>
      <path class="cls-9" d="M3258.77,1940.81c-2.88,0-4.91-.9-6.46-2.46-1.76-1.76-2.82-4.18-2.82-8.85v-.07c0-7.06,3.38-12.63,9.95-12.63,2.39,0,4.25.63,5.8,1.66.63.4,1.03.93,1.03,1.76,0,1.06-.9,1.89-1.96,1.89-.37,0-.73-.13-1.03-.3-1.29-.83-2.42-1.29-3.98-1.29-3.45,0-5.41,3.12-5.57,7.36,1.26-1.16,2.79-2.32,5.57-2.32,4.51,0,8.09,2.65,8.09,7.29v.07c0,4.64-3.75,7.89-8.62,7.89ZM3258.67,1937.26c2.92,0,4.64-1.79,4.64-4.18v-.07c0-2.36-1.83-4.05-4.74-4.05s-4.71,1.86-4.71,4.08v.07c0,2.39,1.89,4.15,4.81,4.15ZM3277.91,1940.81c-3.18,0-5.54-1.06-7.43-2.52-.5-.4-.83-.93-.83-1.59,0-1.06.9-1.96,1.96-1.96.47,0,.86.13,1.2.4,1.59,1.29,3.19,1.96,5.04,1.96,2.65,0,4.51-1.53,4.51-4.01v-.07c0-2.39-1.99-3.85-4.81-3.85-2.26,0-3.35.8-3.98.8s-1.13-.23-1.92-.8c-.56-.4-.83-.99-.8-1.79l.5-8.35c.1-1.06.83-1.83,1.86-1.83h10.51c1.03,0,1.83.8,1.83,1.83s-.8,1.79-1.83,1.79h-8.72l-.36,5.44c1.09-.4,2.12-.66,3.68-.66,4.51,0,8.09,2.39,8.09,7.3v.07c0,4.71-3.55,7.86-8.49,7.86Z"/>
      <path class="cls-9" d="M2367.01,1938.49c0-.76.37-1.46,1.06-2.02l7.13-6.07c3.18-2.66,4.34-4.18,4.34-6.27,0-2.29-1.62-3.62-3.75-3.62-1.86,0-3.15.86-4.58,2.59-.3.37-.76.63-1.43.63-1.03,0-1.86-.83-1.86-1.86,0-.46.17-.9.47-1.26,1.86-2.39,4.08-3.75,7.69-3.75,4.51,0,7.66,2.79,7.66,6.93v.07c0,3.68-1.96,5.6-6.04,8.98l-4.78,3.98h9.42c1.03,0,1.79.76,1.79,1.79s-.76,1.79-1.79,1.79h-13.16c-1.29,0-2.19-.73-2.19-1.93ZM2385.69,1938.49c0-.76.36-1.46,1.06-2.02l7.13-6.07c3.19-2.66,4.35-4.18,4.35-6.27,0-2.29-1.63-3.62-3.75-3.62-1.86,0-3.15.86-4.58,2.59-.3.37-.76.63-1.43.63-1.03,0-1.86-.83-1.86-1.86,0-.46.17-.9.46-1.26,1.86-2.39,4.08-3.75,7.69-3.75,4.51,0,7.66,2.79,7.66,6.93v.07c0,3.68-1.96,5.6-6.04,8.98l-4.78,3.98h9.42c1.03,0,1.79.76,1.79,1.79s-.76,1.79-1.79,1.79h-13.16c-1.3,0-2.19-.73-2.19-1.93Z"/>
      <ellipse class="cls-22" cx="3709.1" cy="1846.27" rx="194.04" ry="51.87"/>
      <path class="cls-22" d="M3903.14,1848.2h-.13c-3.78,27.76-89.15,49.95-193.91,49.95s-190.13-22.19-193.91-49.95h-.13v-376.56h388.08v376.56Z"/>
      <path class="cls-1" d="M3903.14,1848.2h-.13c-3.78,27.76-89.15,49.95-193.91,49.95s-190.13-22.19-193.91-49.95h-.13v-376.56h388.08v376.56Z"/>
      <g class="cls-5">
        <path class="cls-16" d="M3903.14,1848.2v15.37h15.37v-15.37h-15.37ZM3903.01,1848.2v-15.37h-13.42l-1.81,13.29,15.23,2.07ZM3515.19,1848.2l15.23-2.07-1.81-13.29h-13.42v15.37ZM3515.06,1848.2h-15.37v15.37h15.37v-15.37ZM3515.06,1471.64v-15.37h-15.37v15.37h15.37ZM3903.14,1471.64h15.37v-15.37h-15.37v15.37ZM3903.14,1848.2v-15.37h-.13v30.74h.13v-15.37ZM3903.01,1848.2l-15.23-2.07c.06-.41-.49,2.91-9.73,8.34-8.45,4.97-21.22,9.91-37.97,14.24-33.35,8.61-79.53,14.08-130.98,14.08v30.74c53.31,0,102.19-5.63,138.66-15.05,18.15-4.69,33.98-10.51,45.88-17.5,11.11-6.54,22.65-16.4,24.6-30.69l-15.23-2.07ZM3709.1,1898.15v-15.37c-51.45,0-97.63-5.46-130.98-14.08-16.76-4.33-29.53-9.27-37.97-14.24-9.23-5.43-9.78-8.75-9.73-8.34l-15.23,2.07-15.23,2.07c1.94,14.29,13.49,24.15,24.6,30.69,11.9,7,27.73,12.81,45.88,17.5,36.47,9.42,85.35,15.05,138.66,15.05v-15.37ZM3515.19,1848.2v-15.37h-.13v30.74h.13v-15.37ZM3515.06,1848.2h15.37v-376.56h-30.74v376.56h15.37ZM3515.06,1471.64v15.37h388.08v-30.74h-388.08v15.37ZM3903.14,1471.64h-15.37v376.56h30.74v-376.56h-15.37Z"/>
      </g>
      <path class="cls-21" d="M3903.14,1467.8h-.13c-3.78,27.76-89.15,49.95-193.91,49.95s-190.13-22.19-193.91-49.95h-.13v-376.56h388.08v376.56Z"/>
      <path class="cls-1" d="M3903.14,1467.8h-.13c-3.78,27.76-89.15,49.95-193.91,49.95s-190.13-22.19-193.91-49.95h-.13v-376.56h388.08v376.56Z"/>
      <g class="cls-13">
        <path class="cls-14" d="M3903.14,1467.8v15.37h15.37v-15.37h-15.37ZM3903.01,1467.8v-15.37h-13.42l-1.81,13.29,15.23,2.07ZM3515.19,1467.8l15.23-2.07-1.81-13.29h-13.42v15.37ZM3515.06,1467.8h-15.37v15.37h15.37v-15.37ZM3515.06,1091.24v-15.37h-15.37v15.37h15.37ZM3903.14,1091.24h15.37v-15.37h-15.37v15.37ZM3903.14,1467.8v-15.37h-.13v30.74h.13v-15.37ZM3903.01,1467.8l-15.23-2.07c.06-.41-.49,2.91-9.73,8.34-8.45,4.97-21.22,9.91-37.97,14.24-33.35,8.61-79.53,14.08-130.98,14.08v30.74c53.31,0,102.19-5.63,138.66-15.05,18.15-4.69,33.98-10.51,45.88-17.5,11.11-6.54,22.65-16.4,24.6-30.69l-15.23-2.07ZM3709.1,1517.75v-15.37c-51.45,0-97.63-5.46-130.98-14.08-16.76-4.33-29.53-9.27-37.97-14.24-9.23-5.43-9.78-8.75-9.73-8.34l-15.23,2.07-15.23,2.07c1.94,14.29,13.49,24.15,24.6,30.69,11.9,7,27.73,12.81,45.88,17.5,36.47,9.42,85.35,15.05,138.66,15.05v-15.37ZM3515.19,1467.8v-15.37h-.13v30.74h.13v-15.37ZM3515.06,1467.8h15.37v-376.56h-30.74v376.56h15.37ZM3515.06,1091.24v15.37h388.08v-30.74h-388.08v15.37ZM3903.14,1091.24h-15.37v376.56h30.74v-376.56h-15.37Z"/>
      </g>
      <path class="cls-7" d="M3903.14,1241.1h-.13c-3.78,27.76-89.15,49.95-193.91,49.95s-190.13-22.19-193.91-49.95h-.13v-303.55h388.08v303.55Z"/>
      <path class="cls-1" d="M3903.14,1241.1h-.13c-3.78,27.76-89.15,49.95-193.91,49.95s-190.13-22.19-193.91-49.95h-.13v-303.55h388.08v303.55Z"/>
      <g class="cls-12">
        <path class="cls-19" d="M3903.14,1241.1v15.37h15.37v-15.37h-15.37ZM3903.01,1241.1v-15.37h-13.42l-1.81,13.29,15.23,2.07ZM3515.19,1241.1l15.23-2.07-1.81-13.29h-13.42v15.37ZM3515.06,1241.1h-15.37v15.37h15.37v-15.37ZM3515.06,937.55v-15.37h-15.37v15.37h15.37ZM3903.14,937.55h15.37v-15.37h-15.37v15.37ZM3903.14,1241.1v-15.37h-.13v30.74h.13v-15.37ZM3903.01,1241.1l-15.23-2.07c.06-.41-.49,2.91-9.73,8.34-8.45,4.97-21.22,9.91-37.97,14.24-33.35,8.61-79.53,14.08-130.98,14.08v30.74c53.31,0,102.19-5.63,138.66-15.05,18.15-4.69,33.98-10.51,45.88-17.5,11.11-6.54,22.65-16.4,24.6-30.69l-15.23-2.07ZM3709.1,1291.05v-15.37c-51.45,0-97.63-5.46-130.98-14.08-16.76-4.33-29.53-9.27-37.97-14.24-9.23-5.43-9.78-8.75-9.73-8.34l-15.23,2.07-15.23,2.07c1.94,14.29,13.49,24.15,24.6,30.69,11.9,7,27.73,12.81,45.88,17.5,36.47,9.42,85.35,15.05,138.66,15.05v-15.37ZM3515.19,1241.1v-15.37h-.13v30.74h.13v-15.37ZM3515.06,1241.1h15.37v-303.55h-30.74v303.55h15.37ZM3515.06,937.55v15.37h388.08v-30.74h-388.08v15.37ZM3903.14,937.55h-15.37v303.55h30.74v-303.55h-15.37Z"/>
      </g>
      <path class="cls-8" d="M3709.1,891.44c53.11,0,100.92,5.76,135.22,14.93,17.21,4.6,30.58,9.94,39.47,15.56,9.27,5.86,11.67,10.67,11.67,13.69s-2.4,7.84-11.67,13.69c-8.89,5.62-22.26,10.96-39.47,15.56-34.3,9.17-82.11,14.93-135.22,14.93s-100.92-5.76-135.22-14.93c-17.21-4.6-30.58-9.94-39.47-15.56-9.27-5.86-11.67-10.67-11.67-13.69s2.4-7.84,11.67-13.69c8.89-5.62,22.26-10.96,39.47-15.56,34.3-9.17,82.11-14.93,135.22-14.93Z"/>
      <rect class="cls-18" x="252.86" y="780.01" width="1425.53" height="248.69" rx="76.85" ry="76.85"/>
      <path class="cls-20" d="M1464.65,885.23v-24.85c0-1.48,1.14-2.58,2.62-2.58s2.58,1.1,2.58,2.58v12.51l14.03-14.12c.63-.63,1.18-.97,2.16-.97,1.48,0,2.41,1.1,2.41,2.41,0,.72-.3,1.39-.93,1.94l-9.21,8.88,9.97,12.38c.46.55.72,1.06.72,1.86,0,1.48-1.14,2.54-2.62,2.54-1.01,0-1.65-.51-2.2-1.23l-9.51-12.13-4.82,4.65v6.13c0,1.48-1.1,2.58-2.58,2.58s-2.62-1.1-2.62-2.58ZM1504.88,888.1c-8.62,0-15.05-6.72-15.05-15.22v-.08c0-8.41,6.3-15.3,15.26-15.3,4.56,0,7.57,1.35,10.14,3.34.55.46,1.01,1.1,1.01,2.07,0,1.48-1.1,2.54-2.58,2.54-.72,0-1.23-.21-1.56-.51-2.03-1.65-4.18-2.66-7.06-2.66-5.62,0-9.76,4.69-9.76,10.44v.08c0,5.79,4.1,10.48,9.76,10.48,3.17,0,5.24-1.01,7.4-2.83.38-.34.93-.59,1.56-.59,1.31,0,2.45,1.1,2.45,2.41,0,.8-.38,1.39-.85,1.86-2.83,2.49-5.96,3.97-10.74,3.97ZM1518.2,885.4c0-.34.13-.72.34-1.18l10.99-24.51c.63-1.31,1.65-2.11,3.13-2.11h.25c1.48,0,2.45.8,3.09,2.11l10.99,24.51c.21.38.3.72.3,1.1,0,1.39-1.06,2.49-2.45,2.49-1.23,0-2.07-.68-2.54-1.82l-2.41-5.54h-14.37l-2.49,5.71c-.46,1.1-1.27,1.65-2.41,1.65-1.35,0-2.41-1.06-2.41-2.41ZM1527.5,875.84h10.4l-5.2-11.96-5.2,11.96ZM1550.81,884.97v-24.6c0-1.48,1.14-2.58,2.62-2.58s2.58,1.1,2.58,2.58v22.49h13.4c1.31,0,2.37,1.06,2.37,2.37s-1.06,2.37-2.37,2.37h-15.98c-1.48,0-2.62-1.14-2.62-2.62Z"/>
      <path class="cls-20" d="M1452.68,948.95c0-1.58.75-3.01,2.19-4.17l14.7-12.51c6.56-5.47,8.96-8.62,8.96-12.93,0-4.72-3.35-7.45-7.73-7.45-3.83,0-6.5,1.78-9.44,5.33-.61.75-1.57,1.3-2.94,1.3-2.12,0-3.83-1.71-3.83-3.83,0-.96.34-1.85.96-2.6,3.83-4.92,8.41-7.73,15.87-7.73,9.3,0,15.8,5.74,15.8,14.29v.14c0,7.59-4.03,11.56-12.45,18.53l-9.85,8.21h19.42c2.12,0,3.69,1.57,3.69,3.69s-1.57,3.69-3.69,3.69h-27.15c-2.67,0-4.51-1.51-4.51-3.97ZM1509.52,953.74c-7.11,0-12.31-2.39-16.21-6.22-.75-.61-1.37-1.71-1.37-3.01,0-2.19,1.84-4.03,4.03-4.03,1.3,0,2.05.48,2.8,1.09,3.01,3.01,6.43,4.58,10.87,4.58,4.72,0,8.27-2.87,8.27-7.25v-.13c0-4.72-4.24-7.39-11.01-7.39h-1.71c-1.98,0-3.63-1.64-3.63-3.63,0-1.1.48-2.12,1.78-3.42l11.22-11.97h-17.37c-2.12,0-3.69-1.64-3.69-3.63,0-2.12,1.58-3.69,3.69-3.69h24.48c2.39,0,4.17,1.44,4.17,3.69,0,1.98-.96,3.15-2.39,4.58l-11.29,11.69c7.25.89,14.09,4.58,14.09,13.41v.13c0,8.82-6.77,15.19-16.76,15.19ZM1551.8,953.74c-12.58,0-20.79-10.94-20.79-24.62v-.13c0-13.68,8.34-24.76,20.93-24.76s20.79,10.94,20.79,24.62v.14c0,13.68-8.35,24.76-20.93,24.76ZM1551.94,946.15c7.39,0,12.1-7.66,12.1-17.03v-.13c0-9.44-4.85-17.17-12.24-17.17s-12.1,7.52-12.1,17.03v.14c0,9.44,4.79,17.16,12.24,17.16Z"/>
      <path class="cls-9" d="M840.89,952.92h-28.18c-2.39,0-4.24-1.85-4.24-4.24v-39.39c0-2.39,1.84-4.24,4.24-4.24h27.83c2.12,0,3.76,1.64,3.76,3.76s-1.64,3.76-3.76,3.76h-23.66v12.45h20.58c2.12,0,3.76,1.71,3.76,3.83s-1.64,3.69-3.76,3.69h-20.58v12.86h24c2.12,0,3.76,1.64,3.76,3.76s-1.64,3.76-3.76,3.76ZM881.05,922.35l-12.04,27.63c-1.03,2.12-2.46,3.62-4.72,3.62h-.41c-2.26,0-3.69-1.44-4.72-3.62l-12.03-27.56c-.21-.61-.48-1.3-.48-2.05,0-2.12,1.85-3.97,4.1-3.97s3.35,1.3,4.1,3.01l9.3,23.93,9.44-24.07c.61-1.44,1.71-2.87,3.9-2.87s4.03,1.71,4.03,3.97c0,.75-.27,1.51-.48,1.98ZM890.59,932.33h18.54c-.55-5.27-3.7-9.51-9.16-9.51-5.13,0-8.62,3.83-9.37,9.51ZM913.91,948.95c-3.28,2.94-7.32,4.79-12.99,4.79-10.4,0-18.54-7.59-18.54-18.74v-.14c0-10.39,7.32-18.8,17.64-18.8,11.49,0,17.17,9.44,17.17,17.78,0,2.39-1.78,3.97-3.9,3.97h-22.64c.89,5.95,4.99,9.16,10.39,9.16,3.49,0,6.16-1.23,8.55-3.15.61-.48,1.1-.75,2.12-.75,1.84,0,3.28,1.44,3.28,3.35,0,1.03-.48,1.92-1.1,2.53ZM922.22,949.15v-28.59c0-2.39,1.71-4.17,4.1-4.17s4.17,1.78,4.17,4.17v3.69c1.91-4.58,5.47-7.93,9.09-7.93,2.67,0,4.1,1.71,4.1,4.1,0,2.19-1.44,3.62-3.28,3.97-5.95,1.03-9.92,5.54-9.92,14.09v10.67c0,2.26-1.78,4.1-4.17,4.1-2.26,0-4.1-1.71-4.1-4.1ZM953.61,964.06c-2.39,0-4.03-.27-5.74-1.03-1.3-.48-2.6-1.44-2.6-3.42,0-2.12,1.5-3.42,3.35-3.42.75,0,1.03.07,1.5.28,1.03.27,1.71.48,2.87.48,2.46,0,3.76-1.03,5.13-3.83l.27-.75-13.4-29.96c-.34-.75-.48-1.37-.48-1.98,0-2.39,1.71-4.03,4.1-4.03,2.12,0,3.28,1.23,4.03,3.14l9.71,24.01,9.03-24.01c.75-1.71,1.84-3.14,3.97-3.14s3.97,1.71,3.97,3.9c0,.75-.13,1.51-.34,1.98l-13.2,31.67c-3.08,7.39-6.36,10.12-12.17,10.12ZM995.87,953.53c-6.09,0-10.39-2.67-10.39-10.6v-19.01h-1.37c-1.98,0-3.56-1.57-3.56-3.55s1.58-3.56,3.56-3.56h1.37v-6.15c0-2.26,1.78-4.1,4.17-4.1,2.26,0,4.1,1.84,4.1,4.1v6.15h6.5c1.98,0,3.62,1.58,3.62,3.56s-1.64,3.55-3.62,3.55h-6.5v17.71c0,3.22,1.64,4.51,4.45,4.51,1.03,0,1.78-.2,2.05-.2,1.85,0,3.49,1.5,3.49,3.42,0,1.58-1.03,2.74-2.19,3.22-1.84.61-3.49.96-5.68.96ZM1008.46,949.15v-42.4c0-2.26,1.71-4.1,4.1-4.1s4.17,1.85,4.17,4.1v15.59c2.39-3.35,5.61-6.29,11.29-6.29,8.2,0,12.86,5.4,12.86,13.81v19.29c0,2.39-1.71,4.1-4.1,4.1s-4.17-1.71-4.17-4.1v-16.76c0-5.68-2.8-8.82-7.73-8.82s-8.14,3.28-8.14,8.96v16.62c0,2.39-1.78,4.1-4.17,4.1-2.26,0-4.1-1.71-4.1-4.1ZM1047.32,907.51v-.41c0-2.46,2.05-4.03,4.72-4.03s4.72,1.57,4.72,4.03v.41c0,2.46-2.05,4.1-4.72,4.1s-4.72-1.64-4.72-4.1ZM1047.93,949.15v-28.59c0-2.39,1.71-4.17,4.1-4.17s4.17,1.78,4.17,4.17v28.59c0,2.39-1.78,4.1-4.17,4.1-2.26,0-4.1-1.71-4.1-4.1ZM1063.6,949.15v-28.59c0-2.39,1.71-4.17,4.1-4.17s4.17,1.78,4.17,4.17v1.78c2.39-3.35,5.61-6.29,11.29-6.29,8.2,0,12.86,5.4,12.86,13.81v19.29c0,2.39-1.71,4.1-4.1,4.1s-4.17-1.71-4.17-4.1v-16.76c0-5.68-2.8-8.82-7.73-8.82s-8.14,3.28-8.14,8.96v16.62c0,2.39-1.78,4.1-4.17,4.1-2.26,0-4.1-1.71-4.1-4.1ZM1118.66,963.99c-5.13,0-9.58-1.09-13.95-3.21-1.57-.61-2.32-1.71-2.32-3.29,0-1.84,1.57-3.42,3.49-3.42.55,0,1.03.13,1.5.34,3.29,1.84,6.91,2.87,11.08,2.87,7.39,0,11.42-3.76,11.42-11.08v-2.8c-3.01,3.9-6.77,6.63-12.72,6.63-8.48,0-16.41-6.29-16.41-16.89v-.13c0-10.67,7.93-16.96,16.41-16.96,6.09,0,9.85,2.8,12.65,6.16v-1.71c0-2.26,1.85-4.1,4.1-4.1,2.39,0,4.17,1.78,4.17,4.17v24.96c0,6.02-1.51,10.53-4.58,13.61-3.28,3.28-8.27,4.85-14.84,4.85ZM1119.35,943c5.74,0,10.6-4.03,10.6-9.92v-.13c0-5.88-4.86-9.92-10.6-9.92s-10.26,3.97-10.26,9.92v.13c0,5.88,4.58,9.92,10.26,9.92ZM1163.1,948.68v-39.39c0-2.39,1.84-4.24,4.24-4.24h17.23c5.54,0,9.71,1.44,12.51,4.24,2.12,2.12,3.22,4.79,3.22,7.93v.14c0,5.81-3.28,8.82-6.84,10.67,5.68,1.99,9.51,5.06,9.51,11.63v.14c0,8.55-7.04,13.13-17.71,13.13h-17.92c-2.39,0-4.24-1.85-4.24-4.24ZM1171.37,925.22h11.49c5.47,0,9.03-2.12,9.03-6.5v-.14c0-3.83-2.94-6.09-8.41-6.09h-12.11v12.72ZM1171.37,945.46h13.95c5.74,0,9.23-2.19,9.23-6.57v-.13c0-4.1-3.22-6.43-9.85-6.43h-13.34v13.13ZM1218.47,953.67c-6.77,0-12.79-3.83-12.79-11.15v-.14c0-7.87,6.09-11.63,14.91-11.63,4.1,0,6.91.62,9.71,1.51v-.89c0-5.2-3.15-7.87-8.96-7.87-3.21,0-5.74.55-8,1.43-.48.14-.96.21-1.3.21-1.92,0-3.49-1.51-3.49-3.42,0-1.57.96-2.8,2.26-3.28,3.49-1.3,6.91-2.12,11.63-2.12,5.4,0,9.37,1.37,11.97,4.03,2.67,2.67,3.9,6.43,3.9,11.15v17.78c0,2.26-1.78,3.97-4.03,3.97-2.39,0-4.03-1.64-4.03-3.49v-1.37c-2.46,2.94-6.22,5.27-11.76,5.27ZM1220.79,947.65c5.47,0,9.64-3.08,9.64-7.73v-2.46c-2.12-.82-4.92-1.44-8.2-1.44-5.41,0-8.48,2.19-8.48,6.02v.14c0,3.49,3.01,5.47,7.04,5.47ZM1260.86,963.99c-5.13,0-9.58-1.09-13.95-3.21-1.57-.61-2.32-1.71-2.32-3.29,0-1.84,1.57-3.42,3.49-3.42.55,0,1.03.13,1.5.34,3.29,1.84,6.91,2.87,11.08,2.87,7.39,0,11.42-3.76,11.42-11.08v-2.8c-3.01,3.9-6.77,6.63-12.72,6.63-8.48,0-16.41-6.29-16.41-16.89v-.13c0-10.67,7.93-16.96,16.41-16.96,6.09,0,9.85,2.8,12.65,6.16v-1.71c0-2.26,1.85-4.1,4.1-4.1,2.39,0,4.17,1.78,4.17,4.17v24.96c0,6.02-1.51,10.53-4.58,13.61-3.28,3.28-8.27,4.85-14.84,4.85ZM1261.55,943c5.74,0,10.6-4.03,10.6-9.92v-.13c0-5.88-4.86-9.92-10.6-9.92s-10.26,3.97-10.26,9.92v.13c0,5.88,4.58,9.92,10.26,9.92ZM1293.48,932.33h18.53c-.55-5.27-3.69-9.51-9.16-9.51-5.13,0-8.61,3.83-9.37,9.51ZM1316.8,948.95c-3.28,2.94-7.32,4.79-12.99,4.79-10.4,0-18.54-7.59-18.54-18.74v-.14c0-10.39,7.32-18.8,17.64-18.8,11.49,0,17.17,9.44,17.17,17.78,0,2.39-1.78,3.97-3.9,3.97h-22.64c.89,5.95,4.99,9.16,10.39,9.16,3.49,0,6.16-1.23,8.55-3.15.61-.48,1.1-.75,2.12-.75,1.84,0,3.28,1.44,3.28,3.35,0,1.03-.48,1.92-1.09,2.53ZM1325.59,949.15v-42.4c0-2.26,1.71-4.1,4.1-4.1s4.17,1.85,4.17,4.1v42.4c0,2.39-1.78,4.1-4.17,4.1-2.26,0-4.1-1.71-4.1-4.1Z"/>
      <path class="cls-9" d="M809.97,884.97v-24.35c0-1.48,1.14-2.62,2.62-2.62h10.65c3.42,0,6,.89,7.73,2.62,1.31,1.31,1.99,2.96,1.99,4.9v.08c0,3.59-2.03,5.45-4.23,6.59,3.51,1.23,5.88,3.13,5.88,7.19v.08c0,5.28-4.35,8.12-10.95,8.12h-11.07c-1.48,0-2.62-1.14-2.62-2.62ZM815.08,870.48h7.1c3.38,0,5.58-1.31,5.58-4.02v-.08c0-2.37-1.82-3.76-5.2-3.76h-7.48v7.86ZM815.08,882.99h8.62c3.55,0,5.71-1.35,5.71-4.06v-.08c0-2.54-1.99-3.97-6.09-3.97h-8.24v8.12ZM841.61,874.87h11.45c-.34-3.25-2.28-5.88-5.66-5.88-3.17,0-5.33,2.37-5.79,5.88ZM856.02,885.14c-2.03,1.82-4.52,2.96-8.03,2.96-6.42,0-11.45-4.69-11.45-11.58v-.08c0-6.42,4.52-11.62,10.9-11.62,7.1,0,10.61,5.83,10.61,10.99,0,1.48-1.1,2.45-2.41,2.45h-13.99c.55,3.68,3.09,5.66,6.42,5.66,2.16,0,3.8-.76,5.28-1.94.38-.3.68-.46,1.31-.46,1.14,0,2.03.89,2.03,2.07,0,.63-.3,1.18-.68,1.56ZM868.64,887.98c-3.76,0-6.42-1.65-6.42-6.55v-11.75h-.85c-1.23,0-2.2-.97-2.2-2.2s.97-2.2,2.2-2.2h.85v-3.8c0-1.39,1.1-2.54,2.58-2.54,1.39,0,2.54,1.14,2.54,2.54v3.8h4.02c1.23,0,2.24.97,2.24,2.2s-1.01,2.2-2.24,2.2h-4.02v10.95c0,1.99,1.01,2.79,2.75,2.79.63,0,1.1-.13,1.27-.13,1.14,0,2.16.93,2.16,2.11,0,.97-.63,1.69-1.35,1.99-1.14.38-2.16.59-3.51.59ZM883.91,887.98c-3.76,0-6.42-1.65-6.42-6.55v-11.75h-.85c-1.23,0-2.2-.97-2.2-2.2s.97-2.2,2.2-2.2h.85v-3.8c0-1.39,1.1-2.54,2.58-2.54,1.39,0,2.54,1.14,2.54,2.54v3.8h4.02c1.23,0,2.24.97,2.24,2.2s-1.01,2.2-2.24,2.2h-4.02v10.95c0,1.99,1.01,2.79,2.75,2.79.63,0,1.1-.13,1.27-.13,1.14,0,2.16.93,2.16,2.11,0,.97-.63,1.69-1.35,1.99-1.14.38-2.16.59-3.51.59ZM894.92,874.87h11.45c-.34-3.25-2.28-5.88-5.66-5.88-3.17,0-5.33,2.37-5.79,5.88ZM909.33,885.14c-2.03,1.82-4.52,2.96-8.03,2.96-6.42,0-11.45-4.69-11.45-11.58v-.08c0-6.42,4.52-11.62,10.9-11.62,7.1,0,10.61,5.83,10.61,10.99,0,1.48-1.1,2.45-2.41,2.45h-13.99c.55,3.68,3.09,5.66,6.42,5.66,2.16,0,3.8-.76,5.28-1.94.38-.3.68-.46,1.31-.46,1.14,0,2.03.89,2.03,2.07,0,.63-.3,1.18-.68,1.56ZM914.47,885.27v-17.67c0-1.48,1.06-2.58,2.54-2.58s2.58,1.1,2.58,2.58v2.28c1.18-2.83,3.38-4.9,5.62-4.9,1.65,0,2.54,1.06,2.54,2.54,0,1.35-.89,2.24-2.03,2.45-3.68.63-6.13,3.42-6.13,8.71v6.59c0,1.39-1.1,2.54-2.58,2.54-1.39,0-2.54-1.06-2.54-2.54ZM954.99,888.1c-9.26,0-15.34-6.59-15.34-15.22v-.08c0-8.28,6.3-15.3,15.26-15.3,4.44,0,7.4,1.01,10.1,3,.51.38,1.06,1.1,1.06,2.11,0,1.39-1.1,2.58-2.58,2.58-.68,0-1.14-.3-1.61-.59-1.9-1.39-3.97-2.32-7.19-2.32-5.41,0-9.59,4.82-9.59,10.44v.08c0,6.09,4.02,10.57,10.06,10.57,2.83,0,5.33-.89,7.14-2.24v-5.54h-5.83c-1.31,0-2.32-.93-2.32-2.24s1.01-2.28,2.32-2.28h8.24c1.48,0,2.62,1.14,2.62,2.62v7.9c0,1.44-.59,2.54-1.82,3.3-2.54,1.69-6.09,3.21-10.52,3.21ZM982.01,888.1c-6.8,0-11.83-5.2-11.83-11.54v-.08c0-6.38,5.07-11.67,11.92-11.67s11.88,5.2,11.88,11.58v.08c0,6.3-5.07,11.62-11.96,11.62ZM982.09,883.62c4.18,0,6.76-3.21,6.76-7.06v-.08c0-3.93-2.83-7.19-6.85-7.19s-6.72,3.21-6.72,7.1v.08c0,3.89,2.87,7.14,6.8,7.14ZM1007.68,888.1c-6.8,0-11.83-5.2-11.83-11.54v-.08c0-6.38,5.07-11.67,11.92-11.67s11.88,5.2,11.88,11.58v.08c0,6.3-5.07,11.62-11.96,11.62ZM1007.76,883.62c4.18,0,6.76-3.21,6.76-7.06v-.08c0-3.93-2.83-7.19-6.85-7.19s-6.72,3.21-6.72,7.1v.08c0,3.89,2.87,7.14,6.8,7.14ZM1044.67,859.06v26.21c0,1.48-1.14,2.54-2.54,2.54-1.48,0-2.58-1.06-2.58-2.54v-1.39c-1.65,2.32-4.02,4.18-7.61,4.18-5.24,0-10.36-4.14-10.36-11.58v-.08c0-7.44,5.03-11.58,10.36-11.58,3.63,0,6.04,1.82,7.61,3.93v-9.68c0-1.48,1.14-2.54,2.54-2.54,1.48,0,2.58,1.06,2.58,2.54ZM1033.17,869.25c-3.51,0-6.42,2.71-6.42,7.14v.08c0,4.31,2.92,7.14,6.42,7.14s6.47-2.87,6.47-7.14v-.08c0-4.31-3.04-7.14-6.47-7.14ZM1056.62,888.02c-2.87,0-5.92-.85-8.5-2.66-.55-.3-.97-.93-.97-1.78,0-1.14.89-2.07,2.07-2.07.38,0,.76.08,1.1.3,2.16,1.48,4.4,2.16,6.42,2.16,2.2,0,3.47-.93,3.47-2.41v-.08c0-1.69-2.37-2.32-4.99-3.13-3.25-.89-6.97-2.28-6.97-6.55v-.08c0-4.23,3.51-6.8,7.95-6.8,2.37,0,4.86.68,7.02,1.82.72.38,1.23,1.06,1.23,1.94,0,1.18-.93,2.07-2.11,2.07-.46,0-.68-.08-1.01-.25-1.82-.97-3.68-1.52-5.24-1.52-1.99,0-3.13.89-3.13,2.2v.08c0,1.61,2.41,2.37,5.03,3.17,3.21,1.01,6.93,2.49,6.93,6.51v.08c0,4.69-3.63,7.02-8.28,7.02Z"/>
      <path class="cls-9" d="M383.82,946.34c-16.93,0-29.55-8.85-29.55-22.24v-.22c0-9.29,5.09-15.16,13.94-18.81-6.64-3.43-11.29-8.52-11.29-17.26v-.22c0-11.84,11.4-20.92,26.89-20.92s26.89,8.96,26.89,20.92v.22c0,8.75-4.65,13.83-11.29,17.26,8.52,3.87,13.94,9.3,13.94,18.59v.22c0,13.84-12.62,22.47-29.55,22.47ZM383.82,900.52c7.97,0,13.83-4.76,13.83-11.4v-.22c0-6.09-5.42-10.84-13.83-10.84s-13.83,4.87-13.83,10.73v.22c0,6.75,5.87,11.51,13.83,11.51ZM383.82,934.94c10.18,0,16.27-5.09,16.27-11.62v-.22c0-7.08-7.08-11.73-16.27-11.73s-16.16,4.65-16.16,11.73v.22c0,6.31,5.98,11.62,16.16,11.62ZM420.77,894.88v-1c0-4.43,3.32-7.75,7.86-7.75s7.75,3.32,7.75,7.75v1c0,4.43-3.32,7.75-7.75,7.75s-7.86-3.32-7.86-7.75ZM420.77,938.15v-1.11c0-4.32,3.32-7.64,7.86-7.64s7.75,3.32,7.75,7.64v1.11c0,4.32-3.32,7.63-7.75,7.63s-7.86-3.32-7.86-7.63ZM478.46,946.56c-20.36,0-33.64-17.71-33.64-39.84v-.22c0-22.14,13.5-40.06,33.86-40.06s33.64,17.71,33.64,39.84v.22c0,22.13-13.5,40.06-33.87,40.06ZM478.68,934.28c11.95,0,19.59-12.4,19.59-27.56v-.22c0-15.27-7.86-27.78-19.81-27.78s-19.59,12.17-19.59,27.55v.22c0,15.27,7.75,27.78,19.81,27.78ZM516.74,938.81c0-2.55,1.22-4.87,3.54-6.75l23.8-20.25c10.62-8.85,14.5-13.94,14.5-20.91,0-7.64-5.43-12.07-12.51-12.07-6.2,0-10.51,2.88-15.27,8.63-1,1.22-2.54,2.1-4.76,2.1-3.43,0-6.2-2.77-6.2-6.2,0-1.55.55-2.99,1.55-4.2,6.2-7.97,13.61-12.51,25.67-12.51,15.05,0,25.56,9.3,25.56,23.13v.22c0,12.28-6.53,18.7-20.14,29.99l-15.93,13.28h31.43c3.43,0,5.97,2.55,5.97,5.98s-2.55,5.97-5.97,5.97h-43.93c-4.32,0-7.3-2.44-7.3-6.42ZM577.18,941.67c0-.55.2-1.16.55-1.91l17.78-39.67c1.03-2.12,2.67-3.42,5.06-3.42h.41c2.39,0,3.97,1.3,4.99,3.42l17.78,39.67c.34.61.48,1.16.48,1.78,0,2.26-1.71,4.03-3.97,4.03-1.99,0-3.35-1.1-4.1-2.94l-3.9-8.96h-23.25l-4.03,9.23c-.75,1.78-2.05,2.67-3.9,2.67-2.19,0-3.9-1.71-3.9-3.9ZM592.23,926.22h16.82l-8.41-19.35-8.41,19.35ZM629.94,941.47v-40.15c0-2.39,1.85-4.24,4.24-4.24h.89c1.85,0,3.08.96,3.9,2.26l14.5,22.7,14.57-22.77c.89-1.44,2.19-2.19,3.83-2.19h.89c2.39,0,4.24,1.85,4.24,4.24v40.08c0,2.39-1.85,4.17-4.24,4.17-2.26,0-4.17-1.91-4.17-4.17v-28.73l-11.7,17.58c-.89,1.37-1.98,2.19-3.56,2.19s-2.6-.82-3.49-2.19l-11.63-17.44v28.66c0,2.39-1.78,4.1-4.17,4.1s-4.1-1.71-4.1-4.1Z"/>
      <rect class="cls-18" x="252.86" y="1072.03" width="1425.53" height="248.69" rx="76.85" ry="76.85"/>
      <path class="cls-20" d="M1464.65,1177.25v-24.85c0-1.48,1.14-2.58,2.62-2.58s2.58,1.1,2.58,2.58v12.51l14.03-14.12c.63-.63,1.18-.97,2.16-.97,1.48,0,2.41,1.1,2.41,2.41,0,.72-.3,1.39-.93,1.94l-9.21,8.88,9.97,12.38c.46.55.72,1.06.72,1.86,0,1.48-1.14,2.54-2.62,2.54-1.01,0-1.65-.51-2.2-1.23l-9.51-12.13-4.82,4.65v6.13c0,1.48-1.1,2.58-2.58,2.58s-2.62-1.1-2.62-2.58ZM1504.88,1180.12c-8.62,0-15.05-6.72-15.05-15.22v-.08c0-8.41,6.3-15.3,15.26-15.3,4.56,0,7.57,1.35,10.14,3.34.55.46,1.01,1.1,1.01,2.07,0,1.48-1.1,2.54-2.58,2.54-.72,0-1.23-.21-1.56-.51-2.03-1.65-4.18-2.66-7.06-2.66-5.62,0-9.76,4.69-9.76,10.44v.08c0,5.79,4.1,10.48,9.76,10.48,3.17,0,5.24-1.01,7.4-2.83.38-.34.93-.59,1.56-.59,1.31,0,2.45,1.1,2.45,2.41,0,.8-.38,1.39-.85,1.86-2.83,2.49-5.96,3.97-10.74,3.97ZM1518.2,1177.42c0-.34.13-.72.34-1.18l10.99-24.51c.63-1.31,1.65-2.11,3.13-2.11h.25c1.48,0,2.45.8,3.09,2.11l10.99,24.51c.21.38.3.72.3,1.1,0,1.39-1.06,2.49-2.45,2.49-1.23,0-2.07-.68-2.54-1.82l-2.41-5.54h-14.37l-2.49,5.71c-.46,1.1-1.27,1.65-2.41,1.65-1.35,0-2.41-1.06-2.41-2.41ZM1527.5,1167.87h10.4l-5.2-11.96-5.2,11.96ZM1550.81,1177v-24.6c0-1.48,1.14-2.58,2.62-2.58s2.58,1.1,2.58,2.58v22.49h13.4c1.31,0,2.37,1.06,2.37,2.37s-1.06,2.37-2.37,2.37h-15.98c-1.48,0-2.62-1.14-2.62-2.62Z"/>
      <path class="cls-20" d="M1451.17,1240.97c0-1.58.75-3.01,2.19-4.17l14.7-12.51c6.56-5.47,8.96-8.62,8.96-12.93,0-4.72-3.35-7.45-7.73-7.45-3.83,0-6.5,1.78-9.44,5.33-.61.75-1.57,1.3-2.94,1.3-2.12,0-3.83-1.71-3.83-3.83,0-.96.34-1.85.96-2.6,3.83-4.92,8.41-7.73,15.87-7.73,9.3,0,15.8,5.74,15.8,14.29v.14c0,7.59-4.03,11.56-12.45,18.53l-9.85,8.21h19.42c2.12,0,3.69,1.57,3.69,3.69s-1.57,3.69-3.69,3.69h-27.15c-2.67,0-4.51-1.51-4.51-3.97ZM1513.59,1241.31v-7.11h-21.41c-2.26,0-4.1-1.58-4.1-3.97,0-1.64.55-3.01,1.85-4.45l22.5-26.67c1.58-1.84,2.67-2.74,5.13-2.74,2.26,0,4.1,1.78,4.1,4.03v26.88h3.69c1.99,0,3.49,1.57,3.49,3.49s-1.5,3.42-3.49,3.42h-3.69v7.11c0,2.26-1.78,3.97-4.03,3.97s-4.03-1.71-4.03-3.97ZM1497.86,1227.29h15.73v-18.94l-15.73,18.94ZM1553.3,1245.76c-12.58,0-20.79-10.94-20.79-24.62v-.13c0-13.68,8.34-24.76,20.93-24.76s20.79,10.94,20.79,24.62v.14c0,13.68-8.35,24.76-20.93,24.76ZM1553.44,1238.17c7.39,0,12.1-7.66,12.1-17.03v-.13c0-9.44-4.85-17.17-12.24-17.17s-12.1,7.52-12.1,17.03v.14c0,9.44,4.79,17.16,12.24,17.16Z"/>
      <path class="cls-9" d="M805.2,1241.38c0-.55.2-1.16.55-1.91l17.78-39.67c1.03-2.12,2.67-3.42,5.06-3.42h.41c2.39,0,3.97,1.3,5,3.42l17.78,39.67c.34.61.48,1.16.48,1.78,0,2.26-1.71,4.03-3.97,4.03-1.99,0-3.35-1.1-4.1-2.94l-3.9-8.96h-23.25l-4.03,9.23c-.75,1.78-2.05,2.67-3.9,2.67-2.19,0-3.9-1.71-3.9-3.9ZM820.24,1225.93h16.83l-8.41-19.35-8.41,19.35ZM885.39,1214.37l-12.03,27.63c-1.03,2.12-2.46,3.62-4.72,3.62h-.41c-2.26,0-3.69-1.44-4.72-3.62l-12.04-27.56c-.2-.61-.48-1.3-.48-2.05,0-2.12,1.84-3.97,4.1-3.97s3.35,1.3,4.1,3.01l9.3,23.93,9.44-24.07c.62-1.44,1.71-2.87,3.9-2.87s4.03,1.71,4.03,3.97c0,.75-.27,1.51-.48,1.98ZM905.87,1245.76c-11.01,0-19.15-8.41-19.15-18.67v-.14c0-10.33,8.21-18.87,19.29-18.87s19.22,8.41,19.22,18.74v.14c0,10.19-8.21,18.81-19.35,18.81ZM906.01,1238.51c6.77,0,10.94-5.2,10.94-11.42v-.14c0-6.36-4.58-11.63-11.08-11.63s-10.87,5.2-10.87,11.49v.14c0,6.29,4.65,11.56,11.01,11.56ZM946.92,1245.76c-10.74,0-18.67-8.41-18.67-18.67v-.14c0-10.26,7.93-18.87,18.8-18.87,5.74,0,9.58,1.84,12.65,4.51.55.48,1.3,1.51,1.3,2.87,0,2.12-1.71,3.76-3.83,3.76-1.03,0-1.91-.34-2.46-.82-2.12-1.84-4.45-3.08-7.73-3.08-6.02,0-10.47,5.2-10.47,11.49v.14c0,6.43,4.45,11.56,10.81,11.56,3.28,0,5.81-1.3,8.07-3.22.48-.48,1.23-.89,2.26-.89,1.98,0,3.56,1.64,3.56,3.62,0,1.1-.41,1.99-1.16,2.6-3.22,3.08-7.11,5.13-13.13,5.13ZM976.28,1245.69c-6.77,0-12.79-3.83-12.79-11.15v-.14c0-7.87,6.09-11.63,14.91-11.63,4.1,0,6.91.62,9.71,1.51v-.89c0-5.2-3.14-7.87-8.96-7.87-3.22,0-5.74.55-8,1.43-.48.14-.96.21-1.3.21-1.91,0-3.49-1.51-3.49-3.42,0-1.57.96-2.8,2.26-3.28,3.49-1.3,6.91-2.12,11.63-2.12,5.4,0,9.37,1.37,11.97,4.03,2.67,2.67,3.9,6.43,3.9,11.15v17.78c0,2.26-1.78,3.97-4.03,3.97-2.39,0-4.03-1.64-4.03-3.49v-1.37c-2.46,2.94-6.22,5.27-11.77,5.27ZM978.6,1239.67c5.47,0,9.64-3.08,9.64-7.73v-2.46c-2.12-.82-4.92-1.44-8.21-1.44-5.4,0-8.48,2.19-8.48,6.02v.14c0,3.49,3.01,5.47,7.05,5.47ZM1038.1,1198.78v42.4c0,2.39-1.85,4.1-4.1,4.1-2.39,0-4.17-1.71-4.17-4.1v-2.26c-2.67,3.76-6.5,6.77-12.31,6.77-8.48,0-16.75-6.7-16.75-18.74v-.14c0-12.03,8.14-18.74,16.75-18.74,5.88,0,9.78,2.94,12.31,6.36v-15.66c0-2.39,1.85-4.1,4.1-4.1,2.39,0,4.17,1.71,4.17,4.1ZM1019.49,1215.26c-5.68,0-10.39,4.38-10.39,11.55v.14c0,6.97,4.72,11.56,10.39,11.56s10.47-4.65,10.47-11.56v-.14c0-6.97-4.93-11.55-10.47-11.55ZM1062.23,1245.76c-11.01,0-19.15-8.41-19.15-18.67v-.14c0-10.33,8.21-18.87,19.29-18.87s19.22,8.41,19.22,18.74v.14c0,10.19-8.21,18.81-19.35,18.81ZM1062.36,1238.51c6.77,0,10.94-5.2,10.94-11.42v-.14c0-6.36-4.58-11.63-11.08-11.63s-10.87,5.2-10.87,11.49v.14c0,6.29,4.65,11.56,11.01,11.56Z"/>
      <path class="cls-9" d="M824,1180.12c-9.26,0-15.34-6.59-15.34-15.22v-.08c0-8.28,6.3-15.3,15.26-15.3,4.44,0,7.4,1.01,10.1,3,.51.38,1.06,1.1,1.06,2.11,0,1.39-1.1,2.58-2.58,2.58-.68,0-1.14-.3-1.61-.59-1.9-1.39-3.97-2.32-7.19-2.32-5.41,0-9.59,4.82-9.59,10.44v.08c0,6.09,4.02,10.57,10.06,10.57,2.83,0,5.33-.89,7.14-2.24v-5.54h-5.83c-1.31,0-2.32-.93-2.32-2.24s1.01-2.28,2.32-2.28h8.24c1.48,0,2.62,1.14,2.62,2.62v7.9c0,1.44-.59,2.54-1.82,3.3-2.54,1.69-6.09,3.21-10.52,3.21ZM844.25,1166.9h11.45c-.34-3.25-2.28-5.88-5.66-5.88-3.17,0-5.33,2.37-5.79,5.88ZM858.67,1177.17c-2.03,1.82-4.52,2.96-8.03,2.96-6.42,0-11.45-4.69-11.45-11.58v-.08c0-6.42,4.52-11.62,10.9-11.62,7.1,0,10.61,5.83,10.61,10.99,0,1.48-1.1,2.45-2.41,2.45h-13.99c.55,3.68,3.09,5.66,6.42,5.66,2.16,0,3.8-.76,5.28-1.94.38-.3.68-.46,1.31-.46,1.14,0,2.03.89,2.03,2.07,0,.63-.3,1.18-.68,1.56ZM863.8,1177.29v-17.67c0-1.48,1.06-2.58,2.54-2.58s2.58,1.1,2.58,2.58v1.1c1.48-2.07,3.47-3.89,6.97-3.89,5.07,0,7.95,3.34,7.95,8.54v11.92c0,1.48-1.06,2.54-2.54,2.54s-2.58-1.06-2.58-2.54v-10.36c0-3.51-1.73-5.45-4.78-5.45s-5.03,2.03-5.03,5.54v10.27c0,1.48-1.1,2.54-2.58,2.54-1.39,0-2.54-1.06-2.54-2.54ZM891.75,1166.9h11.45c-.34-3.25-2.28-5.88-5.66-5.88-3.17,0-5.33,2.37-5.79,5.88ZM906.16,1177.17c-2.03,1.82-4.52,2.96-8.03,2.96-6.42,0-11.45-4.69-11.45-11.58v-.08c0-6.42,4.52-11.62,10.9-11.62,7.1,0,10.61,5.83,10.61,10.99,0,1.48-1.1,2.45-2.41,2.45h-13.99c.55,3.68,3.09,5.66,6.42,5.66,2.16,0,3.8-.76,5.28-1.94.38-.3.68-.46,1.31-.46,1.14,0,2.03.89,2.03,2.07,0,.63-.3,1.18-.68,1.56ZM911.3,1177.29v-17.67c0-1.48,1.06-2.58,2.54-2.58s2.58,1.1,2.58,2.58v2.28c1.18-2.83,3.38-4.9,5.62-4.9,1.65,0,2.54,1.06,2.54,2.54,0,1.35-.89,2.24-2.03,2.45-3.68.63-6.13,3.42-6.13,8.71v6.59c0,1.39-1.1,2.54-2.58,2.54-1.39,0-2.54-1.06-2.54-2.54ZM926.56,1151.55v-.25c0-1.52,1.27-2.49,2.92-2.49s2.92.97,2.92,2.49v.25c0,1.52-1.27,2.54-2.92,2.54s-2.92-1.01-2.92-2.54ZM926.94,1177.29v-17.67c0-1.48,1.06-2.58,2.54-2.58s2.58,1.1,2.58,2.58v17.67c0,1.48-1.1,2.54-2.58,2.54-1.39,0-2.54-1.06-2.54-2.54ZM946.94,1180.12c-6.64,0-11.54-5.2-11.54-11.54v-.08c0-6.34,4.9-11.67,11.62-11.67,3.55,0,5.92,1.14,7.82,2.79.34.3.8.93.8,1.78,0,1.31-1.06,2.32-2.37,2.32-.63,0-1.18-.21-1.52-.51-1.31-1.14-2.75-1.9-4.78-1.9-3.72,0-6.47,3.21-6.47,7.1v.08c0,3.97,2.75,7.14,6.68,7.14,2.03,0,3.59-.8,4.99-1.99.3-.3.76-.55,1.39-.55,1.23,0,2.2,1.01,2.2,2.24,0,.68-.25,1.23-.72,1.61-1.99,1.9-4.4,3.17-8.12,3.17Z"/>
      <path class="cls-9" d="M383.82,1238.36c-16.93,0-29.55-8.85-29.55-22.24v-.22c0-9.29,5.09-15.16,13.94-18.81-6.64-3.43-11.29-8.52-11.29-17.26v-.22c0-11.84,11.4-20.92,26.89-20.92s26.89,8.96,26.89,20.92v.22c0,8.75-4.65,13.83-11.29,17.26,8.52,3.87,13.94,9.3,13.94,18.59v.22c0,13.84-12.62,22.47-29.55,22.47ZM383.82,1192.54c7.97,0,13.83-4.76,13.83-11.4v-.22c0-6.09-5.42-10.84-13.83-10.84s-13.83,4.87-13.83,10.73v.22c0,6.75,5.87,11.51,13.83,11.51ZM383.82,1226.96c10.18,0,16.27-5.09,16.27-11.62v-.22c0-7.08-7.08-11.73-16.27-11.73s-16.16,4.65-16.16,11.73v.22c0,6.31,5.98,11.62,16.16,11.62ZM420.77,1186.9v-1c0-4.43,3.32-7.75,7.86-7.75s7.75,3.32,7.75,7.75v1c0,4.43-3.32,7.75-7.75,7.75s-7.86-3.32-7.86-7.75ZM420.77,1230.17v-1.11c0-4.32,3.32-7.64,7.86-7.64s7.75,3.32,7.75,7.64v1.11c0,4.31-3.32,7.63-7.75,7.63s-7.86-3.32-7.86-7.63ZM478.46,1238.58c-20.36,0-33.64-17.71-33.64-39.84v-.22c0-22.14,13.5-40.06,33.86-40.06s33.64,17.71,33.64,39.84v.22c0,22.13-13.5,40.06-33.87,40.06ZM478.68,1226.3c11.95,0,19.59-12.4,19.59-27.56v-.22c0-15.27-7.86-27.78-19.81-27.78s-19.59,12.17-19.59,27.55v.22c0,15.27,7.75,27.78,19.81,27.78ZM516.74,1230.84c0-2.55,1.22-4.87,3.54-6.75l23.8-20.25c10.62-8.85,14.5-13.94,14.5-20.91,0-7.64-5.43-12.07-12.51-12.07-6.2,0-10.51,2.88-15.27,8.63-1,1.22-2.54,2.1-4.76,2.1-3.43,0-6.2-2.77-6.2-6.2,0-1.55.55-2.99,1.55-4.2,6.2-7.97,13.61-12.51,25.67-12.51,15.05,0,25.56,9.3,25.56,23.13v.22c0,12.28-6.53,18.7-20.14,29.99l-15.93,13.28h31.43c3.43,0,5.97,2.55,5.97,5.98s-2.55,5.97-5.97,5.97h-43.93c-4.32,0-7.3-2.44-7.3-6.42ZM577.18,1233.7c0-.55.2-1.16.55-1.91l17.78-39.67c1.03-2.12,2.67-3.42,5.06-3.42h.41c2.39,0,3.97,1.3,4.99,3.42l17.78,39.67c.34.61.48,1.16.48,1.78,0,2.26-1.71,4.03-3.97,4.03-1.99,0-3.35-1.1-4.1-2.94l-3.9-8.96h-23.25l-4.03,9.23c-.75,1.78-2.05,2.67-3.9,2.67-2.19,0-3.9-1.71-3.9-3.9ZM592.23,1218.24h16.82l-8.41-19.35-8.41,19.35ZM629.94,1233.49v-40.15c0-2.39,1.85-4.24,4.24-4.24h.89c1.85,0,3.08.96,3.9,2.26l14.5,22.7,14.57-22.77c.89-1.44,2.19-2.19,3.83-2.19h.89c2.39,0,4.24,1.85,4.24,4.24v40.08c0,2.39-1.85,4.17-4.24,4.17-2.26,0-4.17-1.91-4.17-4.17v-28.73l-11.7,17.58c-.89,1.37-1.98,2.19-3.56,2.19s-2.6-.82-3.49-2.19l-11.63-17.44v28.66c0,2.39-1.78,4.1-4.17,4.1s-4.1-1.71-4.1-4.1Z"/>
      <rect class="cls-18" x="252.86" y="1364.05" width="1425.53" height="248.69" rx="76.85" ry="76.85"/>
      <path class="cls-20" d="M1464.65,1469.27v-24.85c0-1.48,1.14-2.58,2.62-2.58s2.58,1.1,2.58,2.58v12.51l14.03-14.12c.63-.63,1.18-.97,2.16-.97,1.48,0,2.41,1.1,2.41,2.41,0,.72-.3,1.39-.93,1.94l-9.21,8.88,9.97,12.38c.46.55.72,1.06.72,1.86,0,1.48-1.14,2.54-2.62,2.54-1.01,0-1.65-.51-2.2-1.23l-9.51-12.13-4.82,4.65v6.13c0,1.48-1.1,2.58-2.58,2.58s-2.62-1.1-2.62-2.58ZM1504.88,1472.15c-8.62,0-15.05-6.72-15.05-15.22v-.08c0-8.41,6.3-15.3,15.26-15.3,4.56,0,7.57,1.35,10.14,3.34.55.46,1.01,1.1,1.01,2.07,0,1.48-1.1,2.54-2.58,2.54-.72,0-1.23-.21-1.56-.51-2.03-1.65-4.18-2.66-7.06-2.66-5.62,0-9.76,4.69-9.76,10.44v.08c0,5.79,4.1,10.48,9.76,10.48,3.17,0,5.24-1.01,7.4-2.83.38-.34.93-.59,1.56-.59,1.31,0,2.45,1.1,2.45,2.41,0,.8-.38,1.39-.85,1.86-2.83,2.49-5.96,3.97-10.74,3.97ZM1518.2,1469.44c0-.34.13-.72.34-1.18l10.99-24.51c.63-1.31,1.65-2.11,3.13-2.11h.25c1.48,0,2.45.8,3.09,2.11l10.99,24.51c.21.38.3.72.3,1.1,0,1.39-1.06,2.49-2.45,2.49-1.23,0-2.07-.68-2.54-1.82l-2.41-5.54h-14.37l-2.49,5.71c-.46,1.1-1.27,1.65-2.41,1.65-1.35,0-2.41-1.06-2.41-2.41ZM1527.5,1459.89h10.4l-5.2-11.96-5.2,11.96ZM1550.81,1469.02v-24.6c0-1.48,1.14-2.58,2.62-2.58s2.58,1.1,2.58,2.58v22.49h13.4c1.31,0,2.37,1.06,2.37,2.37s-1.06,2.37-2.37,2.37h-15.98c-1.48,0-2.62-1.14-2.62-2.62Z"/>
      <path class="cls-20" d="M1469.32,1533.13v-36.11l-4.93,1.5c-.48.14-1.03.21-1.5.21-1.98,0-3.69-1.64-3.69-3.56s1.09-3.15,2.8-3.62l7.25-2.32c1.64-.48,2.8-.75,4.1-.75h.13c2.39,0,4.17,1.78,4.17,4.17v40.48c0,2.39-1.78,4.17-4.17,4.17-2.26,0-4.17-1.78-4.17-4.17ZM1502.11,1537.78c-7.11,0-12.31-2.39-16.21-6.22-.75-.61-1.37-1.71-1.37-3.01,0-2.19,1.84-4.03,4.03-4.03,1.3,0,2.05.48,2.8,1.09,3.01,3.01,6.43,4.58,10.87,4.58,4.72,0,8.28-2.87,8.28-7.25v-.13c0-4.72-4.24-7.39-11.01-7.39h-1.71c-1.98,0-3.62-1.64-3.62-3.63,0-1.1.48-2.12,1.78-3.42l11.22-11.97h-17.37c-2.12,0-3.69-1.64-3.69-3.63,0-2.12,1.57-3.69,3.69-3.69h24.48c2.39,0,4.17,1.44,4.17,3.69,0,1.98-.96,3.15-2.39,4.58l-11.29,11.69c7.25.89,14.09,4.58,14.09,13.41v.13c0,8.82-6.77,15.19-16.75,15.19ZM1544.39,1537.78c-12.58,0-20.79-10.94-20.79-24.62v-.13c0-13.68,8.35-24.76,20.93-24.76s20.79,10.94,20.79,24.62v.14c0,13.68-8.34,24.76-20.93,24.76ZM1544.52,1530.19c7.39,0,12.1-7.66,12.1-17.03v-.13c0-9.44-4.86-17.17-12.24-17.17s-12.1,7.52-12.1,17.03v.14c0,9.44,4.79,17.16,12.24,17.16Z"/>
      <path class="cls-9" d="M830.7,1537.78c-13.95,0-24.35-10.87-24.35-24.62v-.13c0-13.61,10.19-24.76,24.69-24.76,7.39,0,12.24,2.19,16.41,5.4.89.75,1.64,1.78,1.64,3.35,0,2.39-1.78,4.1-4.17,4.1-1.16,0-1.98-.34-2.53-.82-3.28-2.67-6.77-4.31-11.42-4.31-9.1,0-15.8,7.59-15.8,16.89v.14c0,9.37,6.64,16.96,15.8,16.96,5.13,0,8.48-1.64,11.97-4.58.61-.55,1.51-.96,2.53-.96,2.12,0,3.97,1.78,3.97,3.9,0,1.3-.61,2.26-1.37,3.01-4.58,4.03-9.64,6.43-17.37,6.43ZM854.45,1491.55v-.41c0-2.46,2.05-4.03,4.72-4.03s4.72,1.57,4.72,4.03v.41c0,2.46-2.05,4.1-4.72,4.1s-4.72-1.64-4.72-4.1ZM855.07,1533.2v-28.59c0-2.39,1.71-4.17,4.1-4.17s4.17,1.78,4.17,4.17v28.59c0,2.39-1.78,4.1-4.17,4.1-2.26,0-4.1-1.71-4.1-4.1ZM870.74,1533.2v-28.59c0-2.39,1.71-4.17,4.1-4.17s4.17,1.78,4.17,4.17v1.78c2.39-3.35,5.61-6.29,11.29-6.29,8.21,0,12.86,5.4,12.86,13.81v19.28c0,2.39-1.71,4.1-4.1,4.1s-4.17-1.71-4.17-4.1v-16.76c0-5.68-2.8-8.82-7.73-8.82s-8.14,3.28-8.14,8.96v16.62c0,2.39-1.78,4.1-4.17,4.1-2.26,0-4.1-1.71-4.1-4.1ZM909.73,1533.2v-28.59c0-2.39,1.71-4.17,4.1-4.17s4.17,1.78,4.17,4.17v1.78c2.39-3.35,5.61-6.29,11.29-6.29,8.21,0,12.86,5.4,12.86,13.81v19.28c0,2.39-1.71,4.1-4.1,4.1s-4.17-1.71-4.17-4.1v-16.76c0-5.68-2.8-8.82-7.73-8.82s-8.14,3.28-8.14,8.96v16.62c0,2.39-1.78,4.1-4.17,4.1-2.26,0-4.1-1.71-4.1-4.1ZM959.11,1537.71c-6.77,0-12.79-3.83-12.79-11.15v-.14c0-7.87,6.09-11.63,14.91-11.63,4.1,0,6.91.62,9.71,1.51v-.89c0-5.2-3.15-7.87-8.96-7.87-3.22,0-5.74.55-8,1.43-.48.14-.96.21-1.3.21-1.91,0-3.49-1.51-3.49-3.42,0-1.57.96-2.8,2.26-3.28,3.49-1.3,6.91-2.12,11.63-2.12,5.4,0,9.37,1.37,11.97,4.03,2.67,2.67,3.9,6.43,3.9,11.15v17.78c0,2.26-1.78,3.97-4.03,3.97-2.39,0-4.03-1.64-4.03-3.49v-1.37c-2.46,2.94-6.22,5.27-11.77,5.27ZM961.44,1531.7c5.47,0,9.64-3.08,9.64-7.73v-2.46c-2.12-.82-4.92-1.44-8.21-1.44-5.4,0-8.48,2.19-8.48,6.02v.14c0,3.49,3.01,5.47,7.05,5.47ZM985.44,1533.2v-28.59c0-2.39,1.71-4.17,4.1-4.17s4.17,1.78,4.17,4.17v1.71c2.32-3.21,5.47-6.22,11.01-6.22,5.2,0,8.89,2.53,10.81,6.36,2.94-3.83,6.7-6.36,12.17-6.36,7.93,0,12.65,4.99,12.65,13.81v19.28c0,2.39-1.71,4.1-4.1,4.1s-4.17-1.71-4.17-4.1v-16.76c0-5.74-2.67-8.82-7.32-8.82s-7.73,3.14-7.73,8.96v16.62c0,2.39-1.84,4.1-4.1,4.1-2.39,0-4.17-1.71-4.17-4.1v-16.82c0-5.68-2.67-8.75-7.32-8.75s-7.73,3.42-7.73,8.96v16.62c0,2.39-1.78,4.1-4.17,4.1-2.26,0-4.1-1.71-4.1-4.1ZM1064.17,1537.78c-11.01,0-19.15-8.41-19.15-18.67v-.14c0-10.33,8.21-18.87,19.29-18.87s19.22,8.41,19.22,18.74v.14c0,10.19-8.21,18.81-19.35,18.81ZM1064.3,1530.53c6.77,0,10.94-5.2,10.94-11.42v-.14c0-6.36-4.58-11.63-11.08-11.63s-10.87,5.2-10.87,11.49v.14c0,6.29,4.65,11.56,11.01,11.56ZM1088.53,1533.2v-28.59c0-2.39,1.71-4.17,4.1-4.17s4.17,1.78,4.17,4.17v1.78c2.39-3.35,5.61-6.29,11.29-6.29,8.21,0,12.86,5.4,12.86,13.81v19.28c0,2.39-1.71,4.1-4.1,4.1s-4.17-1.71-4.17-4.1v-16.76c0-5.68-2.8-8.82-7.73-8.82s-8.14,3.28-8.14,8.96v16.62c0,2.39-1.78,4.1-4.17,4.1-2.26,0-4.1-1.71-4.1-4.1ZM1168.4,1537.78c-14.7,0-24.96-11.15-24.96-24.62v-.13c0-13.41,10.39-24.76,25.1-24.76s24.96,11.15,24.96,24.62v.14c0,13.4-10.39,24.76-25.1,24.76ZM1168.54,1529.99c9.51,0,16.14-7.52,16.14-16.83v-.13c0-9.3-6.7-17.03-16.28-17.03s-16.14,7.59-16.14,16.89v.14c0,9.3,6.7,16.96,16.28,16.96ZM1209.68,1537.71c-6.77,0-12.79-3.83-12.79-11.15v-.14c0-7.87,6.09-11.63,14.91-11.63,4.1,0,6.91.62,9.71,1.51v-.89c0-5.2-3.14-7.87-8.96-7.87-3.22,0-5.74.55-8,1.43-.48.14-.96.21-1.3.21-1.91,0-3.49-1.51-3.49-3.42,0-1.57.96-2.8,2.26-3.28,3.49-1.3,6.9-2.12,11.63-2.12,5.4,0,9.37,1.37,11.97,4.03,2.67,2.67,3.9,6.43,3.9,11.15v17.78c0,2.26-1.78,3.97-4.03,3.97-2.39,0-4.03-1.64-4.03-3.49v-1.37c-2.46,2.94-6.22,5.27-11.77,5.27ZM1212,1531.7c5.47,0,9.64-3.08,9.64-7.73v-2.46c-2.12-.82-4.93-1.44-8.21-1.44-5.4,0-8.48,2.19-8.48,6.02v.14c0,3.49,3.01,5.47,7.04,5.47ZM1247.77,1537.58c-6.09,0-10.39-2.67-10.39-10.6v-19.01h-1.37c-1.98,0-3.55-1.57-3.55-3.55s1.57-3.56,3.55-3.56h1.37v-6.15c0-2.26,1.78-4.1,4.17-4.1,2.26,0,4.1,1.84,4.1,4.1v6.15h6.5c1.98,0,3.62,1.58,3.62,3.56s-1.64,3.55-3.62,3.55h-6.5v17.71c0,3.22,1.64,4.51,4.45,4.51,1.03,0,1.78-.2,2.05-.2,1.84,0,3.48,1.5,3.48,3.42,0,1.58-1.03,2.74-2.19,3.22-1.85.61-3.49.96-5.68.96ZM1260.37,1533.2v-28.59c0-2.39,1.71-4.17,4.1-4.17s4.17,1.78,4.17,4.17v1.71c2.32-3.21,5.47-6.22,11.01-6.22,5.2,0,8.89,2.53,10.8,6.36,2.94-3.83,6.7-6.36,12.17-6.36,7.93,0,12.65,4.99,12.65,13.81v19.28c0,2.39-1.71,4.1-4.1,4.1s-4.17-1.71-4.17-4.1v-16.76c0-5.74-2.67-8.82-7.32-8.82s-7.73,3.14-7.73,8.96v16.62c0,2.39-1.85,4.1-4.1,4.1-2.39,0-4.17-1.71-4.17-4.1v-16.82c0-5.68-2.67-8.75-7.32-8.75s-7.73,3.42-7.73,8.96v16.62c0,2.39-1.78,4.1-4.17,4.1-2.26,0-4.1-1.71-4.1-4.1ZM1321.11,1532.58v-.68c0-2.67,2.05-4.72,4.86-4.72s4.79,2.05,4.79,4.72v.68c0,2.67-2.05,4.72-4.79,4.72s-4.86-2.05-4.86-4.72ZM1336.06,1532.58v-.68c0-2.67,2.05-4.72,4.86-4.72s4.79,2.05,4.79,4.72v.68c0,2.67-2.05,4.72-4.79,4.72s-4.86-2.05-4.86-4.72ZM1351,1532.58v-.68c0-2.67,2.05-4.72,4.86-4.72s4.79,2.05,4.79,4.72v.68c0,2.67-2.05,4.72-4.79,4.72s-4.86-2.05-4.86-4.72Z"/>
      <path class="cls-9" d="M824,1472.15c-9.26,0-15.34-6.59-15.34-15.22v-.08c0-8.28,6.3-15.3,15.26-15.3,4.44,0,7.4,1.01,10.1,3,.51.38,1.06,1.1,1.06,2.11,0,1.39-1.1,2.58-2.58,2.58-.68,0-1.14-.3-1.61-.59-1.9-1.39-3.97-2.32-7.19-2.32-5.41,0-9.59,4.82-9.59,10.44v.08c0,6.09,4.02,10.57,10.06,10.57,2.83,0,5.33-.89,7.14-2.24v-5.54h-5.83c-1.31,0-2.32-.93-2.32-2.24s1.01-2.28,2.32-2.28h8.24c1.48,0,2.62,1.14,2.62,2.62v7.9c0,1.44-.59,2.54-1.82,3.3-2.54,1.69-6.09,3.21-10.52,3.21ZM840.41,1469.32v-17.67c0-1.48,1.06-2.58,2.54-2.58s2.58,1.1,2.58,2.58v2.28c1.18-2.83,3.38-4.9,5.62-4.9,1.65,0,2.54,1.06,2.54,2.54,0,1.35-.89,2.24-2.03,2.45-3.68.63-6.13,3.42-6.13,8.71v6.59c0,1.39-1.1,2.54-2.58,2.54-1.39,0-2.54-1.06-2.54-2.54ZM858.86,1458.92h11.45c-.34-3.25-2.28-5.88-5.66-5.88-3.17,0-5.33,2.37-5.79,5.88ZM873.27,1469.19c-2.03,1.82-4.52,2.96-8.03,2.96-6.42,0-11.45-4.69-11.45-11.58v-.08c0-6.42,4.52-11.62,10.9-11.62,7.1,0,10.61,5.83,10.61,10.99,0,1.48-1.1,2.45-2.41,2.45h-13.99c.55,3.68,3.09,5.66,6.42,5.66,2.16,0,3.8-.76,5.28-1.94.38-.3.68-.46,1.31-.46,1.14,0,2.03.89,2.03,2.07,0,.63-.3,1.18-.68,1.56ZM884.83,1472.1c-4.18,0-7.9-2.37-7.9-6.89v-.08c0-4.86,3.76-7.19,9.21-7.19,2.54,0,4.27.38,6,.93v-.55c0-3.21-1.94-4.86-5.54-4.86-1.99,0-3.55.34-4.95.89-.3.08-.59.13-.8.13-1.18,0-2.16-.93-2.16-2.11,0-.97.59-1.73,1.39-2.03,2.16-.8,4.27-1.31,7.19-1.31,3.34,0,5.79.85,7.4,2.49,1.65,1.65,2.41,3.97,2.41,6.89v10.99c0,1.39-1.1,2.45-2.49,2.45-1.48,0-2.49-1.01-2.49-2.16v-.85c-1.52,1.82-3.85,3.25-7.27,3.25ZM886.27,1468.39c3.38,0,5.96-1.9,5.96-4.78v-1.52c-1.31-.51-3.04-.89-5.07-.89-3.34,0-5.24,1.35-5.24,3.72v.08c0,2.16,1.86,3.38,4.35,3.38ZM908.38,1472.02c-3.76,0-6.42-1.65-6.42-6.55v-11.75h-.85c-1.23,0-2.2-.97-2.2-2.2s.97-2.2,2.2-2.2h.85v-3.8c0-1.39,1.1-2.54,2.58-2.54,1.39,0,2.54,1.14,2.54,2.54v3.8h4.02c1.23,0,2.24.97,2.24,2.2s-1.01,2.2-2.24,2.2h-4.02v10.95c0,1.99,1.01,2.79,2.75,2.79.63,0,1.1-.13,1.27-.13,1.14,0,2.16.93,2.16,2.11,0,.97-.63,1.69-1.35,1.99-1.14.38-2.16.59-3.51.59ZM939.14,1472.06h-.3c-1.48,0-2.41-.8-2.96-2.11l-10.36-24.35c-.17-.38-.3-.76-.3-1.23,0-1.39,1.14-2.54,2.62-2.54,1.35,0,2.2.72,2.66,1.86l8.54,21.34,8.66-21.51c.34-.89,1.27-1.69,2.49-1.69,1.48,0,2.58,1.1,2.58,2.49,0,.38-.13.8-.25,1.1l-10.4,24.51c-.55,1.31-1.52,2.11-3,2.11ZM959.8,1472.1c-4.18,0-7.9-2.37-7.9-6.89v-.08c0-4.86,3.76-7.19,9.21-7.19,2.54,0,4.27.38,6,.93v-.55c0-3.21-1.94-4.86-5.54-4.86-1.99,0-3.55.34-4.95.89-.3.08-.59.13-.8.13-1.18,0-2.16-.93-2.16-2.11,0-.97.59-1.73,1.39-2.03,2.16-.8,4.27-1.31,7.19-1.31,3.34,0,5.79.85,7.4,2.49,1.65,1.65,2.41,3.97,2.41,6.89v10.99c0,1.39-1.1,2.45-2.49,2.45-1.48,0-2.49-1.01-2.49-2.16v-.85c-1.52,1.82-3.85,3.25-7.27,3.25ZM961.23,1468.39c3.38,0,5.96-1.9,5.96-4.78v-1.52c-1.31-.51-3.04-.89-5.07-.89-3.34,0-5.24,1.35-5.24,3.72v.08c0,2.16,1.86,3.38,4.35,3.38ZM976.36,1469.32v-26.21c0-1.39,1.06-2.54,2.54-2.54s2.58,1.14,2.58,2.54v26.21c0,1.48-1.1,2.54-2.58,2.54-1.39,0-2.54-1.06-2.54-2.54ZM1005.87,1451.65v17.67c0,1.39-1.1,2.54-2.58,2.54-1.39,0-2.58-1.06-2.58-2.54v-1.14c-1.48,2.16-3.55,3.93-6.97,3.93-5.07,0-7.95-3.34-7.95-8.58v-11.88c0-1.48,1.14-2.58,2.54-2.58,1.48,0,2.58,1.1,2.58,2.58v10.36c0,3.51,1.73,5.41,4.78,5.41s5.03-1.99,5.03-5.49v-10.27c0-1.48,1.1-2.58,2.58-2.58,1.39,0,2.58,1.1,2.58,2.58ZM1013.99,1458.92h11.45c-.34-3.25-2.28-5.88-5.66-5.88-3.17,0-5.33,2.37-5.79,5.88ZM1028.4,1469.19c-2.03,1.82-4.52,2.96-8.03,2.96-6.42,0-11.45-4.69-11.45-11.58v-.08c0-6.42,4.52-11.62,10.9-11.62,7.1,0,10.61,5.83,10.61,10.99,0,1.48-1.1,2.45-2.41,2.45h-13.99c.55,3.68,3.09,5.66,6.42,5.66,2.16,0,3.8-.76,5.28-1.94.38-.3.68-.46,1.31-.46,1.14,0,2.03.89,2.03,2.07,0,.63-.3,1.18-.68,1.56Z"/>
      <path class="cls-9" d="M360.93,1523.08v-58.43l-7.97,2.44c-.77.22-1.66.33-2.43.33-3.21,0-5.98-2.66-5.98-5.75s1.77-5.09,4.54-5.87l11.73-3.76c2.66-.78,4.54-1.22,6.64-1.22h.22c3.87,0,6.75,2.88,6.75,6.75v65.51c0,3.87-2.88,6.75-6.75,6.75-3.65,0-6.75-2.88-6.75-6.75ZM419.53,1530.61c-20.36,0-33.64-17.71-33.64-39.84v-.22c0-22.14,13.5-40.06,33.86-40.06s33.64,17.71,33.64,39.84v.22c0,22.13-13.5,40.06-33.86,40.06ZM419.75,1518.32c11.95,0,19.59-12.4,19.59-27.56v-.22c0-15.27-7.86-27.78-19.81-27.78s-19.59,12.17-19.59,27.55v.22c0,15.27,7.75,27.78,19.81,27.78ZM461.76,1478.92v-1c0-4.43,3.32-7.75,7.86-7.75s7.75,3.32,7.75,7.75v1c0,4.43-3.32,7.75-7.75,7.75s-7.86-3.32-7.86-7.75ZM461.76,1522.19v-1.11c0-4.32,3.32-7.64,7.86-7.64s7.75,3.32,7.75,7.64v1.11c0,4.31-3.32,7.63-7.75,7.63s-7.86-3.32-7.86-7.63ZM499.2,1523.08v-58.43l-7.97,2.44c-.77.22-1.66.33-2.43.33-3.21,0-5.98-2.66-5.98-5.75s1.77-5.09,4.54-5.87l11.73-3.76c2.66-.78,4.54-1.22,6.64-1.22h.22c3.87,0,6.75,2.88,6.75,6.75v65.51c0,3.87-2.88,6.75-6.75,6.75-3.65,0-6.75-2.88-6.75-6.75ZM555.14,1530.61c-9.63,0-16.38-2.99-21.58-8.19-5.86-5.86-9.41-13.94-9.41-29.55v-.22c0-23.57,11.29-42.16,33.2-42.16,7.97,0,14.17,2.1,19.37,5.53,2.1,1.33,3.43,3.1,3.43,5.86,0,3.54-2.99,6.31-6.53,6.31-1.22,0-2.43-.44-3.43-1-4.32-2.77-8.08-4.32-13.28-4.32-11.51,0-18.04,10.41-18.59,24.57,4.2-3.87,9.29-7.75,18.59-7.75,15.05,0,27,8.85,27,24.35v.22c0,15.49-12.51,26.34-28.78,26.34ZM554.81,1518.76c9.74,0,15.49-5.97,15.49-13.94v-.22c0-7.85-6.09-13.5-15.82-13.5s-15.72,6.2-15.72,13.61v.22c0,7.97,6.31,13.83,16.05,13.83ZM587.81,1525.72c0-.55.2-1.16.55-1.91l17.78-39.67c1.03-2.12,2.67-3.42,5.06-3.42h.41c2.39,0,3.97,1.3,4.99,3.42l17.78,39.67c.34.61.48,1.16.48,1.78,0,2.26-1.71,4.03-3.97,4.03-1.98,0-3.35-1.1-4.1-2.94l-3.9-8.96h-23.25l-4.03,9.23c-.75,1.78-2.05,2.67-3.9,2.67-2.19,0-3.9-1.71-3.9-3.9ZM602.85,1510.26h16.83l-8.41-19.35-8.41,19.35ZM640.57,1525.51v-40.15c0-2.39,1.84-4.24,4.24-4.24h.89c1.84,0,3.08.96,3.9,2.26l14.5,22.7,14.57-22.77c.89-1.44,2.19-2.19,3.83-2.19h.89c2.39,0,4.24,1.85,4.24,4.24v40.08c0,2.39-1.85,4.17-4.24,4.17-2.26,0-4.17-1.91-4.17-4.17v-28.73l-11.69,17.58c-.89,1.37-1.98,2.19-3.56,2.19s-2.6-.82-3.49-2.19l-11.63-17.44v28.66c0,2.39-1.78,4.1-4.17,4.1s-4.1-1.71-4.1-4.1Z"/>
      <rect class="cls-18" x="252.86" y="1656.08" width="1425.53" height="248.69" rx="76.85" ry="76.85"/>
      <path class="cls-20" d="M1464.65,1761.3v-24.85c0-1.48,1.14-2.58,2.62-2.58s2.58,1.1,2.58,2.58v12.51l14.03-14.12c.63-.63,1.18-.97,2.16-.97,1.48,0,2.41,1.1,2.41,2.41,0,.72-.3,1.39-.93,1.94l-9.21,8.88,9.97,12.38c.46.55.72,1.06.72,1.86,0,1.48-1.14,2.54-2.62,2.54-1.01,0-1.65-.51-2.2-1.23l-9.51-12.13-4.82,4.65v6.13c0,1.48-1.1,2.58-2.58,2.58s-2.62-1.1-2.62-2.58ZM1504.88,1764.17c-8.62,0-15.05-6.72-15.05-15.22v-.08c0-8.41,6.3-15.3,15.26-15.3,4.56,0,7.57,1.35,10.14,3.34.55.46,1.01,1.1,1.01,2.07,0,1.48-1.1,2.54-2.58,2.54-.72,0-1.23-.21-1.56-.51-2.03-1.65-4.18-2.66-7.06-2.66-5.62,0-9.76,4.69-9.76,10.44v.08c0,5.79,4.1,10.48,9.76,10.48,3.17,0,5.24-1.01,7.4-2.83.38-.34.93-.59,1.56-.59,1.31,0,2.45,1.1,2.45,2.41,0,.8-.38,1.39-.85,1.86-2.83,2.49-5.96,3.97-10.74,3.97ZM1518.2,1761.46c0-.34.13-.72.34-1.18l10.99-24.51c.63-1.31,1.65-2.11,3.13-2.11h.25c1.48,0,2.45.8,3.09,2.11l10.99,24.51c.21.38.3.72.3,1.1,0,1.39-1.06,2.49-2.45,2.49-1.23,0-2.07-.68-2.54-1.82l-2.41-5.54h-14.37l-2.49,5.71c-.46,1.1-1.27,1.65-2.41,1.65-1.35,0-2.41-1.06-2.41-2.41ZM1527.5,1751.91h10.4l-5.2-11.96-5.2,11.96ZM1550.81,1761.04v-24.6c0-1.48,1.14-2.58,2.62-2.58s2.58,1.1,2.58,2.58v22.49h13.4c1.31,0,2.37,1.06,2.37,2.37s-1.06,2.37-2.37,2.37h-15.98c-1.48,0-2.62-1.14-2.62-2.62Z"/>
      <path class="cls-20" d="M1476.9,1825.15v-36.11l-4.93,1.5c-.48.14-1.03.21-1.51.21-1.98,0-3.69-1.64-3.69-3.56s1.1-3.15,2.8-3.62l7.25-2.32c1.64-.48,2.8-.75,4.1-.75h.13c2.39,0,4.17,1.78,4.17,4.17v40.48c0,2.39-1.78,4.17-4.17,4.17-2.26,0-4.17-1.78-4.17-4.17ZM1500.59,1825.15v-36.11l-4.92,1.5c-.48.14-1.03.21-1.51.21-1.98,0-3.69-1.64-3.69-3.56s1.1-3.15,2.8-3.62l7.25-2.32c1.64-.48,2.8-.75,4.1-.75h.14c2.39,0,4.17,1.78,4.17,4.17v40.48c0,2.39-1.78,4.17-4.17,4.17-2.26,0-4.17-1.78-4.17-4.17ZM1536.81,1829.81c-12.58,0-20.79-10.94-20.79-24.62v-.13c0-13.68,8.34-24.76,20.93-24.76s20.79,10.94,20.79,24.62v.14c0,13.68-8.35,24.76-20.93,24.76ZM1536.94,1822.21c7.39,0,12.1-7.66,12.1-17.03v-.13c0-9.44-4.85-17.17-12.24-17.17s-12.1,7.52-12.1,17.03v.14c0,9.44,4.79,17.16,12.24,17.16Z"/>
      <path class="cls-9" d="M825.23,1829.67c-6.63,0-12.58-1.98-17.99-6.02-1.02-.75-1.64-1.85-1.64-3.22,0-2.19,1.78-3.9,3.97-3.9,1.16,0,1.91.27,2.46.75,4.03,3.22,8.21,4.93,13.41,4.93s8.48-2.46,8.48-6.02v-.14c0-3.35-1.92-5.33-10.8-7.32-10.19-2.39-15.93-5.54-15.93-14.29v-.14c0-8.21,6.84-13.88,16.34-13.88,6.02,0,10.81,1.51,15.19,4.45,1.03.55,1.84,1.71,1.84,3.35,0,2.19-1.78,3.9-3.97,3.9-.75,0-1.51-.21-2.19-.62-3.76-2.39-7.18-3.62-11.01-3.62-4.93,0-7.8,2.46-7.8,5.68v.14c0,3.69,2.19,5.33,11.42,7.52,10.06,2.6,15.32,6.02,15.32,14.02v.13c0,9.03-7.04,14.29-17.1,14.29ZM859.62,1829.6c-6.09,0-10.39-2.67-10.39-10.6v-19.01h-1.37c-1.99,0-3.56-1.57-3.56-3.55s1.57-3.56,3.56-3.56h1.37v-6.15c0-2.26,1.78-4.1,4.17-4.1,2.26,0,4.1,1.84,4.1,4.1v6.15h6.5c1.98,0,3.62,1.58,3.62,3.56s-1.64,3.55-3.62,3.55h-6.5v17.71c0,3.22,1.64,4.51,4.45,4.51,1.03,0,1.78-.2,2.05-.2,1.85,0,3.49,1.5,3.49,3.42,0,1.58-1.03,2.74-2.19,3.22-1.84.61-3.49.96-5.68.96ZM872.21,1825.22v-28.59c0-2.39,1.71-4.17,4.1-4.17s4.17,1.78,4.17,4.17v3.69c1.91-4.58,5.47-7.93,9.09-7.93,2.67,0,4.1,1.71,4.1,4.1,0,2.19-1.44,3.62-3.29,3.97-5.95,1.03-9.91,5.54-9.91,14.09v10.67c0,2.26-1.78,4.1-4.17,4.1-2.26,0-4.1-1.71-4.1-4.1ZM905.7,1829.74c-6.77,0-12.79-3.83-12.79-11.15v-.14c0-7.87,6.09-11.63,14.91-11.63,4.1,0,6.9.62,9.71,1.51v-.89c0-5.2-3.15-7.87-8.96-7.87-3.21,0-5.74.55-8,1.43-.48.14-.96.21-1.3.21-1.92,0-3.49-1.51-3.49-3.42,0-1.57.96-2.8,2.26-3.28,3.49-1.3,6.91-2.12,11.63-2.12,5.4,0,9.37,1.37,11.97,4.03,2.67,2.67,3.9,6.43,3.9,11.15v17.78c0,2.26-1.78,3.97-4.03,3.97-2.39,0-4.03-1.64-4.03-3.49v-1.37c-2.46,2.94-6.22,5.27-11.76,5.27ZM908.02,1823.72c5.47,0,9.64-3.08,9.64-7.73v-2.46c-2.12-.82-4.93-1.44-8.21-1.44-5.4,0-8.48,2.19-8.48,6.02v.14c0,3.49,3.01,5.47,7.04,5.47ZM943.53,1829.6h-.27c-2.12,0-3.76-1.16-4.58-3.69l-9.71-27.49c-.2-.55-.41-1.37-.41-2.12,0-1.98,1.58-3.83,4.04-3.83,2.12,0,3.42,1.37,4.03,3.28l6.97,21.88,7.04-21.88c.61-1.91,2.12-3.28,4.24-3.28h.48c2.12,0,3.63,1.37,4.24,3.28l7.11,21.88,7.04-21.95c.55-1.84,1.85-3.21,4.03-3.21s3.9,1.71,3.9,3.83c0,.62-.14,1.37-.34,1.85l-9.85,27.77c-.89,2.53-2.6,3.69-4.58,3.69h-.27c-2.12,0-3.76-1.16-4.51-3.55l-7.04-21.48-7.11,21.48c-.75,2.39-2.46,3.55-4.45,3.55ZM986.04,1825.22v-42.4c0-2.39,1.71-4.1,4.1-4.1s4.17,1.71,4.17,4.1v16.07c2.67-3.76,6.36-6.77,12.31-6.77,8.48,0,16.76,6.7,16.76,18.74v.14c0,12.04-8.21,18.74-16.76,18.74-6.02,0-9.78-3.01-12.31-6.36v1.84c0,2.26-1.78,4.1-4.17,4.1-2.26,0-4.1-1.85-4.1-4.1ZM1004.64,1822.55c5.68,0,10.32-4.45,10.32-11.56v-.14c0-6.97-4.65-11.55-10.32-11.55s-10.53,4.65-10.53,11.55v.14c0,6.91,4.86,11.56,10.53,11.56ZM1034.72,1808.4h18.54c-.55-5.27-3.69-9.51-9.16-9.51-5.13,0-8.62,3.83-9.37,9.51ZM1058.05,1825.02c-3.29,2.94-7.32,4.79-12.99,4.79-10.4,0-18.54-7.59-18.54-18.74v-.14c0-10.39,7.32-18.8,17.64-18.8,11.49,0,17.17,9.44,17.17,17.78,0,2.39-1.78,3.97-3.9,3.97h-22.64c.89,5.95,4.99,9.16,10.39,9.16,3.49,0,6.16-1.23,8.55-3.15.61-.48,1.1-.75,2.12-.75,1.85,0,3.28,1.44,3.28,3.35,0,1.03-.48,1.92-1.09,2.53ZM1066.35,1825.22v-28.59c0-2.39,1.71-4.17,4.1-4.17s4.17,1.78,4.17,4.17v3.69c1.91-4.58,5.47-7.93,9.09-7.93,2.67,0,4.1,1.71,4.1,4.1,0,2.19-1.44,3.62-3.28,3.97-5.95,1.03-9.92,5.54-9.92,14.09v10.67c0,2.26-1.78,4.1-4.17,4.1-2.26,0-4.1-1.71-4.1-4.1ZM1091.19,1825.22v-28.59c0-2.39,1.71-4.17,4.1-4.17s4.17,1.78,4.17,4.17v3.69c1.92-4.58,5.47-7.93,9.09-7.93,2.67,0,4.1,1.71,4.1,4.1,0,2.19-1.43,3.62-3.28,3.97-5.95,1.03-9.92,5.54-9.92,14.09v10.67c0,2.26-1.78,4.1-4.17,4.1-2.26,0-4.1-1.71-4.1-4.1ZM1122.58,1840.13c-2.39,0-4.03-.27-5.74-1.03-1.3-.48-2.6-1.44-2.6-3.42,0-2.12,1.51-3.42,3.35-3.42.75,0,1.03.07,1.51.28,1.03.27,1.71.48,2.87.48,2.46,0,3.76-1.03,5.13-3.83l.28-.75-13.41-29.96c-.34-.75-.48-1.37-.48-1.98,0-2.39,1.71-4.03,4.1-4.03,2.12,0,3.29,1.23,4.03,3.14l9.71,24.01,9.03-24.01c.75-1.71,1.85-3.14,3.97-3.14s3.97,1.71,3.97,3.9c0,.75-.14,1.51-.34,1.98l-13.2,31.67c-3.08,7.39-6.36,10.12-12.17,10.12ZM1184.25,1825.15v-14.77l-16.48-22.64c-.55-.82-.96-1.78-.96-2.94,0-2.26,1.85-4.03,4.24-4.03,1.84,0,3.08.96,4.1,2.53l13.33,19.22,13.54-19.29c1.03-1.57,2.19-2.53,4.03-2.53,2.46,0,4.1,1.85,4.1,4.1,0,1.16-.55,2.19-1.16,3.01l-16.35,22.36v14.98c0,2.39-1.85,4.17-4.24,4.17s-4.17-1.78-4.17-4.17ZM1225.77,1829.81c-11.01,0-19.15-8.41-19.15-18.67v-.14c0-10.33,8.21-18.87,19.28-18.87s19.22,8.41,19.22,18.74v.14c0,10.19-8.21,18.81-19.35,18.81ZM1225.91,1822.55c6.77,0,10.94-5.2,10.94-11.42v-.14c0-6.36-4.58-11.63-11.08-11.63s-10.87,5.2-10.87,11.49v.14c0,6.29,4.65,11.56,11.01,11.56ZM1266.21,1840.06c-5.13,0-9.58-1.09-13.95-3.21-1.58-.61-2.32-1.71-2.32-3.29,0-1.84,1.57-3.42,3.48-3.42.55,0,1.03.13,1.51.34,3.28,1.84,6.9,2.87,11.08,2.87,7.39,0,11.42-3.76,11.42-11.08v-2.8c-3.01,3.9-6.77,6.63-12.72,6.63-8.48,0-16.41-6.29-16.41-16.89v-.13c0-10.67,7.93-16.96,16.41-16.96,6.09,0,9.85,2.8,12.65,6.16v-1.71c0-2.26,1.84-4.1,4.1-4.1,2.39,0,4.17,1.78,4.17,4.17v24.96c0,6.02-1.5,10.53-4.58,13.61-3.29,3.28-8.28,4.85-14.84,4.85ZM1266.89,1819.07c5.74,0,10.6-4.03,10.6-9.92v-.13c0-5.88-4.85-9.92-10.6-9.92s-10.26,3.97-10.26,9.92v.13c0,5.88,4.58,9.92,10.26,9.92ZM1324.67,1796.63v28.59c0,2.26-1.78,4.1-4.17,4.1-2.26,0-4.17-1.71-4.17-4.1v-1.84c-2.39,3.49-5.74,6.36-11.29,6.36-8.21,0-12.86-5.4-12.86-13.88v-19.22c0-2.39,1.85-4.17,4.1-4.17,2.39,0,4.17,1.78,4.17,4.17v16.76c0,5.68,2.8,8.75,7.73,8.75s8.14-3.21,8.14-8.89v-16.62c0-2.39,1.78-4.17,4.17-4.17,2.26,0,4.17,1.78,4.17,4.17ZM1330.76,1824.61v-.68c0-2.67,2.05-4.72,4.86-4.72s4.79,2.05,4.79,4.72v.68c0,2.67-2.05,4.72-4.79,4.72s-4.86-2.05-4.86-4.72ZM1345.71,1824.61v-.68c0-2.67,2.05-4.72,4.86-4.72s4.79,2.05,4.79,4.72v.68c0,2.67-2.05,4.72-4.79,4.72s-4.86-2.05-4.86-4.72ZM1360.66,1824.61v-.68c0-2.67,2.05-4.72,4.86-4.72s4.79,2.05,4.79,4.72v.68c0,2.67-2.05,4.72-4.79,4.72s-4.86-2.05-4.86-4.72Z"/>
      <path class="cls-9" d="M823.71,1764.17c-8.62,0-15.05-6.72-15.05-15.22v-.08c0-8.41,6.3-15.3,15.26-15.3,4.56,0,7.57,1.35,10.14,3.34.55.46,1.01,1.1,1.01,2.07,0,1.48-1.1,2.54-2.58,2.54-.72,0-1.23-.21-1.56-.51-2.03-1.65-4.18-2.66-7.06-2.66-5.62,0-9.76,4.69-9.76,10.44v.08c0,5.79,4.1,10.48,9.76,10.48,3.17,0,5.24-1.01,7.4-2.83.38-.34.93-.59,1.56-.59,1.31,0,2.45,1.1,2.45,2.41,0,.8-.38,1.39-.85,1.86-2.83,2.49-5.96,3.97-10.74,3.97ZM838.47,1761.34v-26.21c0-1.39,1.06-2.54,2.54-2.54s2.58,1.14,2.58,2.54v9.64c1.48-2.07,3.47-3.89,6.97-3.89,5.07,0,7.95,3.34,7.95,8.54v11.92c0,1.48-1.06,2.54-2.54,2.54s-2.58-1.06-2.58-2.54v-10.36c0-3.51-1.73-5.45-4.78-5.45s-5.03,2.03-5.03,5.54v10.27c0,1.48-1.1,2.54-2.58,2.54-1.39,0-2.54-1.06-2.54-2.54ZM873.17,1764.17c-6.8,0-11.83-5.2-11.83-11.54v-.08c0-6.38,5.07-11.67,11.92-11.67s11.88,5.2,11.88,11.58v.08c0,6.3-5.07,11.62-11.96,11.62ZM873.26,1759.69c4.18,0,6.76-3.21,6.76-7.06v-.08c0-3.93-2.83-7.19-6.85-7.19s-6.72,3.21-6.72,7.1v.08c0,3.89,2.87,7.14,6.8,7.14ZM888.23,1761.34v-26.21c0-1.48,1.06-2.54,2.54-2.54s2.58,1.06,2.58,2.54v9.93c1.65-2.32,3.93-4.18,7.61-4.18,5.24,0,10.36,4.14,10.36,11.58v.08c0,7.44-5.07,11.58-10.36,11.58-3.72,0-6.04-1.86-7.61-3.93v1.14c0,1.39-1.1,2.54-2.58,2.54-1.39,0-2.54-1.14-2.54-2.54ZM899.73,1759.69c3.51,0,6.38-2.75,6.38-7.14v-.08c0-4.31-2.87-7.14-6.38-7.14s-6.51,2.87-6.51,7.14v.08c0,4.27,3,7.14,6.51,7.14ZM920.9,1764.13c-4.18,0-7.9-2.37-7.9-6.89v-.08c0-4.86,3.76-7.19,9.21-7.19,2.54,0,4.27.38,6,.93v-.55c0-3.21-1.94-4.86-5.54-4.86-1.99,0-3.55.34-4.95.89-.3.08-.59.13-.8.13-1.18,0-2.16-.93-2.16-2.11,0-.97.59-1.73,1.39-2.03,2.16-.8,4.27-1.31,7.19-1.31,3.34,0,5.79.85,7.4,2.49,1.65,1.65,2.41,3.97,2.41,6.89v10.99c0,1.39-1.1,2.45-2.49,2.45-1.48,0-2.49-1.01-2.49-2.16v-.85c-1.52,1.82-3.85,3.25-7.27,3.25ZM922.34,1760.41c3.38,0,5.96-1.9,5.96-4.78v-1.52c-1.31-.51-3.04-.89-5.07-.89-3.34,0-5.24,1.35-5.24,3.72v.08c0,2.16,1.86,3.38,4.35,3.38ZM937.17,1761.34v-17.67c0-1.48,1.06-2.58,2.54-2.58s2.58,1.1,2.58,2.58v1.1c1.48-2.07,3.47-3.89,6.97-3.89,5.07,0,7.95,3.34,7.95,8.54v11.92c0,1.48-1.06,2.54-2.54,2.54s-2.58-1.06-2.58-2.54v-10.36c0-3.51-1.73-5.45-4.78-5.45s-5.03,2.03-5.03,5.54v10.27c0,1.48-1.1,2.54-2.58,2.54-1.39,0-2.54-1.06-2.54-2.54ZM961.18,1735.6v-.25c0-1.52,1.27-2.49,2.92-2.49s2.92.97,2.92,2.49v.25c0,1.52-1.27,2.54-2.92,2.54s-2.92-1.01-2.92-2.54ZM961.56,1761.34v-17.67c0-1.48,1.06-2.58,2.54-2.58s2.58,1.1,2.58,2.58v17.67c0,1.48-1.1,2.54-2.58,2.54-1.39,0-2.54-1.06-2.54-2.54Z"/>
      <path class="cls-9" d="M357.56,1815.1v-58.43l-7.97,2.44c-.77.22-1.66.33-2.43.33-3.21,0-5.98-2.66-5.98-5.75s1.77-5.09,4.54-5.87l11.73-3.76c2.66-.78,4.54-1.22,6.64-1.22h.22c3.87,0,6.75,2.88,6.75,6.75v65.51c0,3.87-2.88,6.75-6.75,6.75-3.65,0-6.75-2.88-6.75-6.75ZM416.16,1822.63c-20.36,0-33.64-17.71-33.64-39.84v-.22c0-22.14,13.5-40.06,33.86-40.06s33.64,17.71,33.64,39.84v.22c0,22.13-13.5,40.06-33.86,40.06ZM416.38,1810.34c11.95,0,19.59-12.4,19.59-27.56v-.22c0-15.27-7.86-27.78-19.81-27.78s-19.59,12.17-19.59,27.55v.22c0,15.27,7.75,27.78,19.81,27.78ZM458.39,1770.95v-1c0-4.43,3.32-7.75,7.86-7.75s7.75,3.32,7.75,7.75v1c0,4.43-3.32,7.75-7.75,7.75s-7.86-3.32-7.86-7.75ZM458.39,1814.22v-1.11c0-4.32,3.32-7.64,7.86-7.64s7.75,3.32,7.75,7.64v1.11c0,4.31-3.32,7.63-7.75,7.63s-7.86-3.32-7.86-7.63ZM495.83,1815.1v-58.43l-7.97,2.44c-.77.22-1.66.33-2.43.33-3.21,0-5.98-2.66-5.98-5.75s1.77-5.09,4.54-5.87l11.73-3.76c2.66-.78,4.54-1.22,6.64-1.22h.22c3.87,0,6.75,2.88,6.75,6.75v65.51c0,3.87-2.88,6.75-6.75,6.75-3.65,0-6.75-2.88-6.75-6.75ZM551.77,1822.63c-9.63,0-16.38-2.99-21.58-8.19-5.86-5.86-9.41-13.94-9.41-29.55v-.22c0-23.57,11.29-42.16,33.2-42.16,7.97,0,14.16,2.1,19.37,5.53,2.1,1.33,3.43,3.1,3.43,5.86,0,3.54-2.99,6.31-6.53,6.31-1.21,0-2.43-.44-3.43-1-4.32-2.77-8.08-4.32-13.28-4.32-11.51,0-18.04,10.41-18.59,24.57,4.2-3.87,9.29-7.75,18.59-7.75,15.05,0,27,8.85,27,24.35v.22c0,15.49-12.51,26.34-28.77,26.34ZM551.44,1810.79c9.74,0,15.49-5.97,15.49-13.94v-.22c0-7.85-6.09-13.5-15.82-13.5s-15.72,6.2-15.72,13.61v.22c0,7.97,6.31,13.83,16.05,13.83ZM584.44,1817.74c0-.55.2-1.16.55-1.91l17.78-39.67c1.03-2.12,2.67-3.42,5.06-3.42h.41c2.39,0,3.97,1.3,4.99,3.42l17.78,39.67c.34.61.48,1.16.48,1.78,0,2.26-1.71,4.03-3.97,4.03-1.98,0-3.35-1.1-4.1-2.94l-3.9-8.96h-23.25l-4.03,9.23c-.75,1.78-2.05,2.67-3.9,2.67-2.19,0-3.9-1.71-3.9-3.9ZM599.49,1802.29h16.82l-8.41-19.35-8.41,19.35ZM637.2,1817.54v-40.15c0-2.39,1.85-4.24,4.24-4.24h.89c1.84,0,3.08.96,3.9,2.26l14.5,22.7,14.57-22.77c.89-1.44,2.19-2.19,3.83-2.19h.89c2.39,0,4.24,1.85,4.24,4.24v40.08c0,2.39-1.85,4.17-4.24,4.17-2.26,0-4.17-1.91-4.17-4.17v-28.73l-11.7,17.58c-.89,1.37-1.98,2.19-3.56,2.19s-2.6-.82-3.49-2.19l-11.63-17.44v28.66c0,2.39-1.78,4.1-4.17,4.1s-4.1-1.71-4.1-4.1Z"/>
      <path class="cls-6" d="M2370.02,526.41h165.22c42.44,0,76.85,34.41,76.85,76.85h0c0,42.44-34.41,76.85-76.85,76.85h-165.22c-42.44,0-76.85-34.41-76.85-76.85h0c0-42.44,34.41-76.85,76.85-76.85Z"/>
      <path class="cls-9" d="M2385.57,620.26l-11.14-31.2c-.16-.43-.27-.86-.27-1.29,0-1.88,1.51-3.23,3.39-3.23,1.67,0,2.85.97,3.28,2.42l8.66,25.87,8.5-25.77c.59-1.56,1.67-2.64,3.34-2.64h.48c1.67,0,2.85,1.08,3.34,2.64l8.5,25.77,8.66-25.93c.48-1.34,1.56-2.37,3.23-2.37,1.78,0,3.28,1.4,3.28,3.17,0,.43-.16.97-.32,1.34l-11.14,31.2c-.59,1.67-1.78,2.74-3.44,2.74h-.65c-1.67,0-2.8-1.02-3.39-2.74l-8.39-24.58-8.39,24.58c-.59,1.72-1.78,2.74-3.44,2.74h-.65c-1.67,0-2.8-1.02-3.44-2.74ZM2458.66,622.47h-22.16c-1.88,0-3.34-1.45-3.34-3.34v-30.99c0-1.88,1.45-3.34,3.34-3.34h21.89c1.67,0,2.96,1.29,2.96,2.96s-1.29,2.96-2.96,2.96h-18.61v9.79h16.19c1.67,0,2.96,1.34,2.96,3.01s-1.29,2.9-2.96,2.9h-16.19v10.11h18.88c1.67,0,2.96,1.29,2.96,2.96s-1.29,2.96-2.96,2.96ZM2492,622.47h-22.16c-1.88,0-3.34-1.45-3.34-3.34v-30.99c0-1.88,1.45-3.34,3.34-3.34h21.89c1.67,0,2.96,1.29,2.96,2.96s-1.29,2.96-2.96,2.96h-18.61v9.79h16.19c1.67,0,2.96,1.34,2.96,3.01s-1.29,2.9-2.96,2.9h-16.19v10.11h18.88c1.67,0,2.96,1.29,2.96,2.96s-1.29,2.96-2.96,2.96ZM2499.85,619.46v-31.63c0-1.88,1.45-3.28,3.34-3.28s3.28,1.4,3.28,3.28v15.92l17.86-17.97c.81-.81,1.51-1.24,2.74-1.24,1.88,0,3.07,1.4,3.07,3.07,0,.91-.38,1.78-1.18,2.47l-11.73,11.3,12.7,15.76c.59.7.91,1.34.91,2.37,0,1.88-1.45,3.23-3.34,3.23-1.29,0-2.1-.65-2.8-1.56l-12.1-15.44-6.13,5.92v7.8c0,1.88-1.4,3.28-3.28,3.28s-3.34-1.4-3.34-3.28Z"/>
      <path class="cls-6" d="M2016.52,526.41h165.22c42.44,0,76.85,34.41,76.85,76.85h0c0,42.44-34.41,76.85-76.85,76.85h-165.22c-42.44,0-76.85-34.41-76.85-76.85h0c0-42.44,34.41-76.85,76.85-76.85Z"/>
      <path class="cls-9" d="M2049.35,619.13v-30.99c0-1.88,1.45-3.34,3.34-3.34h10.7c11.83,0,20.01,8.12,20.01,18.72v.11c0,10.6-8.18,18.83-20.01,18.83h-10.7c-1.88,0-3.34-1.45-3.34-3.34ZM2055.97,616.44h7.42c7.91,0,13.07-5.33,13.07-12.7v-.11c0-7.37-5.16-12.8-13.07-12.8h-7.42v25.61ZM2084.27,619.67c0-.43.16-.91.43-1.51l13.99-31.2c.81-1.67,2.1-2.69,3.98-2.69h.32c1.88,0,3.12,1.02,3.93,2.69l13.99,31.2c.27.48.38.91.38,1.4,0,1.78-1.34,3.17-3.12,3.17-1.56,0-2.64-.86-3.23-2.31l-3.07-7.05h-18.29l-3.17,7.26c-.59,1.4-1.61,2.1-3.07,2.1-1.72,0-3.07-1.34-3.07-3.07ZM2096.1,607.51h13.23l-6.62-15.22-6.62,15.22ZM2131.74,619.46v-11.62l-12.96-17.81c-.43-.65-.75-1.4-.75-2.31,0-1.78,1.45-3.17,3.34-3.17,1.45,0,2.42.75,3.23,1.99l10.49,15.12,10.65-15.17c.81-1.24,1.72-1.99,3.17-1.99,1.94,0,3.23,1.45,3.23,3.23,0,.91-.43,1.72-.91,2.37l-12.86,17.59v11.78c0,1.88-1.45,3.28-3.34,3.28s-3.28-1.4-3.28-3.28Z"/>
    </g>
  </g>
</svg>