<?xml version="1.0" encoding="UTF-8"?>
<svg id="Layer_1" data-name="Layer 1" xmlns="http://www.w3.org/2000/svg" xmlns:xlink="http://www.w3.org/1999/xlink" viewBox="0 0 2048 6195.43">
  <defs>
    <style>
      .cls-1 {
        fill: #a43749;
      }

      .cls-2 {
        fill: #ffe790;
      }

      .cls-3 {
        fill: url(#linear-gradient-3);
      }

      .cls-4 {
        fill: url(#linear-gradient-2);
      }

      .cls-5 {
        stroke: #d24e68;
        stroke-width: 85.33px;
      }

      .cls-5, .cls-6, .cls-7, .cls-8, .cls-9, .cls-10 {
        fill: none;
      }

      .cls-5, .cls-10 {
        stroke-linecap: round;
      }

      .cls-6 {
        stroke: #ee3f3f;
        stroke-width: 22.76px;
      }

      .cls-11 {
        fill: url(#linear-gradient);
      }

      .cls-12 {
        fill: #d76077;
      }

      .cls-7 {
        stroke: #bb405a;
      }

      .cls-7, .cls-8 {
        stroke-width: 59.73px;
      }

      .cls-13 {
        fill: #55001f;
      }

      .cls-8, .cls-9 {
        stroke: #cf5d5d;
      }

      .cls-9 {
        stroke-width: 31.29px;
      }

      .cls-14 {
        fill: #a83e53;
      }

      .cls-10 {
        stroke: #a83e53;
        stroke-width: 19.91px;
      }

      .cls-15 {
        fill: #d24e68;
      }
    </style>
    <linearGradient id="linear-gradient" x1="1001.54" y1="-2207.77" x2="737.01" y2="-2206.94" gradientTransform="translate(718 2678) scale(1 -1)" gradientUnits="userSpaceOnUse">
      <stop offset="0" stop-color="#ecbf5f"/>
      <stop offset="1" stop-color="#ffe790"/>
    </linearGradient>
    <linearGradient id="linear-gradient-2" x1="1001.54" y1="-158.82" x2="737.01" y2="-158" xlink:href="#linear-gradient"/>
    <linearGradient id="linear-gradient-3" x1="1716.9" y1="1413.33" x2="1457.23" y2="1414.14" gradientTransform="matrix(1,0,0,1,0,0)" xlink:href="#linear-gradient"/>
  </defs>
  <g>
    <path class="cls-2" d="M328.53,3861.33h1390.93v2048H328.53v-2048Z"/>
    <rect class="cls-11" x="1454.93" y="3861.33" width="264.53" height="2048"/>
    <rect class="cls-13" x="590.34" y="4066.13" width="859.02" height="1581.51" rx="329.96" ry="329.96"/>
    <rect class="cls-9" x="605.99" y="4081.77" width="827.73" height="1550.22" rx="314.31" ry="314.31"/>
    <path class="cls-5" d="M1019.73,4094.56c7.2,26.38,20.89,65.15,48.75,104.9,46.85,66.86,85.62,75.72,119.07,133.94,21.8,37.94,31.09,85.9,14.62,127.57-39.19,91.34-167.03,82.94-251.02,88.44-19.32,1.24-37.82,3.16-55.15,8.91-40.01,12.21-60.25,46.89-29.18,77.61,13.76,13.97,38.53,22.34,61.19,25.39,30.12,4.2,59.62,3.61,90.48,3.84,56.34-.34,118.13,1.69,172.53,2.76,15.9.37,32,.79,47.56,3.95,38.5,6.88,55.77,34.78,23.23,61.55-43.92,34.05-116.53,33.32-171.76,34.28-52.38.2-108.98-4.94-156-10.69-39.79-3.95-81.82-9.62-121.32-1.21-66.26,12.75-76.04,82.83-7.98,101.28,29.75,8.18,60.65,4.8,91.17,4.54,59.42-.93,123.86-.48,185.04-1.35,57.8,2.34,180.91-13.99,202.31,45.25,15.42,66.24-157.54,70.44-201.37,65.11-73.55-7.25-161.19-27.02-232.38-8.6-18.73,5.42-37.59,15.63-46.88,32.92-14.48,26.23.71,57.15,26.59,69.99,53.89,27.76,138.88,15.99,200.04,11.11,48.7-3.78,98.15-12.95,143.58,5.56,51.81,25.16,27.41,73.43-18.1,87.73-72.73,22.91-151.98,7.48-226.28,9.51-24.22.93-55.6,10.86-59.79,33.79-2.91,13.46,4.22,29.28,19.21,41.24,17.13,14.22,46.11,22.14,69.71,27.59,53.18,10.52,86.26,26.41,104.2,52.28,13.39,19.31,18.09,40.21,12.65,116.9-3.17,44.65-9.13,104.83-21.28,176.31"/>
    <rect class="cls-7" x="588.8" y="4067.55" width="861.87" height="1578.67" rx="359.82" ry="359.82"/>
  </g>
  <g>
    <path class="cls-6" d="M454.31,3719.14l-58.62,61.59-58.62-62.58"/>
    <path class="cls-2" d="M328.53,1812.38h1390.93v2048H328.53V1812.38Z"/>
    <rect class="cls-4" x="1454.93" y="1812.38" width="264.53" height="2048"/>
    <rect class="cls-13" x="593.07" y="2017.18" width="859.02" height="1587.2" rx="329.96" ry="329.96"/>
    <rect class="cls-9" x="608.71" y="2032.82" width="827.73" height="1555.91" rx="314.31" ry="314.31"/>
    <path class="cls-14" d="M1290.39,3132.2c-2.14-3.04-6.16-6.98-7.04-10.89-1.66-7.32-.48-17.74-1.68-25.16-1.15-7.08-2.14-14.11-3.29-21.13l-1.99-12.07c-.44-2.67-2.38-5.78-2.85-8.24-.99-5.22-3.07-10-6.16-14.73-5.12-7.88-13.57-10.11-21.35-6.7-4.08,1.79-7.34,3.58-10.75,6.59-5.01,4.44-10.85,8.09-14.68,13.79-1.15,1.71-4.42,2.12-4.88,4.68-1.31.77-3.09,2.03-4.54,3.4-11.14,10.55-22.76,19.91-35.23,28.04l-8.92,5.81c-3.14,2.05-7.99,2.19-10.68,5.33-.18.2-.69.16-.95.26l-19.41,8c-6.62,2.73-13.92,3.57-20.5,6.42-1.3.57-3.58-.67-4.44,1.18-5.17-.36-10.23,2.09-15.18,2.62-6.43.69-13.11.24-19.49,1.72-.28.07-.62-.17-.92-.17-6.51,0-13.06.57-19.56.21l-21.25-1.15c-6.3-.34-12.58-2.6-18.97-2.54h-.72c-5.8-3.25-13.09-2.57-19.32-4.38l-19.84-5.78-19.43-7.39c-2.25-.85-4.94-1.97-7.19-2.88-4.1-1.67-7.86-4.61-12.26-5.52-.36-.07-.77-.55-1.1-.76-6.27-3.84-12.79-7.47-19.53-10.31.11-.61-.59-.6-.83-.86-1.7-1.82-3.88-3.04-6.18-3.83-.55-.19-1.14-1.05-1.8-1.06-2.54-3.65-7.23-5.12-10.72-7.7-35.67-26.35-65.77-59.18-90.75-96.5-3.05-4.56-6.01-11.17-9.72-15.03-.36-2.03-2.9-4.45-3.61-6.21-2.93-7.24-7.11-13.84-10.87-20.58-2.9-5.2-3.87-11.82-7.54-16.65-.07-.29-.09-.63-.07-.93.04-.85-.67-1.37-1-1.99l-.96-1.8c-3.52-6.57-5.55-14.34-8.21-21.54-2.43-6.57-3.49-13.78-6.7-20.02-.25-.49-.06-1.33-.16-1.88-1.25-6.72-4.57-13.04-6.16-19.54-1.59-6.51-2.48-12.91-3.61-19.29-1.58-8.89-3.22-17.9-3.56-26.91-.2-2.11,1.38-2.12.57-.09,2.34,15.13,7.2,28.55,12.77,42.75,25.47,64.85,65.09,122.82,115.5,169.28,20.35,18.75,42.22,34.43,66.9,46.18,53.47,25.45,118.06,35.44,174.85,16.81,26.24-8.6,49.34-22.64,71.14-39.88l31.8-25.15c7.05-5.57,15-9.29,23.61-11.54,23.02-6,41.35,8.79,49.59,30.37,6.62,17.35,8.79,35.69,7.64,54.36-.96,15.65-6.81,34.04-6.51,48.66.03,1.16-.61,2.21-1.32,2.29h0Z"/>
    <path class="cls-1" d="M1140.56,3014.98c-26.13,23.66-66.32,28.12-99.67,21.46-25.47-5.1-49.13-15.56-70.63-30.82-34.86-24.73-62.44-57.54-83.59-95.46-11.88-21.3-21.6-43-29.23-66.37-17.24-52.87-15.72-115.77,12.38-164.38,18.87-32.66,49.21-56.57,84.85-65.05,18.82-4.48,37.67-3.52,55.18,4.1,37.44,16.29,59.56,55.68,54.9,97.61-1.08,9.77-3.02,18.39-5.09,28.21-7.92,37.45-5.26,77.16,9.94,112.15,13.15,30.27,34.45,53.67,61.58,70.11,9.35,5.67,17.45,13.3,22.39,23.19,11.1,22.19,4.94,48.99-13.01,65.25Z"/>
    <path class="cls-14" d="M1246.96,2525.2c.46-3.01.73-5.64,1.02-8.18,1.93-16.98,3.54-44.09.28-76.81-.87-8.73-1.32-17.85-1.74-26.68-.44-8.96-.85-17.43-1.67-24.83-2.53-22.58-4.04-34.77-7.04-48.86-1.82-8.57-3.83-17.52-5.96-26.98-1.2-5.32-2.43-10.81-3.69-16.48-5.62-25.37-16.19-48.99-25.65-69.13-6.36-13.54-15.66-28.68-22.34-38.99-14.82-22.88-29.21-40.59-45.27-55.73l-4.21-3.98c-7.94-7.53-15.43-14.63-22.61-20.01-5.36-4.01-14.5-16.18-24.32-29.27-12.08-16.08-16.98-36.38-17.92-40.66-.12-2.36-.15-5.45-.19-8.44l-.04-3.48c-.07-4.16-.21-6.97-.36-9.94l-17.04.93c.14,2.72.27,5.38.34,9.3l.05,3.39c.04,3.46.08,7.04.25,9.87l.16,1.22c.94,4.59,6.39,28.46,21.27,48.27,11.33,15.09,20.27,27,27.59,32.48,6.39,4.78,13.53,11.55,21.1,18.73l4.24,4.02c15.05,14.17,28.6,30.88,42.65,52.58,9.17,14.15,16.5,26.94,21.21,36.97,9.07,19.32,19.19,41.91,24.44,65.57,1.26,5.69,2.5,11.2,3.71,16.54,2.11,9.38,4.11,18.26,5.92,26.77,2.67,12.58,4.1,23.3,6.77,47.21.09.77.57,8.44,1.59,23.76.99,14.98,1.49,22.48,1.81,27.54,1.38,21.89,2.09,33.12,2.31,42.44.32,13.59-.18,32.77-3.94,56.44-1.23,3.05-2.46,6.11-3.69,9.16-4.93,11.67-10.86,22.94-17.82,33.76-13.05,20.3-28.88,37.25-46.65,53.25-20.26,18.26-41.79,33.89-53.82,59.68-12.17,26.11-13.76,59.31-7.68,85.7-.01-1.54-.17-3.12-.08-4.67l.23-4.43,1.39-12.22c.77-6.8,1.59-13.62,2.95-20.35,1.5-7.42,3.23-14.75,6.48-21.48,1.59-3.29,2.16-7.43,4.28-10.66,2.32-3.53,3.82-7.82,7.15-10.41,2.92-6.45,8.62-11.14,13.77-15.6l7.59-6.57c4.27-3.69,8.68-6.85,13.09-10.23,4.16-3.17,7.6-7.53,12.23-10.29,2.52-1.51,5.34-5.71,8.05-6.98,3.64-5.49,9.22-9.38,13.67-14.15,2.12-2.27,5.17-5.58,6.88-8.12,2.81-4.18,6.08-7.6,9.26-11.6s7.37-12.66,10.72-16.13c1.17-1.21,2.74-4.18,3.54-5.67,2.76-5.16,7.27-15.59,11.14-20.59.86-4.76,3.17-9.21,5.53-13.37.94-1.64.47-4.21,1.61-5.86.25-.35.5-.7.87-.92v-.58c2.28-6.43,4.94-15.34,6.62-26.23Z"/>
    <path class="cls-15" d="M1372.23,3077.25l-2.08-21.52c-.69-7.08-2.48-13.98-3.37-21.07-.82-6.49-4.33-12.9-4.74-19.6-.04-.54-.63-1.35-.8-1.93-4.04-14.36-9.34-28.22-15.03-41.94-2.42-5.81-7.3-10.58-9.18-16.66-1.69-1.16-3-2.83-4.19-4.53-9.4-13.32-21.39-25.4-35.5-33.43-12.32-7.02-26.87-8.23-40.33-11.1l-19.53.03c-.29,0-.6,0-.89.02l-19.73,1.67-19.61.98c-7.58.38-14.72-.61-22.12-1.59-6.37-.85-11.73-2.83-17.64-4.92-16.2-5.72-30.57-18.69-37.67-35.02-.14-.34-.53-.86-.8-1.09-1.06-.93-1.71-2.19-1.91-3.63l-.78-1c-.21-.28-.63-.54-.67-.93-.06-.61-.03-1.25-.14-1.85-3.05-3.57-3.59-8.61-5.19-12.93-2.58-6.94-4.13-14.51-5.34-21.55-1.21-7.04-2.23-14.15-2.86-21.28l-.74-8.28c-.14-1.58-.06-3.07-.07-4.64l-.04-7.38c-5.97-26.48-4.41-59.8,7.54-86,8.4-18.4,23.76-31.96,52.86-59.89,14.79-14.19,26.19-23.43,42.66-42.74,9.94-11.66,17.4-21.91,22.26-28.94,6.15-9.89,10.71-18.7,14.03-25.78,3.89-8.29,6.66-15.45,6.66-24.57,0-.51,0-1.02-.03-1.52v-.12c-.06-6.1-.23-24.67-.75-50.03-.36-17.55-1.71-37.79-3.71-55.52-2.77-24.66-4.45-37.39-7.66-52.42-1.87-8.73-3.93-17.85-6.12-27.5-1.19-5.25-2.42-10.66-3.66-16.24-6.48-29.06-18.09-54.9-28.46-76.84-5.86-12.41-14.25-27-24.92-43.36-16.56-25.4-32.84-45.25-51.24-62.48l-4.15-3.9c-8.14-7.67-16.56-15.59-25.21-22.12-3.4-3.36-11.69-14.33-17.85-22.49-5.14-6.8-8.88-16.64-10.67-23.27-.03-1.26-.04-2.63-.06-3.86l-.05-3.69c-.07-4.61-.23-7.75-.4-11.18l-45.45,2.28-45.44,2.52c.11,2.3.23,4.56.29,7.94l.04,3.23c.04,3.69.09,7.88.31,11.57l.2,3.28.67,3.22c1.72,8.35,8.85,37.57,28.01,62.93,13.73,18.17,23.65,31.3,35.29,39.96,4.69,3.49,11.42,9.82,17.93,15.95l4.35,4.09c12.92,12.09,24.74,26.63,37.2,45.74,8.3,12.73,14.83,23.98,18.88,32.54,8.27,17.5,17.47,37.83,21.92,57.76,1.27,5.69,2.52,11.2,3.73,16.54,2.1,9.26,4.09,18.01,5.88,26.39,2.38,11.17,3.64,20.67,6.22,43.57,1.67,14.88,2.85,32.53,3.15,47.21.4,19.46.59,34.83.68,43.45,0,.77.09,2.82.05,5.56-.04,2.93-.16,10.96-1.59,17.18-.89,3.88-3.25,11.25-10.57,19.4l-7.22,9.48c-3.54,4.65-6.95,8.43-11.62,11.84-3.09,2.26-5.64,3.99-8.95,5.78-6.15,3.33-12.39,5.4-19.54,4.27-16.61-2.61-23.58-11.86-35.43-24.1-7.77-8.02-15.95-14.86-24.46-21.32-3.24-2.45-7.71-3.37-10.57-6.49-.22.04-.63.07-.83-.02-3.01-1.47-6.49-2.1-8.96-4.47l-19.61-6.6-20.35-3.68-20.44-1.92c-6.67-.62-13.89.82-20.64.93-6.14.1-12.54,1.03-18.62,1.91-6.9.99-13.88,2.77-20.54,4.83l-20.31,6.3c-2.26.59-5.05,2.86-7.46,3.76-4.08,1.53-8.31,3.25-12.1,5.43l-19.86,11.45c-1.37.79-2.56,2.58-4.23,2.68-.33.11-.88.59-1.16.83-.36.32-1.11.42-1.38.79-3.39,4.61-9.31,6.78-13.31,10.35l-10,9.42-9.72,10-9.1,11.06c-3.81,4.64-6.03,11.12-10.7,15.12-1.29,1.15-1.58,5.04-3.54,5.82-2.5,7.09-8.13,13.83-10.6,21.01l-5.83,16.96c-.4,1.16-.67,2.43-1.29,3.5-.32.56.14,1.99-.81,1.93l-5.48,19.65-4.3,22.89-2.6,18.84c-.94,6.81.3,14.21-1.26,21.06-.55,2.43-.07,5.92-.05,8.45.12,11.49-.14,22.95.89,34.41.41,4.56,1.11,12.51.99,16.69l.93-.06c-.2-2.12,1.38-2.12.57-.08,2.35,15.18,7.22,28.63,12.8,42.85,25.52,65,65.22,123.12,115.72,169.68,20.38,18.79,42.3,34.51,67.03,46.29,53.57,25.52,118.29,35.51,175.18,16.85,26.3-8.62,49.44-22.69,71.28-39.97l31.86-25.21c7.06-5.59,15.02-9.32,23.65-11.57,23.05-6.01,41.43,8.8,49.69,30.44,4.19,10.96,6.59,22.34,7.5,33.93-10.64,8.15-17.6,20.86-17.87,35.24-.44,5.16-4.67,28.51-17.68,51.9-8.51,15.28-19.09,24.58-29.32,33.57l-3.43,3.02c-17.47,15.52-34.61,27.4-43.25,33.09-1.43.94-3.81,2.47-7.06,4.56-11.28,7.24-32.28,20.73-59.9,39.26-24.51,16.44-38.45,31.29-57.1,54.63-8.97,11.24-16.79,23.35-27.61,40.1l-2.1,3.26c-15.52,24.03-28.41,44.93-38.31,62.14-27.92,48.52-40.68,78.88-44.04,104.76-2.63,20.29-2.87,42.68-2.96,51.12l-.03,1.99c-.58,25.13,19.33,45.96,44.46,46.54.36,0,.71.01,1.06.01,24.65,0,44.91-19.69,45.48-44.47.01-.66.03-1.71.04-3.09.07-6.96.27-25.43,2.21-40.37,1.59-12.26,12.58-36.18,32.67-71.09,9-15.63,21.4-35.74,35.87-58.13l2.12-3.27c9.38-14.52,16.16-25.01,22.27-32.68,15.55-19.46,22.74-26.49,36.67-35.84,26.88-18.03,47.38-31.2,58.39-38.27,3.62-2.33,6.28-4.03,7.89-5.09,13.09-8.61,33.02-22.74,53.68-41.09l3.04-2.68c12.99-11.41,32.63-28.66,48.78-57.69,21.4-38.45,29.16-78.05,29.16-95.29,0-1.62-.09-3.22-.26-4.8.07-5.34.55-10.8.04-16.02ZM800.5,2738.51c-14.19-.24-23.51-94.74,43.17-152.2,20.17-17.38,43.57-29.1,69.37-32.83,5.8-.84,23.54-2.2,25.53,3.92,1.85,5.7-8.94,12.27-13.62,14.98-17.63,10.2-34.25,20.99-49.84,34.38h0c-33.44,28.72-48.02,61.16-61.35,103.23-2.13,6.74-7.54,28.62-13.27,28.52ZM1140.53,3013.33c-26.03,23.56-66.07,27.99-99.29,21.36-25.38-5.07-48.94-15.49-70.36-30.67-34.72-24.62-62.19-57.27-83.27-95.01-11.84-21.2-21.52-42.78-29.12-66.05-17.18-52.62-15.66-115.22,12.33-163.61,18.8-32.49,49.01-56.29,84.53-64.75,18.75-4.46,37.53-3.5,54.97,4.08,37.29,16.21,59.33,55.42,54.69,97.15-1.08,9.73-3.01,18.3-5.07,28.08-7.89,37.27-5.24,76.79,9.9,111.62,13.1,30.12,34.32,53.41,61.35,69.78,9.32,5.65,17.39,13.25,22.31,23.08,11.06,22.08,4.92,48.76-12.96,64.94Z"/>
    <path class="cls-10" d="M1289.96,3061.09c0,7.76-5.15,40.54-23.62,73.67-13.64,24.48-30.82,38.33-42.64,48.82-19.98,17.72-39.14,30.95-48.88,37.36-6.46,4.24-31.21,19.81-67.17,43.89-19.58,13.12-32.05,26.52-47.28,45.55-8.13,10.17-15.92,22.37-27.28,39.93-11.37,17.56-25.78,40.38-37.4,60.56-21,36.45-34.15,67.08-38.68,88.54-5.52,26.17-5.42,66.56-5.52,70.83"/>
    <rect class="cls-8" x="591.64" y="2018.6" width="861.87" height="1584.36" rx="359.82" ry="359.82"/>
    <rect class="cls-7" x="591.64" y="2018.6" width="861.87" height="1584.36" rx="359.82" ry="359.82"/>
    <path class="cls-12" d="M875.12,2606.76c15.59-13.39,32.21-24.18,49.84-34.38,4.68-2.71,15.47-9.28,13.62-14.98-1.99-6.12-19.73-4.76-25.53-3.92-25.8,3.73-49.2,15.45-69.37,32.83-66.68,57.46-57.36,151.96-43.17,152.2,5.73.1,11.14-21.78,13.27-28.52,13.32-42.07,27.9-74.51,61.35-103.22h0Z"/>
  </g>
  <path class="cls-2" d="M328.53,1411.13c0-235.68,191.06-426.74,426.74-426.74h537.45c235.68,0,426.74,191.06,426.74,426.74v401.14H328.53v-401.14Z"/>
  <circle class="cls-2" cx="1024.1" cy="456.63" r="428.14"/>
  <path class="cls-3" d="M1455.24,1812.27h264.53v-449.37c-17.8-158.22-122.12-290.26-264.53-347.69v797.06Z"/>
</svg>