<?xml version="1.0" encoding="UTF-8"?>
<svg id="Layer_1" data-name="Layer 1" xmlns="http://www.w3.org/2000/svg" xmlns:xlink="http://www.w3.org/1999/xlink" viewBox="0 0 2048 2048">
  <defs>
    <style>
      .cls-1 {
        fill: #ffe790;
      }

      .cls-2 {
        stroke: #d24e68;
        stroke-linecap: round;
        stroke-width: 85.33px;
      }

      .cls-2, .cls-3, .cls-4 {
        fill: none;
      }

      .cls-5 {
        fill: url(#linear-gradient);
      }

      .cls-3 {
        stroke: #bb405a;
        stroke-width: 59.73px;
      }

      .cls-6 {
        fill: #55001f;
      }

      .cls-4 {
        stroke: #cf5d5d;
        stroke-width: 31.29px;
      }
    </style>
    <linearGradient id="linear-gradient" x1="1001.53" y1="1653.26" x2="737" y2="1654.08" gradientTransform="translate(718 2678) scale(1 -1)" gradientUnits="userSpaceOnUse">
      <stop offset="0" stop-color="#ecbf5f"/>
      <stop offset="1" stop-color="#ffe790"/>
    </linearGradient>
  </defs>
  <path class="cls-1" d="M328.53.29h1390.93v2048H328.53V.29Z"/>
  <rect class="cls-5" x="1454.93" y=".29" width="264.53" height="2048"/>
  <rect class="cls-6" x="590.34" y="205.09" width="859.02" height="1581.51" rx="329.96" ry="329.96"/>
  <rect class="cls-4" x="605.99" y="220.73" width="827.73" height="1550.22" rx="314.31" ry="314.31"/>
  <path class="cls-2" d="M1019.73,233.52c7.2,26.38,20.89,65.15,48.75,104.9,46.85,66.86,85.62,75.72,119.07,133.94,21.8,37.94,31.09,85.9,14.62,127.57-39.19,91.34-167.03,82.94-251.02,88.44-19.32,1.24-37.82,3.16-55.15,8.91-40.01,12.21-60.25,46.89-29.18,77.61,13.76,13.97,38.53,22.34,61.19,25.39,30.12,4.2,59.62,3.61,90.48,3.84,56.34-.34,118.13,1.69,172.53,2.76,15.9.37,32,.79,47.56,3.95,38.5,6.88,55.77,34.78,23.23,61.55-43.92,34.05-116.53,33.32-171.76,34.28-52.38.2-108.98-4.94-156-10.69-39.79-3.95-81.82-9.62-121.32-1.21-66.26,12.75-76.04,82.83-7.98,101.28,29.75,8.18,60.65,4.8,91.17,4.54,59.42-.93,123.86-.48,185.04-1.35,57.8,2.34,180.91-13.99,202.31,45.25,15.42,66.24-157.54,70.44-201.37,65.11-73.55-7.25-161.19-27.02-232.38-8.6-18.73,5.42-37.59,15.63-46.88,32.92-14.48,26.23.71,57.15,26.59,69.99,53.89,27.76,138.88,15.99,200.04,11.11,48.7-3.78,98.15-12.95,143.58,5.56,51.81,25.16,27.41,73.43-18.1,87.73-72.73,22.91-151.98,7.48-226.28,9.51-24.22.93-55.6,10.86-59.79,33.79-2.91,13.46,4.22,29.28,19.21,41.24,17.13,14.22,46.11,22.14,69.71,27.59,53.18,10.52,86.26,26.41,104.2,52.28,13.39,19.31,18.09,40.21,12.65,116.9-3.17,44.65-9.13,104.83-21.28,176.31"/>
  <rect class="cls-3" x="588.8" y="206.51" width="861.87" height="1578.67" rx="359.82" ry="359.82"/>
</svg>